<svg class="rich-terminal" viewBox="0 0 1714 928.4" xmlns="http://www.w3.org/2000/svg">
    <!-- Generated with Rich https://www.textualize.io -->
    <style>

    @font-face {
        font-family: "Fira Code";
        src: local("FiraCode-Regular"),
                url("https://cdnjs.cloudflare.com/ajax/libs/firacode/6.2.0/woff2/FiraCode-Regular.woff2") format("woff2"),
                url("https://cdnjs.cloudflare.com/ajax/libs/firacode/6.2.0/woff/FiraCode-Regular.woff") format("woff");
        font-style: normal;
        font-weight: 400;
    }
    @font-face {
        font-family: "Fira Code";
        src: local("FiraCode-Bold"),
                url("https://cdnjs.cloudflare.com/ajax/libs/firacode/6.2.0/woff2/FiraCode-Bold.woff2") format("woff2"),
                url("https://cdnjs.cloudflare.com/ajax/libs/firacode/6.2.0/woff/FiraCode-Bold.woff") format("woff");
        font-style: bold;
        font-weight: 700;
    }

    .terminal-3793086043-matrix {
        font-family: Fira Code, monospace;
        font-size: 20px;
        line-height: 24.4px;
        font-variant-east-asian: full-width;
    }

    .terminal-3793086043-title {
        font-size: 18px;
        font-weight: bold;
        font-family: arial;
    }

    .terminal-3793086043-r1 { fill: #c5c8c6 }
.terminal-3793086043-r2 { fill: #e0e0e0 }
.terminal-3793086043-r3 { fill: #797979 }
.terminal-3793086043-r4 { fill: #262626 }
.terminal-3793086043-r5 { fill: #0178d4 }
.terminal-3793086043-r6 { fill: #e0e0e0;font-weight: bold }
.terminal-3793086043-r7 { fill: #fea62b;font-weight: bold;font-style: italic; }
.terminal-3793086043-r8 { fill: #094370 }
.terminal-3793086043-r9 { fill: #2d2d2d }
.terminal-3793086043-r10 { fill: #63778b;font-weight: bold }
.terminal-3793086043-r11 { fill: #082951 }
.terminal-3793086043-r12 { fill: #0d0d0d }
.terminal-3793086043-r13 { fill: #a0a0a0 }
.terminal-3793086043-r14 { fill: #004578 }
.terminal-3793086043-r15 { fill: #00ffff;font-weight: bold }
.terminal-3793086043-r16 { fill: #495259 }
.terminal-3793086043-r17 { fill: #ffa62b;font-weight: bold }
    </style>

    <defs>
    <clipPath id="terminal-3793086043-clip-terminal">
      <rect x="0" y="0" width="1694.8" height="877.4" />
    </clipPath>
    <clipPath id="terminal-3793086043-line-0">
    <rect x="0" y="1.5" width="1695.8" height="24.65"/>
            </clipPath>
<clipPath id="terminal-3793086043-line-1">
    <rect x="0" y="25.9" width="1695.8" height="24.65"/>
            </clipPath>
<clipPath id="terminal-3793086043-line-2">
    <rect x="0" y="50.3" width="1695.8" height="24.65"/>
            </clipPath>
<clipPath id="terminal-3793086043-line-3">
    <rect x="0" y="74.7" width="1695.8" height="24.65"/>
            </clipPath>
<clipPath id="terminal-3793086043-line-4">
    <rect x="0" y="99.1" width="1695.8" height="24.65"/>
            </clipPath>
<clipPath id="terminal-3793086043-line-5">
    <rect x="0" y="123.5" width="1695.8" height="24.65"/>
            </clipPath>
<clipPath id="terminal-3793086043-line-6">
    <rect x="0" y="147.9" width="1695.8" height="24.65"/>
            </clipPath>
<clipPath id="terminal-3793086043-line-7">
    <rect x="0" y="172.3" width="1695.8" height="24.65"/>
            </clipPath>
<clipPath id="terminal-3793086043-line-8">
    <rect x="0" y="196.7" width="1695.8" height="24.65"/>
            </clipPath>
<clipPath id="terminal-3793086043-line-9">
    <rect x="0" y="221.1" width="1695.8" height="24.65"/>
            </clipPath>
<clipPath id="terminal-3793086043-line-10">
    <rect x="0" y="245.5" width="1695.8" height="24.65"/>
            </clipPath>
<clipPath id="terminal-3793086043-line-11">
    <rect x="0" y="269.9" width="1695.8" height="24.65"/>
            </clipPath>
<clipPath id="terminal-3793086043-line-12">
    <rect x="0" y="294.3" width="1695.8" height="24.65"/>
            </clipPath>
<clipPath id="terminal-3793086043-line-13">
    <rect x="0" y="318.7" width="1695.8" height="24.65"/>
            </clipPath>
<clipPath id="terminal-3793086043-line-14">
    <rect x="0" y="343.1" width="1695.8" height="24.65"/>
            </clipPath>
<clipPath id="terminal-3793086043-line-15">
    <rect x="0" y="367.5" width="1695.8" height="24.65"/>
            </clipPath>
<clipPath id="terminal-3793086043-line-16">
    <rect x="0" y="391.9" width="1695.8" height="24.65"/>
            </clipPath>
<clipPath id="terminal-3793086043-line-17">
    <rect x="0" y="416.3" width="1695.8" height="24.65"/>
            </clipPath>
<clipPath id="terminal-3793086043-line-18">
    <rect x="0" y="440.7" width="1695.8" height="24.65"/>
            </clipPath>
<clipPath id="terminal-3793086043-line-19">
    <rect x="0" y="465.1" width="1695.8" height="24.65"/>
            </clipPath>
<clipPath id="terminal-3793086043-line-20">
    <rect x="0" y="489.5" width="1695.8" height="24.65"/>
            </clipPath>
<clipPath id="terminal-3793086043-line-21">
    <rect x="0" y="513.9" width="1695.8" height="24.65"/>
            </clipPath>
<clipPath id="terminal-3793086043-line-22">
    <rect x="0" y="538.3" width="1695.8" height="24.65"/>
            </clipPath>
<clipPath id="terminal-3793086043-line-23">
    <rect x="0" y="562.7" width="1695.8" height="24.65"/>
            </clipPath>
<clipPath id="terminal-3793086043-line-24">
    <rect x="0" y="587.1" width="1695.8" height="24.65"/>
            </clipPath>
<clipPath id="terminal-3793086043-line-25">
    <rect x="0" y="611.5" width="1695.8" height="24.65"/>
            </clipPath>
<clipPath id="terminal-3793086043-line-26">
    <rect x="0" y="635.9" width="1695.8" height="24.65"/>
            </clipPath>
<clipPath id="terminal-3793086043-line-27">
    <rect x="0" y="660.3" width="1695.8" height="24.65"/>
            </clipPath>
<clipPath id="terminal-3793086043-line-28">
    <rect x="0" y="684.7" width="1695.8" height="24.65"/>
            </clipPath>
<clipPath id="terminal-3793086043-line-29">
    <rect x="0" y="709.1" width="1695.8" height="24.65"/>
            </clipPath>
<clipPath id="terminal-3793086043-line-30">
    <rect x="0" y="733.5" width="1695.8" height="24.65"/>
            </clipPath>
<clipPath id="terminal-3793086043-line-31">
    <rect x="0" y="757.9" width="1695.8" height="24.65"/>
            </clipPath>
<clipPath id="terminal-3793086043-line-32">
    <rect x="0" y="782.3" width="1695.8" height="24.65"/>
            </clipPath>
<clipPath id="terminal-3793086043-line-33">
    <rect x="0" y="806.7" width="1695.8" height="24.65"/>
            </clipPath>
<clipPath id="terminal-3793086043-line-34">
    <rect x="0" y="831.1" width="1695.8" height="24.65"/>
            </clipPath>
    </defs>

    <rect fill="#292929" stroke="rgba(255,255,255,0.35)" stroke-width="1" x="1" y="1" width="1712" height="926.4" rx="8"/><text class="terminal-3793086043-title" fill="#c5c8c6" text-anchor="middle" x="856" y="27">etui&#160;—&#160;about</text>
            <g transform="translate(26,22)">
            <circle cx="0" cy="0" r="7" fill="#ff5f57"/>
            <circle cx="22" cy="0" r="7" fill="#febc2e"/>
            <circle cx="44" cy="0" r="7" fill="#28c840"/>
            </g>
        
    <g transform="translate(9, 41)" clip-path="url(#terminal-3793086043-clip-terminal)">
    <rect fill="#242f38" x="0" y="1.5" width="12.2" height="24.65" shape-rendering="crispEdges"/><rect fill="#242f38" x="12.2" y="1.5" width="12.2" height="24.65" shape-rendering="crispEdges"/><rect fill="#242f38" x="24.4" y="1.5" width="61" height="24.65" shape-rendering="crispEdges"/><rect fill="#242f38" x="85.4" y="1.5" width="12.2" height="24.65" shape-rendering="crispEdges"/><rect fill="#242f38" x="97.6" y="1.5" width="695.4" height="24.65" shape-rendering="crispEdges"/><rect fill="#242f38" x="793" y="1.5" width="85.4" height="24.65" shape-rendering="crispEdges"/><rect fill="#242f38" x="878.4" y="1.5" width="695.4" height="24.65" shape-rendering="crispEdges"/><rect fill="#242f38" x="1573.8" y="1.5" width="12.2" height="24.65" shape-rendering="crispEdges"/><rect fill="#242f38" x="1586" y="1.5" width="0" height="24.65" shape-rendering="crispEdges"/><rect fill="#242f38" x="1586" y="1.5" width="97.6" height="24.65" shape-rendering="crispEdges"/><rect fill="#242f38" x="1683.6" y="1.5" width="12.2" height="24.65" shape-rendering="crispEdges"/><rect fill="#121212" x="0" y="25.9" width="12.2" height="24.65" shape-rendering="crispEdges"/><rect fill="#121212" x="12.2" y="25.9" width="61" height="24.65" shape-rendering="crispEdges"/><rect fill="#121212" x="73.2" y="25.9" width="12.2" height="24.65" shape-rendering="crispEdges"/><rect fill="#121212" x="85.4" y="25.9" width="12.2" height="24.65" shape-rendering="crispEdges"/><rect fill="#121212" x="97.6" y="25.9" width="85.4" height="24.65" shape-rendering="crispEdges"/><rect fill="#121212" x="183" y="25.9" width="12.2" height="24.65" shape-rendering="crispEdges"/><rect fill="#121212" x="195.2" y="25.9" width="12.2" height="24.65" shape-rendering="crispEdges"/><rect fill="#121212" x="207.4" y="25.9" width="97.6" height="24.65" shape-rendering="crispEdges"/><rect fill="#121212" x="305" y="25.9" width="12.2" height="24.65" shape-rendering="crispEdges"/><rect fill="#121212" x="317.2" y="25.9" width="12.2" height="24.65" shape-rendering="crispEdges"/><rect fill="#121212" x="329.4" y="25.9" width="48.8" height="24.65" shape-rendering="crispEdges"/><rect fill="#121212" x="378.2" y="25.9" width="12.2" height="24.65" shape-rendering="crispEdges"/><rect fill="#121212" x="390.4" y="25.9" width="12.2" height="24.65" shape-rendering="crispEdges"/><rect fill="#121212" x="402.6" y="25.9" width="85.4" height="24.65" shape-rendering="crispEdges"/><rect fill="#121212" x="488" y="25.9" width="12.2" height="24.65" shape-rendering="crispEdges"/><rect fill="#121212" x="500.2" y="25.9" width="12.2" height="24.65" shape-rendering="crispEdges"/><rect fill="#121212" x="512.4" y="25.9" width="48.8" height="24.65" shape-rendering="crispEdges"/><rect fill="#121212" x="561.2" y="25.9" width="12.2" height="24.65" shape-rendering="crispEdges"/><rect fill="#121212" x="573.4" y="25.9" width="12.2" height="24.65" shape-rendering="crispEdges"/><rect fill="#121212" x="585.6" y="25.9" width="36.6" height="24.65" shape-rendering="crispEdges"/><rect fill="#121212" x="622.2" y="25.9" width="12.2" height="24.65" shape-rendering="crispEdges"/><rect fill="#121212" x="634.4" y="25.9" width="12.2" height="24.65" shape-rendering="crispEdges"/><rect fill="#121212" x="646.6" y="25.9" width="73.2" height="24.65" shape-rendering="crispEdges"/><rect fill="#121212" x="719.8" y="25.9" width="12.2" height="24.65" shape-rendering="crispEdges"/><rect fill="#121212" x="732" y="25.9" width="12.2" height="24.65" shape-rendering="crispEdges"/><rect fill="#121212" x="744.2" y="25.9" width="61" height="24.65" shape-rendering="crispEdges"/><rect fill="#121212" x="805.2" y="25.9" width="12.2" height="24.65" shape-rendering="crispEdges"/><rect fill="#121212" x="817.4" y="25.9" width="12.2" height="24.65" shape-rendering="crispEdges"/><rect fill="#121212" x="829.6" y="25.9" width="73.2" height="24.65" shape-rendering="crispEdges"/><rect fill="#121212" x="902.8" y="25.9" width="12.2" height="24.65" shape-rendering="crispEdges"/><rect fill="#121212" x="915" y="25.9" width="12.2" height="24.65" shape-rendering="crispEdges"/><rect fill="#121212" x="927.2" y="25.9" width="97.6" height="24.65" shape-rendering="crispEdges"/><rect fill="#121212" x="1024.8" y="25.9" width="12.2" height="24.65" shape-rendering="crispEdges"/><rect fill="#121212" x="1037" y="25.9" width="12.2" height="24.65" shape-rendering="crispEdges"/><rect fill="#121212" x="1049.2" y="25.9" width="61" height="24.65" shape-rendering="crispEdges"/><rect fill="#121212" x="1110.2" y="25.9" width="12.2" height="24.65" shape-rendering="crispEdges"/><rect fill="#121212" x="1122.4" y="25.9" width="12.2" height="24.65" shape-rendering="crispEdges"/><rect fill="#121212" x="1134.6" y="25.9" width="48.8" height="24.65" shape-rendering="crispEdges"/><rect fill="#121212" x="1183.4" y="25.9" width="12.2" height="24.65" shape-rendering="crispEdges"/><rect fill="#121212" x="1195.6" y="25.9" width="12.2" height="24.65" shape-rendering="crispEdges"/><rect fill="#121212" x="1207.8" y="25.9" width="61" height="24.65" shape-rendering="crispEdges"/><rect fill="#121212" x="1268.8" y="25.9" width="12.2" height="24.65" shape-rendering="crispEdges"/><rect fill="#121212" x="1281" y="25.9" width="244" height="24.65" shape-rendering="crispEdges"/><rect fill="#121212" x="1525" y="25.9" width="12.2" height="24.65" shape-rendering="crispEdges"/><rect fill="#121212" x="1537.2" y="25.9" width="61" height="24.65" shape-rendering="crispEdges"/><rect fill="#121212" x="1598.2" y="25.9" width="12.2" height="24.65" shape-rendering="crispEdges"/><rect fill="#121212" x="1610.4" y="25.9" width="12.2" height="24.65" shape-rendering="crispEdges"/><rect fill="#121212" x="1622.6" y="25.9" width="61" height="24.65" shape-rendering="crispEdges"/><rect fill="#121212" x="1683.6" y="25.9" width="12.2" height="24.65" shape-rendering="crispEdges"/><rect fill="#121212" x="0" y="50.3" width="1610.4" height="24.65" shape-rendering="crispEdges"/><rect fill="#121212" x="1610.4" y="50.3" width="12.2" height="24.65" shape-rendering="crispEdges"/><rect fill="#121212" x="1622.6" y="50.3" width="61" height="24.65" shape-rendering="crispEdges"/><rect fill="#121212" x="1683.6" y="50.3" width="12.2" height="24.65" shape-rendering="crispEdges"/><rect fill="#121212" x="0" y="74.7" width="1695.8" height="24.65" shape-rendering="crispEdges"/><rect fill="#121212" x="0" y="99.1" width="24.4" height="24.65" shape-rendering="crispEdges"/><rect fill="#121212" x="24.4" y="99.1" width="488" height="24.65" shape-rendering="crispEdges"/><rect fill="#121212" x="512.4" y="99.1" width="24.4" height="24.65" shape-rendering="crispEdges"/><rect fill="#121212" x="536.8" y="99.1" width="48.8" height="24.65" shape-rendering="crispEdges"/><rect fill="#121212" x="585.6" y="99.1" width="183" height="24.65" shape-rendering="crispEdges"/><rect fill="#121212" x="768.6" y="99.1" width="402.6" height="24.65" shape-rendering="crispEdges"/><rect fill="#121212" x="1171.2" y="99.1" width="500.2" height="24.65" shape-rendering="crispEdges"/><rect fill="#121212" x="1671.4" y="99.1" width="24.4" height="24.65" shape-rendering="crispEdges"/><rect fill="#121212" x="0" y="123.5" width="24.4" height="24.65" shape-rendering="crispEdges"/><rect fill="#121212" x="24.4" y="123.5" width="488" height="24.65" shape-rendering="crispEdges"/><rect fill="#121212" x="512.4" y="123.5" width="658.8" height="24.65" shape-rendering="crispEdges"/><rect fill="#121212" x="1171.2" y="123.5" width="500.2" height="24.65" shape-rendering="crispEdges"/><rect fill="#121212" x="1671.4" y="123.5" width="24.4" height="24.65" shape-rendering="crispEdges"/><rect fill="#121212" x="0" y="147.9" width="24.4" height="24.65" shape-rendering="crispEdges"/><rect fill="#121212" x="24.4" y="147.9" width="488" height="24.65" shape-rendering="crispEdges"/><rect fill="#121212" x="512.4" y="147.9" width="24.4" height="24.65" shape-rendering="crispEdges"/><rect fill="#352815" x="536.8" y="147.9" width="36.6" height="24.65" shape-rendering="crispEdges"/><rect fill="#352815" x="573.4" y="147.9" width="256.2" height="24.65" shape-rendering="crispEdges"/><rect fill="#352815" x="829.6" y="147.9" width="36.6" height="24.65" shape-rendering="crispEdges"/><rect fill="#121212" x="866.2" y="147.9" width="305" height="24.65" shape-rendering="crispEdges"/><rect fill="#121212" x="1171.2" y="147.9" width="500.2" height="24.65" shape-rendering="crispEdges"/><rect fill="#121212" x="1671.4" y="147.9" width="24.4" height="24.65" shape-rendering="crispEdges"/><rect fill="#121212" x="0" y="172.3" width="24.4" height="24.65" shape-rendering="crispEdges"/><rect fill="#121212" x="24.4" y="172.3" width="488" height="24.65" shape-rendering="crispEdges"/><rect fill="#121212" x="512.4" y="172.3" width="658.8" height="24.65" shape-rendering="crispEdges"/><rect fill="#121212" x="1171.2" y="172.3" width="500.2" height="24.65" shape-rendering="crispEdges"/><rect fill="#121212" x="1671.4" y="172.3" width="24.4" height="24.65" shape-rendering="crispEdges"/><rect fill="#121212" x="0" y="196.7" width="24.4" height="24.65" shape-rendering="crispEdges"/><rect fill="#121212" x="24.4" y="196.7" width="488" height="24.65" shape-rendering="crispEdges"/><rect fill="#121212" x="512.4" y="196.7" width="24.4" height="24.65" shape-rendering="crispEdges"/><rect fill="#121212" x="536.8" y="196.7" width="610" height="24.65" shape-rendering="crispEdges"/><rect fill="#121212" x="1146.8" y="196.7" width="24.4" height="24.65" shape-rendering="crispEdges"/><rect fill="#121212" x="1171.2" y="196.7" width="500.2" height="24.65" shape-rendering="crispEdges"/><rect fill="#121212" x="1671.4" y="196.7" width="24.4" height="24.65" shape-rendering="crispEdges"/><rect fill="#121212" x="0" y="221.1" width="24.4" height="24.65" shape-rendering="crispEdges"/><rect fill="#121212" x="24.4" y="221.1" width="488" height="24.65" shape-rendering="crispEdges"/><rect fill="#121212" x="512.4" y="221.1" width="24.4" height="24.65" shape-rendering="crispEdges"/><rect fill="#121212" x="536.8" y="221.1" width="561.2" height="24.65" shape-rendering="crispEdges"/><rect fill="#121212" x="1098" y="221.1" width="12.2" height="24.65" shape-rendering="crispEdges"/><rect fill="#121212" x="1110.2" y="221.1" width="61" height="24.65" shape-rendering="crispEdges"/><rect fill="#121212" x="1171.2" y="221.1" width="500.2" height="24.65" shape-rendering="crispEdges"/><rect fill="#121212" x="1671.4" y="221.1" width="24.4" height="24.65" shape-rendering="crispEdges"/><rect fill="#121212" x="0" y="245.5" width="24.4" height="24.65" shape-rendering="crispEdges"/><rect fill="#121212" x="24.4" y="245.5" width="488" height="24.65" shape-rendering="crispEdges"/><rect fill="#121212" x="512.4" y="245.5" width="24.4" height="24.65" shape-rendering="crispEdges"/><rect fill="#121212" x="536.8" y="245.5" width="561.2" height="24.65" shape-rendering="crispEdges"/><rect fill="#121212" x="1098" y="245.5" width="12.2" height="24.65" shape-rendering="crispEdges"/><rect fill="#121212" x="1110.2" y="245.5" width="61" height="24.65" shape-rendering="crispEdges"/><rect fill="#121212" x="1171.2" y="245.5" width="500.2" height="24.65" shape-rendering="crispEdges"/><rect fill="#121212" x="1671.4" y="245.5" width="24.4" height="24.65" shape-rendering="crispEdges"/><rect fill="#121212" x="0" y="269.9" width="24.4" height="24.65" shape-rendering="crispEdges"/><rect fill="#121212" x="24.4" y="269.9" width="488" height="24.65" shape-rendering="crispEdges"/><rect fill="#121212" x="512.4" y="269.9" width="24.4" height="24.65" shape-rendering="crispEdges"/><rect fill="#121212" x="536.8" y="269.9" width="573.4" height="24.65" shape-rendering="crispEdges"/><rect fill="#121212" x="1110.2" y="269.9" width="61" height="24.65" shape-rendering="crispEdges"/><rect fill="#121212" x="1171.2" y="269.9" width="500.2" height="24.65" shape-rendering="crispEdges"/><rect fill="#121212" x="1671.4" y="269.9" width="24.4" height="24.65" shape-rendering="crispEdges"/><rect fill="#121212" x="0" y="294.3" width="24.4" height="24.65" shape-rendering="crispEdges"/><rect fill="#121212" x="24.4" y="294.3" width="24.4" height="24.65" shape-rendering="crispEdges"/><rect fill="#121212" x="48.8" y="294.3" width="1598.2" height="24.65" shape-rendering="crispEdges"/><rect fill="#121212" x="1647" y="294.3" width="24.4" height="24.65" shape-rendering="crispEdges"/><rect fill="#121212" x="1671.4" y="294.3" width="24.4" height="24.65" shape-rendering="crispEdges"/><rect fill="#121212" x="0" y="318.7" width="24.4" height="24.65" shape-rendering="crispEdges"/><rect fill="#121212" x="24.4" y="318.7" width="24.4" height="24.65" shape-rendering="crispEdges"/><rect fill="#121212" x="48.8" y="318.7" width="353.8" height="24.65" shape-rendering="crispEdges"/><rect fill="#08315c" x="402.6" y="318.7" width="256.2" height="24.65" shape-rendering="crispEdges"/><rect fill="#121212" x="658.8" y="318.7" width="12.2" height="24.65" shape-rendering="crispEdges"/><rect fill="#1e1e1e" x="671" y="318.7" width="195.2" height="24.65" shape-rendering="crispEdges"/><rect fill="#121212" x="866.2" y="318.7" width="12.2" height="24.65" shape-rendering="crispEdges"/><rect fill="#1e1e1e" x="878.4" y="318.7" width="195.2" height="24.65" shape-rendering="crispEdges"/><rect fill="#121212" x="1073.6" y="318.7" width="12.2" height="24.65" shape-rendering="crispEdges"/><rect fill="#1e1e1e" x="1085.8" y="318.7" width="195.2" height="24.65" shape-rendering="crispEdges"/><rect fill="#121212" x="1281" y="318.7" width="366" height="24.65" shape-rendering="crispEdges"/><rect fill="#121212" x="1647" y="318.7" width="24.4" height="24.65" shape-rendering="crispEdges"/><rect fill="#121212" x="1671.4" y="318.7" width="24.4" height="24.65" shape-rendering="crispEdges"/><rect fill="#121212" x="0" y="343.1" width="24.4" height="24.65" shape-rendering="crispEdges"/><rect fill="#121212" x="24.4" y="343.1" width="24.4" height="24.65" shape-rendering="crispEdges"/><rect fill="#121212" x="48.8" y="343.1" width="353.8" height="24.65" shape-rendering="crispEdges"/><rect fill="#08315c" x="402.6" y="343.1" width="256.2" height="24.65" shape-rendering="crispEdges"/><rect fill="#121212" x="658.8" y="343.1" width="12.2" height="24.65" shape-rendering="crispEdges"/><rect fill="#1e1e1e" x="671" y="343.1" width="24.4" height="24.65" shape-rendering="crispEdges"/><rect fill="#1e1e1e" x="695.4" y="343.1" width="134.2" height="24.65" shape-rendering="crispEdges"/><rect fill="#1e1e1e" x="829.6" y="343.1" width="36.6" height="24.65" shape-rendering="crispEdges"/><rect fill="#121212" x="866.2" y="343.1" width="12.2" height="24.65" shape-rendering="crispEdges"/><rect fill="#1e1e1e" x="878.4" y="343.1" width="12.2" height="24.65" shape-rendering="crispEdges"/><rect fill="#1e1e1e" x="890.6" y="343.1" width="170.8" height="24.65" shape-rendering="crispEdges"/><rect fill="#1e1e1e" x="1061.4" y="343.1" width="12.2" height="24.65" shape-rendering="crispEdges"/><rect fill="#121212" x="1073.6" y="343.1" width="12.2" height="24.65" shape-rendering="crispEdges"/><rect fill="#1e1e1e" x="1085.8" y="343.1" width="12.2" height="24.65" shape-rendering="crispEdges"/><rect fill="#1e1e1e" x="1098" y="343.1" width="158.6" height="24.65" shape-rendering="crispEdges"/><rect fill="#1e1e1e" x="1256.6" y="343.1" width="24.4" height="24.65" shape-rendering="crispEdges"/><rect fill="#121212" x="1281" y="343.1" width="366" height="24.65" shape-rendering="crispEdges"/><rect fill="#121212" x="1647" y="343.1" width="24.4" height="24.65" shape-rendering="crispEdges"/><rect fill="#121212" x="1671.4" y="343.1" width="24.4" height="24.65" shape-rendering="crispEdges"/><rect fill="#121212" x="0" y="367.5" width="24.4" height="24.65" shape-rendering="crispEdges"/><rect fill="#121212" x="24.4" y="367.5" width="24.4" height="24.65" shape-rendering="crispEdges"/><rect fill="#121212" x="48.8" y="367.5" width="353.8" height="24.65" shape-rendering="crispEdges"/><rect fill="#08315c" x="402.6" y="367.5" width="256.2" height="24.65" shape-rendering="crispEdges"/><rect fill="#121212" x="658.8" y="367.5" width="12.2" height="24.65" shape-rendering="crispEdges"/><rect fill="#1e1e1e" x="671" y="367.5" width="195.2" height="24.65" shape-rendering="crispEdges"/><rect fill="#121212" x="866.2" y="367.5" width="12.2" height="24.65" shape-rendering="crispEdges"/><rect fill="#1e1e1e" x="878.4" y="367.5" width="195.2" height="24.65" shape-rendering="crispEdges"/><rect fill="#121212" x="1073.6" y="367.5" width="12.2" height="24.65" shape-rendering="crispEdges"/><rect fill="#1e1e1e" x="1085.8" y="367.5" width="195.2" height="24.65" shape-rendering="crispEdges"/><rect fill="#121212" x="1281" y="367.5" width="366" height="24.65" shape-rendering="crispEdges"/><rect fill="#121212" x="1647" y="367.5" width="24.4" height="24.65" shape-rendering="crispEdges"/><rect fill="#121212" x="1671.4" y="367.5" width="24.4" height="24.65" shape-rendering="crispEdges"/><rect fill="#121212" x="0" y="391.9" width="24.4" height="24.65" shape-rendering="crispEdges"/><rect fill="#121212" x="24.4" y="391.9" width="24.4" height="24.65" shape-rendering="crispEdges"/><rect fill="#121212" x="48.8" y="391.9" width="1598.2" height="24.65" shape-rendering="crispEdges"/><rect fill="#121212" x="1647" y="391.9" width="24.4" height="24.65" shape-rendering="crispEdges"/><rect fill="#121212" x="1671.4" y="391.9" width="24.4" height="24.65" shape-rendering="crispEdges"/><rect fill="#121212" x="0" y="416.3" width="24.4" height="24.65" shape-rendering="crispEdges"/><rect fill="#121212" x="24.4" y="416.3" width="24.4" height="24.65" shape-rendering="crispEdges"/><rect fill="#121212" x="48.8" y="416.3" width="195.2" height="24.65" shape-rendering="crispEdges"/><rect fill="#121212" x="244" y="416.3" width="24.4" height="24.65" shape-rendering="crispEdges"/><rect fill="#121212" x="268.4" y="416.3" width="1403" height="24.65" shape-rendering="crispEdges"/><rect fill="#121212" x="1671.4" y="416.3" width="24.4" height="24.65" shape-rendering="crispEdges"/><rect fill="#121212" x="0" y="440.7" width="1695.8" height="24.65" shape-rendering="crispEdges"/><rect fill="#121212" x="0" y="465.1" width="48.8" height="24.65" shape-rendering="crispEdges"/><rect fill="#121212" x="48.8" y="465.1" width="1598.2" height="24.65" shape-rendering="crispEdges"/><rect fill="#121212" x="1647" y="465.1" width="48.8" height="24.65" shape-rendering="crispEdges"/><rect fill="#121212" x="0" y="489.5" width="48.8" height="24.65" shape-rendering="crispEdges"/><rect fill="#121212" x="48.8" y="489.5" width="1598.2" height="24.65" shape-rendering="crispEdges"/><rect fill="#121212" x="1647" y="489.5" width="48.8" height="24.65" shape-rendering="crispEdges"/><rect fill="#121212" x="0" y="513.9" width="48.8" height="24.65" shape-rendering="crispEdges"/><rect fill="#121212" x="48.8" y="513.9" width="1598.2" height="24.65" shape-rendering="crispEdges"/><rect fill="#121212" x="1647" y="513.9" width="48.8" height="24.65" shape-rendering="crispEdges"/><rect fill="#121212" x="0" y="538.3" width="48.8" height="24.65" shape-rendering="crispEdges"/><rect fill="#121212" x="48.8" y="538.3" width="268.4" height="24.65" shape-rendering="crispEdges"/><rect fill="#121212" x="317.2" y="538.3" width="1329.8" height="24.65" shape-rendering="crispEdges"/><rect fill="#121212" x="1647" y="538.3" width="48.8" height="24.65" shape-rendering="crispEdges"/><rect fill="#121212" x="0" y="562.7" width="48.8" height="24.65" shape-rendering="crispEdges"/><rect fill="#121212" x="48.8" y="562.7" width="0" height="24.65" shape-rendering="crispEdges"/><rect fill="#121212" x="48.8" y="562.7" width="268.4" height="24.65" shape-rendering="crispEdges"/><rect fill="#121212" x="317.2" y="562.7" width="1329.8" height="24.65" shape-rendering="crispEdges"/><rect fill="#121212" x="1647" y="562.7" width="48.8" height="24.65" shape-rendering="crispEdges"/><rect fill="#121212" x="0" y="587.1" width="48.8" height="24.65" shape-rendering="crispEdges"/><rect fill="#121212" x="48.8" y="587.1" width="24.4" height="24.65" shape-rendering="crispEdges"/><rect fill="#121212" x="73.2" y="587.1" width="109.8" height="24.65" shape-rendering="crispEdges"/><rect fill="#121212" x="183" y="587.1" width="122" height="24.65" shape-rendering="crispEdges"/><rect fill="#121212" x="305" y="587.1" width="85.4" height="24.65" shape-rendering="crispEdges"/><rect fill="#121212" x="390.4" y="587.1" width="48.8" height="24.65" shape-rendering="crispEdges"/><rect fill="#121212" x="439.2" y="587.1" width="85.4" height="24.65" shape-rendering="crispEdges"/><rect fill="#121212" x="524.6" y="587.1" width="231.8" height="24.65" shape-rendering="crispEdges"/><rect fill="#121212" x="756.4" y="587.1" width="890.6" height="24.65" shape-rendering="crispEdges"/><rect fill="#121212" x="1647" y="587.1" width="48.8" height="24.65" shape-rendering="crispEdges"/><rect fill="#121212" x="0" y="611.5" width="48.8" height="24.65" shape-rendering="crispEdges"/><rect fill="#121212" x="48.8" y="611.5" width="683.2" height="24.65" shape-rendering="crispEdges"/><rect fill="#121212" x="732" y="611.5" width="24.4" height="24.65" shape-rendering="crispEdges"/><rect fill="#121212" x="756.4" y="611.5" width="890.6" height="24.65" shape-rendering="crispEdges"/><rect fill="#121212" x="1647" y="611.5" width="48.8" height="24.65" shape-rendering="crispEdges"/><rect fill="#121212" x="0" y="635.9" width="48.8" height="24.65" shape-rendering="crispEdges"/><rect fill="#121212" x="48.8" y="635.9" width="451.4" height="24.65" shape-rendering="crispEdges"/><rect fill="#121212" x="500.2" y="635.9" width="256.2" height="24.65" shape-rendering="crispEdges"/><rect fill="#121212" x="756.4" y="635.9" width="890.6" height="24.65" shape-rendering="crispEdges"/><rect fill="#121212" x="1647" y="635.9" width="48.8" height="24.65" shape-rendering="crispEdges"/><rect fill="#121212" x="0" y="660.3" width="48.8" height="24.65" shape-rendering="crispEdges"/><rect fill="#121212" x="48.8" y="660.3" width="524.6" height="24.65" shape-rendering="crispEdges"/><rect fill="#121212" x="573.4" y="660.3" width="183" height="24.65" shape-rendering="crispEdges"/><rect fill="#121212" x="756.4" y="660.3" width="890.6" height="24.65" shape-rendering="crispEdges"/><rect fill="#121212" x="1647" y="660.3" width="48.8" height="24.65" shape-rendering="crispEdges"/><rect fill="#121212" x="0" y="684.7" width="48.8" height="24.65" shape-rendering="crispEdges"/><rect fill="#121212" x="48.8" y="684.7" width="439.2" height="24.65" shape-rendering="crispEdges"/><rect fill="#121212" x="488" y="684.7" width="268.4" height="24.65" shape-rendering="crispEdges"/><rect fill="#121212" x="756.4" y="684.7" width="890.6" height="24.65" shape-rendering="crispEdges"/><rect fill="#121212" x="1647" y="684.7" width="48.8" height="24.65" shape-rendering="crispEdges"/><rect fill="#121212" x="0" y="709.1" width="48.8" height="24.65" shape-rendering="crispEdges"/><rect fill="#121212" x="48.8" y="709.1" width="549" height="24.65" shape-rendering="crispEdges"/><rect fill="#121212" x="597.8" y="709.1" width="158.6" height="24.65" shape-rendering="crispEdges"/><rect fill="#121212" x="756.4" y="709.1" width="890.6" height="24.65" shape-rendering="crispEdges"/><rect fill="#121212" x="1647" y="709.1" width="48.8" height="24.65" shape-rendering="crispEdges"/><rect fill="#121212" x="0" y="733.5" width="48.8" height="24.65" shape-rendering="crispEdges"/><rect fill="#121212" x="48.8" y="733.5" width="549" height="24.65" shape-rendering="crispEdges"/><rect fill="#121212" x="597.8" y="733.5" width="158.6" height="24.65" shape-rendering="crispEdges"/><rect fill="#121212" x="756.4" y="733.5" width="890.6" height="24.65" shape-rendering="crispEdges"/><rect fill="#121212" x="1647" y="733.5" width="48.8" height="24.65" shape-rendering="crispEdges"/><rect fill="#121212" x="0" y="757.9" width="48.8" height="24.65" shape-rendering="crispEdges"/><rect fill="#121212" x="48.8" y="757.9" width="707.6" height="24.65" shape-rendering="crispEdges"/><rect fill="#121212" x="756.4" y="757.9" width="890.6" height="24.65" shape-rendering="crispEdges"/><rect fill="#121212" x="1647" y="757.9" width="48.8" height="24.65" shape-rendering="crispEdges"/><rect fill="#121212" x="0" y="782.3" width="48.8" height="24.65" shape-rendering="crispEdges"/><rect fill="#121212" x="48.8" y="782.3" width="439.2" height="24.65" shape-rendering="crispEdges"/><rect fill="#121212" x="488" y="782.3" width="268.4" height="24.65" shape-rendering="crispEdges"/><rect fill="#121212" x="756.4" y="782.3" width="890.6" height="24.65" shape-rendering="crispEdges"/><rect fill="#121212" x="1647" y="782.3" width="48.8" height="24.65" shape-rendering="crispEdges"/><rect fill="#121212" x="0" y="806.7" width="48.8" height="24.65" shape-rendering="crispEdges"/><rect fill="#121212" x="48.8" y="806.7" width="0" height="24.65" shape-rendering="crispEdges"/><rect fill="#121212" x="48.8" y="806.7" width="707.6" height="24.65" shape-rendering="crispEdges"/><rect fill="#121212" x="756.4" y="806.7" width="890.6" height="24.65" shape-rendering="crispEdges"/><rect fill="#121212" x="1647" y="806.7" width="48.8" height="24.65" shape-rendering="crispEdges"/><rect fill="#121212" x="0" y="831.1" width="1695.8" height="24.65" shape-rendering="crispEdges"/><rect fill="#242f38" x="0" y="855.5" width="1549.4" height="24.65" shape-rendering="crispEdges"/><rect fill="#242f38" x="1549.4" y="855.5" width="12.2" height="24.65" shape-rendering="crispEdges"/><rect fill="#242f38" x="1561.6" y="855.5" width="24.4" height="24.65" shape-rendering="crispEdges"/><rect fill="#242f38" x="1586" y="855.5" width="97.6" height="24.65" shape-rendering="crispEdges"/><rect fill="#242f38" x="1683.6" y="855.5" width="12.2" height="24.65" shape-rendering="crispEdges"/>
    <g class="terminal-3793086043-matrix">
    <text class="terminal-3793086043-r2" x="12.2" y="20" textLength="12.2" clip-path="url(#terminal-3793086043-line-0)">⭘</text><text class="terminal-3793086043-r2" x="793" y="20" textLength="85.4" clip-path="url(#terminal-3793086043-line-0)">EtuiApp</text><text class="terminal-3793086043-r1" x="1695.8" y="20" textLength="12.2" clip-path="url(#terminal-3793086043-line-0)">
</text><text class="terminal-3793086043-r3" x="12.2" y="44.4" textLength="61" clip-path="url(#terminal-3793086043-line-1)">Files</text><text class="terminal-3793086043-r3" x="97.6" y="44.4" textLength="85.4" clip-path="url(#terminal-3793086043-line-1)">Console</text><text class="terminal-3793086043-r3" x="207.4" y="44.4" textLength="97.6" clip-path="url(#terminal-3793086043-line-1)">Settings</text><text class="terminal-3793086043-r3" x="329.4" y="44.4" textLength="48.8" clip-path="url(#terminal-3793086043-line-1)">Venv</text><text class="terminal-3793086043-r3" x="402.6" y="44.4" textLength="85.4" clip-path="url(#terminal-3793086043-line-1)">Plugins</text><text class="terminal-3793086043-r3" x="512.4" y="44.4" textLength="48.8" clip-path="url(#terminal-3793086043-line-1)">Help</text><text class="terminal-3793086043-r3" x="585.6" y="44.4" textLength="36.6" clip-path="url(#terminal-3793086043-line-1)">Git</text><text class="terminal-3793086043-r3" x="646.6" y="44.4" textLength="73.2" clip-path="url(#terminal-3793086043-line-1)">GitHub</text><text class="terminal-3793086043-r3" x="744.2" y="44.4" textLength="61" clip-path="url(#terminal-3793086043-line-1)">CMake</text><text class="terminal-3793086043-r3" x="829.6" y="44.4" textLength="73.2" clip-path="url(#terminal-3793086043-line-1)">Serial</text><text class="terminal-3793086043-r3" x="927.2" y="44.4" textLength="97.6" clip-path="url(#terminal-3793086043-line-1)">Workflow</text><text class="terminal-3793086043-r3" x="1049.2" y="44.4" textLength="61" clip-path="url(#terminal-3793086043-line-1)">Probe</text><text class="terminal-3793086043-r3" x="1134.6" y="44.4" textLength="48.8" clip-path="url(#terminal-3793086043-line-1)">LLDB</text><text class="terminal-3793086043-r3" x="1207.8" y="44.4" textLength="61" clip-path="url(#terminal-3793086043-line-1)">Tools</text><text class="terminal-3793086043-r3" x="1537.2" y="44.4" textLength="61" clip-path="url(#terminal-3793086043-line-1)">Theme</text><text class="terminal-3793086043-r2" x="1622.6" y="44.4" textLength="61" clip-path="url(#terminal-3793086043-line-1)">About</text><text class="terminal-3793086043-r1" x="1695.8" y="44.4" textLength="12.2" clip-path="url(#terminal-3793086043-line-1)">
</text><text class="terminal-3793086043-r4" x="0" y="68.8" textLength="1610.4" clip-path="url(#terminal-3793086043-line-2)">━━━━━━━━━━━━━━━━━━━━━━━━━━━━━━━━━━━━━━━━━━━━━━━━━━━━━━━━━━━━━━━━━━━━━━━━━━━━━━━━━━━━━━━━━━━━━━━━━━━━━━━━━━━━━━━━━━━━━━━━━━━━━━━━━━━━</text><text class="terminal-3793086043-r4" x="1610.4" y="68.8" textLength="12.2" clip-path="url(#terminal-3793086043-line-2)">╸</text><text class="terminal-3793086043-r5" x="1622.6" y="68.8" textLength="61" clip-path="url(#terminal-3793086043-line-2)">━━━━━</text><text class="terminal-3793086043-r4" x="1683.6" y="68.8" textLength="12.2" clip-path="url(#terminal-3793086043-line-2)">╺</text><text class="terminal-3793086043-r1" x="1695.8" y="68.8" textLength="12.2" clip-path="url(#terminal-3793086043-line-2)">
</text><text class="terminal-3793086043-r1" x="1695.8" y="93.2" textLength="12.2" clip-path="url(#terminal-3793086043-line-3)">
</text><text class="terminal-3793086043-r6" x="536.8" y="117.6" textLength="48.8" clip-path="url(#terminal-3793086043-line-4)">etui</text><text class="terminal-3793086043-r2" x="585.6" y="117.6" textLength="183" clip-path="url(#terminal-3793086043-line-4)">&#160;—&#160;Embedded&#160;TUI</text><text class="terminal-3793086043-r1" x="1695.8" y="117.6" textLength="12.2" clip-path="url(#terminal-3793086043-line-4)">
</text><text class="terminal-3793086043-r1" x="1695.8" y="142" textLength="12.2" clip-path="url(#terminal-3793086043-line-5)">
</text><text class="terminal-3793086043-r7" x="573.4" y="166.4" textLength="256.2" clip-path="url(#terminal-3793086043-line-6)">“Per&#160;aspera&#160;ad&#160;astra”</text><text class="terminal-3793086043-r1" x="1695.8" y="166.4" textLength="12.2" clip-path="url(#terminal-3793086043-line-6)">
</text><text class="terminal-3793086043-r1" x="1695.8" y="190.8" textLength="12.2" clip-path="url(#terminal-3793086043-line-7)">
</text><text class="terminal-3793086043-r2" x="536.8" y="215.2" textLength="610" clip-path="url(#terminal-3793086043-line-8)">Copyright&#160;(c)&#160;2026&#160;Pawel&#160;Wodnicki&#160;/&#160;32bitmicro&#160;LLC</text><text class="terminal-3793086043-r1" x="1695.8" y="215.2" textLength="12.2" clip-path="url(#terminal-3793086043-line-8)">
</text><text class="terminal-3793086043-r2" x="536.8" y="239.6" textLength="561.2" clip-path="url(#terminal-3793086043-line-9)">A&#160;terminal-based&#160;IDE&#160;for&#160;embedded&#160;development.</text><text class="terminal-3793086043-r1" x="1695.8" y="239.6" textLength="12.2" clip-path="url(#terminal-3793086043-line-9)">
</text><text class="terminal-3793086043-r2" x="536.8" y="264" textLength="561.2" clip-path="url(#terminal-3793086043-line-10)">Files&#160;·&#160;Console&#160;·&#160;Tools&#160;·&#160;Git&#160;·&#160;GitHub&#160;·&#160;CMake</text><text class="terminal-3793086043-r1" x="1695.8" y="264" textLength="12.2" clip-path="url(#terminal-3793086043-line-10)">
</text><text class="terminal-3793086043-r2" x="536.8" y="288.4" textLength="573.4" clip-path="url(#terminal-3793086043-line-11)">Serial&#160;·&#160;Probe&#160;·&#160;LLDB&#160;·&#160;Venv&#160;·&#160;Settings&#160;·&#160;Theme</text><text class="terminal-3793086043-r1" x="1695.8" y="288.4" textLength="12.2" clip-path="url(#terminal-3793086043-line-11)">
</text><text class="terminal-3793086043-r1" x="1695.8" y="312.8" textLength="12.2" clip-path="url(#terminal-3793086043-line-12)">
</text><text class="terminal-3793086043-r8" x="402.6" y="337.2" textLength="256.2" clip-path="url(#terminal-3793086043-line-13)">▔▔▔▔▔▔▔▔▔▔▔▔▔▔▔▔▔▔▔▔▔</text><text class="terminal-3793086043-r9" x="671" y="337.2" textLength="195.2" clip-path="url(#terminal-3793086043-line-13)">▔▔▔▔▔▔▔▔▔▔▔▔▔▔▔▔</text><text class="terminal-3793086043-r9" x="878.4" y="337.2" textLength="195.2" clip-path="url(#terminal-3793086043-line-13)">▔▔▔▔▔▔▔▔▔▔▔▔▔▔▔▔</text><text class="terminal-3793086043-r9" x="1085.8" y="337.2" textLength="195.2" clip-path="url(#terminal-3793086043-line-13)">▔▔▔▔▔▔▔▔▔▔▔▔▔▔▔▔</text><text class="terminal-3793086043-r1" x="1695.8" y="337.2" textLength="12.2" clip-path="url(#terminal-3793086043-line-13)">
</text><text class="terminal-3793086043-r10" x="402.6" y="361.6" textLength="256.2" clip-path="url(#terminal-3793086043-line-14)">&#160;Capture&#160;Screenshots&#160;</text><text class="terminal-3793086043-r6" x="695.4" y="361.6" textLength="134.2" clip-path="url(#terminal-3793086043-line-14)">&#160;Self&#160;Test&#160;</text><text class="terminal-3793086043-r6" x="890.6" y="361.6" textLength="170.8" clip-path="url(#terminal-3793086043-line-14)">&#160;View&#160;License&#160;</text><text class="terminal-3793086043-r6" x="1098" y="361.6" textLength="158.6" clip-path="url(#terminal-3793086043-line-14)">&#160;Open&#160;Source&#160;</text><text class="terminal-3793086043-r1" x="1695.8" y="361.6" textLength="12.2" clip-path="url(#terminal-3793086043-line-14)">
</text><text class="terminal-3793086043-r11" x="402.6" y="386" textLength="256.2" clip-path="url(#terminal-3793086043-line-15)">▁▁▁▁▁▁▁▁▁▁▁▁▁▁▁▁▁▁▁▁▁</text><text class="terminal-3793086043-r12" x="671" y="386" textLength="195.2" clip-path="url(#terminal-3793086043-line-15)">▁▁▁▁▁▁▁▁▁▁▁▁▁▁▁▁</text><text class="terminal-3793086043-r12" x="878.4" y="386" textLength="195.2" clip-path="url(#terminal-3793086043-line-15)">▁▁▁▁▁▁▁▁▁▁▁▁▁▁▁▁</text><text class="terminal-3793086043-r12" x="1085.8" y="386" textLength="195.2" clip-path="url(#terminal-3793086043-line-15)">▁▁▁▁▁▁▁▁▁▁▁▁▁▁▁▁</text><text class="terminal-3793086043-r1" x="1695.8" y="386" textLength="12.2" clip-path="url(#terminal-3793086043-line-15)">
</text><text class="terminal-3793086043-r1" x="1695.8" y="410.4" textLength="12.2" clip-path="url(#terminal-3793086043-line-16)">
</text><text class="terminal-3793086043-r13" x="48.8" y="434.8" textLength="195.2" clip-path="url(#terminal-3793086043-line-17)">Capturing&#160;about…</text><text class="terminal-3793086043-r1" x="1695.8" y="434.8" textLength="12.2" clip-path="url(#terminal-3793086043-line-17)">
</text><text class="terminal-3793086043-r1" x="1695.8" y="459.2" textLength="12.2" clip-path="url(#terminal-3793086043-line-18)">
</text><text class="terminal-3793086043-r1" x="1695.8" y="483.6" textLength="12.2" clip-path="url(#terminal-3793086043-line-19)">
</text><text class="terminal-3793086043-r14" x="48.8" y="508" textLength="1598.2" clip-path="url(#terminal-3793086043-line-20)">───────────────────────────────────────────────────────────────────────────────────────────────────────────────────────────────────</text><text class="terminal-3793086043-r1" x="1695.8" y="508" textLength="12.2" clip-path="url(#terminal-3793086043-line-20)">
</text><text class="terminal-3793086043-r1" x="1695.8" y="532.4" textLength="12.2" clip-path="url(#terminal-3793086043-line-21)">
</text><text class="terminal-3793086043-r6" x="48.8" y="556.8" textLength="268.4" clip-path="url(#terminal-3793086043-line-22)">Open-source&#160;components</text><text class="terminal-3793086043-r1" x="1695.8" y="556.8" textLength="12.2" clip-path="url(#terminal-3793086043-line-22)">
</text><text class="terminal-3793086043-r1" x="1695.8" y="581.2" textLength="12.2" clip-path="url(#terminal-3793086043-line-23)">
</text><text class="terminal-3793086043-r15" x="73.2" y="605.6" textLength="109.8" clip-path="url(#terminal-3793086043-line-24)">Component</text><text class="terminal-3793086043-r15" x="305" y="605.6" textLength="85.4" clip-path="url(#terminal-3793086043-line-24)">Version</text><text class="terminal-3793086043-r15" x="439.2" y="605.6" textLength="85.4" clip-path="url(#terminal-3793086043-line-24)">License</text><text class="terminal-3793086043-r1" x="1695.8" y="605.6" textLength="12.2" clip-path="url(#terminal-3793086043-line-24)">
</text><text class="terminal-3793086043-r2" x="48.8" y="630" textLength="683.2" clip-path="url(#terminal-3793086043-line-25)">&#160;&#160;──────────────────────────────────────────────────────</text><text class="terminal-3793086043-r1" x="1695.8" y="630" textLength="12.2" clip-path="url(#terminal-3793086043-line-25)">
</text><text class="terminal-3793086043-r2" x="48.8" y="654.4" textLength="451.4" clip-path="url(#terminal-3793086043-line-26)">&#160;&#160;Textual&#160;&#160;&#160;&#160;&#160;&#160;&#160;&#160;&#160;&#160;&#160;&#160;&#160;&#160;≥&#160;8.1&#160;&#160;&#160;&#160;&#160;&#160;MIT</text><text class="terminal-3793086043-r1" x="1695.8" y="654.4" textLength="12.2" clip-path="url(#terminal-3793086043-line-26)">
</text><text class="terminal-3793086043-r2" x="48.8" y="678.8" textLength="524.6" clip-path="url(#terminal-3793086043-line-27)">&#160;&#160;pyOCD&#160;&#160;&#160;&#160;&#160;&#160;&#160;&#160;&#160;&#160;&#160;&#160;&#160;&#160;&#160;≥&#160;0.44&#160;&#160;&#160;&#160;&#160;Apache&#160;2.0</text><text class="terminal-3793086043-r1" x="1695.8" y="678.8" textLength="12.2" clip-path="url(#terminal-3793086043-line-27)">
</text><text class="terminal-3793086043-r2" x="48.8" y="703.2" textLength="439.2" clip-path="url(#terminal-3793086043-line-28)">&#160;&#160;pySerial&#160;&#160;&#160;&#160;&#160;&#160;&#160;&#160;&#160;&#160;&#160;&#160;≥&#160;3.5&#160;&#160;&#160;&#160;&#160;&#160;BSD</text><text class="terminal-3793086043-r1" x="1695.8" y="703.2" textLength="12.2" clip-path="url(#terminal-3793086043-line-28)">
</text><text class="terminal-3793086043-r2" x="48.8" y="727.6" textLength="549" clip-path="url(#terminal-3793086043-line-29)">&#160;&#160;Pygments&#160;&#160;&#160;&#160;&#160;&#160;&#160;&#160;&#160;&#160;&#160;&#160;≥&#160;2.17&#160;&#160;&#160;&#160;&#160;BSD&#160;2-Clause</text><text class="terminal-3793086043-r1" x="1695.8" y="727.6" textLength="12.2" clip-path="url(#terminal-3793086043-line-29)">
</text><text class="terminal-3793086043-r2" x="48.8" y="752" textLength="549" clip-path="url(#terminal-3793086043-line-30)">&#160;&#160;xonsh&#160;&#160;&#160;&#160;&#160;&#160;&#160;&#160;&#160;&#160;&#160;&#160;&#160;&#160;&#160;≥&#160;0.18&#160;&#160;&#160;&#160;&#160;BSD&#160;2-Clause</text><text class="terminal-3793086043-r1" x="1695.8" y="752" textLength="12.2" clip-path="url(#terminal-3793086043-line-30)">
</text><text class="terminal-3793086043-r2" x="48.8" y="776.4" textLength="707.6" clip-path="url(#terminal-3793086043-line-31)">&#160;&#160;packaging&#160;&#160;&#160;&#160;&#160;&#160;&#160;&#160;&#160;&#160;&#160;≥&#160;22.0&#160;&#160;&#160;&#160;&#160;Apache&#160;2.0&#160;/&#160;BSD&#160;2-Clause</text><text class="terminal-3793086043-r1" x="1695.8" y="776.4" textLength="12.2" clip-path="url(#terminal-3793086043-line-31)">
</text><text class="terminal-3793086043-r2" x="48.8" y="800.8" textLength="439.2" clip-path="url(#terminal-3793086043-line-32)">&#160;&#160;PyYAML&#160;&#160;&#160;&#160;&#160;&#160;&#160;&#160;&#160;&#160;&#160;&#160;&#160;&#160;≥&#160;6.0&#160;&#160;&#160;&#160;&#160;&#160;MIT</text><text class="terminal-3793086043-r1" x="1695.8" y="800.8" textLength="12.2" clip-path="url(#terminal-3793086043-line-32)">
</text><text class="terminal-3793086043-r1" x="1695.8" y="825.2" textLength="12.2" clip-path="url(#terminal-3793086043-line-33)">
</text><text class="terminal-3793086043-r1" x="1695.8" y="849.6" textLength="12.2" clip-path="url(#terminal-3793086043-line-34)">
</text><text class="terminal-3793086043-r16" x="1549.4" y="874" textLength="12.2" clip-path="url(#terminal-3793086043-line-35)">▏</text><text class="terminal-3793086043-r17" x="1561.6" y="874" textLength="24.4" clip-path="url(#terminal-3793086043-line-35)">^p</text><text class="terminal-3793086043-r2" x="1586" y="874" textLength="97.6" clip-path="url(#terminal-3793086043-line-35)">&#160;palette</text>
    </g>
    </g>
</svg>
