<svg class="rich-terminal" viewBox="0 0 1714 928.4" xmlns="http://www.w3.org/2000/svg">
    <!-- Generated with Rich https://www.textualize.io -->
    <style>

    @font-face {
        font-family: "Fira Code";
        src: local("FiraCode-Regular"),
                url("https://cdnjs.cloudflare.com/ajax/libs/firacode/6.2.0/woff2/FiraCode-Regular.woff2") format("woff2"),
                url("https://cdnjs.cloudflare.com/ajax/libs/firacode/6.2.0/woff/FiraCode-Regular.woff") format("woff");
        font-style: normal;
        font-weight: 400;
    }
    @font-face {
        font-family: "Fira Code";
        src: local("FiraCode-Bold"),
                url("https://cdnjs.cloudflare.com/ajax/libs/firacode/6.2.0/woff2/FiraCode-Bold.woff2") format("woff2"),
                url("https://cdnjs.cloudflare.com/ajax/libs/firacode/6.2.0/woff/FiraCode-Bold.woff") format("woff");
        font-style: bold;
        font-weight: 700;
    }

    .terminal-4139811926-matrix {
        font-family: Fira Code, monospace;
        font-size: 20px;
        line-height: 24.4px;
        font-variant-east-asian: full-width;
    }

    .terminal-4139811926-title {
        font-size: 18px;
        font-weight: bold;
        font-family: arial;
    }

    .terminal-4139811926-r1 { fill: #c5c8c6 }
.terminal-4139811926-r2 { fill: #e0e0e0 }
.terminal-4139811926-r3 { fill: #797979 }
.terminal-4139811926-r4 { fill: #262626 }
.terminal-4139811926-r5 { fill: #0178d4 }
.terminal-4139811926-r6 { fill: #e0e0e0;font-weight: bold }
.terminal-4139811926-r7 { fill: #094370 }
.terminal-4139811926-r8 { fill: #2d2d2d }
.terminal-4139811926-r9 { fill: #63778b;font-weight: bold }
.terminal-4139811926-r10 { fill: #082951 }
.terminal-4139811926-r11 { fill: #0d0d0d }
.terminal-4139811926-r12 { fill: #a0a0a0 }
.terminal-4139811926-r13 { fill: #fea62b }
.terminal-4139811926-r14 { fill: #98e024 }
.terminal-4139811926-r15 { fill: #495259 }
.terminal-4139811926-r16 { fill: #ffa62b;font-weight: bold }
    </style>

    <defs>
    <clipPath id="terminal-4139811926-clip-terminal">
      <rect x="0" y="0" width="1694.8" height="877.4" />
    </clipPath>
    <clipPath id="terminal-4139811926-line-0">
    <rect x="0" y="1.5" width="1695.8" height="24.65"/>
            </clipPath>
<clipPath id="terminal-4139811926-line-1">
    <rect x="0" y="25.9" width="1695.8" height="24.65"/>
            </clipPath>
<clipPath id="terminal-4139811926-line-2">
    <rect x="0" y="50.3" width="1695.8" height="24.65"/>
            </clipPath>
<clipPath id="terminal-4139811926-line-3">
    <rect x="0" y="74.7" width="1695.8" height="24.65"/>
            </clipPath>
<clipPath id="terminal-4139811926-line-4">
    <rect x="0" y="99.1" width="1695.8" height="24.65"/>
            </clipPath>
<clipPath id="terminal-4139811926-line-5">
    <rect x="0" y="123.5" width="1695.8" height="24.65"/>
            </clipPath>
<clipPath id="terminal-4139811926-line-6">
    <rect x="0" y="147.9" width="1695.8" height="24.65"/>
            </clipPath>
<clipPath id="terminal-4139811926-line-7">
    <rect x="0" y="172.3" width="1695.8" height="24.65"/>
            </clipPath>
<clipPath id="terminal-4139811926-line-8">
    <rect x="0" y="196.7" width="1695.8" height="24.65"/>
            </clipPath>
<clipPath id="terminal-4139811926-line-9">
    <rect x="0" y="221.1" width="1695.8" height="24.65"/>
            </clipPath>
<clipPath id="terminal-4139811926-line-10">
    <rect x="0" y="245.5" width="1695.8" height="24.65"/>
            </clipPath>
<clipPath id="terminal-4139811926-line-11">
    <rect x="0" y="269.9" width="1695.8" height="24.65"/>
            </clipPath>
<clipPath id="terminal-4139811926-line-12">
    <rect x="0" y="294.3" width="1695.8" height="24.65"/>
            </clipPath>
<clipPath id="terminal-4139811926-line-13">
    <rect x="0" y="318.7" width="1695.8" height="24.65"/>
            </clipPath>
<clipPath id="terminal-4139811926-line-14">
    <rect x="0" y="343.1" width="1695.8" height="24.65"/>
            </clipPath>
<clipPath id="terminal-4139811926-line-15">
    <rect x="0" y="367.5" width="1695.8" height="24.65"/>
            </clipPath>
<clipPath id="terminal-4139811926-line-16">
    <rect x="0" y="391.9" width="1695.8" height="24.65"/>
            </clipPath>
<clipPath id="terminal-4139811926-line-17">
    <rect x="0" y="416.3" width="1695.8" height="24.65"/>
            </clipPath>
<clipPath id="terminal-4139811926-line-18">
    <rect x="0" y="440.7" width="1695.8" height="24.65"/>
            </clipPath>
<clipPath id="terminal-4139811926-line-19">
    <rect x="0" y="465.1" width="1695.8" height="24.65"/>
            </clipPath>
<clipPath id="terminal-4139811926-line-20">
    <rect x="0" y="489.5" width="1695.8" height="24.65"/>
            </clipPath>
<clipPath id="terminal-4139811926-line-21">
    <rect x="0" y="513.9" width="1695.8" height="24.65"/>
            </clipPath>
<clipPath id="terminal-4139811926-line-22">
    <rect x="0" y="538.3" width="1695.8" height="24.65"/>
            </clipPath>
<clipPath id="terminal-4139811926-line-23">
    <rect x="0" y="562.7" width="1695.8" height="24.65"/>
            </clipPath>
<clipPath id="terminal-4139811926-line-24">
    <rect x="0" y="587.1" width="1695.8" height="24.65"/>
            </clipPath>
<clipPath id="terminal-4139811926-line-25">
    <rect x="0" y="611.5" width="1695.8" height="24.65"/>
            </clipPath>
<clipPath id="terminal-4139811926-line-26">
    <rect x="0" y="635.9" width="1695.8" height="24.65"/>
            </clipPath>
<clipPath id="terminal-4139811926-line-27">
    <rect x="0" y="660.3" width="1695.8" height="24.65"/>
            </clipPath>
<clipPath id="terminal-4139811926-line-28">
    <rect x="0" y="684.7" width="1695.8" height="24.65"/>
            </clipPath>
<clipPath id="terminal-4139811926-line-29">
    <rect x="0" y="709.1" width="1695.8" height="24.65"/>
            </clipPath>
<clipPath id="terminal-4139811926-line-30">
    <rect x="0" y="733.5" width="1695.8" height="24.65"/>
            </clipPath>
<clipPath id="terminal-4139811926-line-31">
    <rect x="0" y="757.9" width="1695.8" height="24.65"/>
            </clipPath>
<clipPath id="terminal-4139811926-line-32">
    <rect x="0" y="782.3" width="1695.8" height="24.65"/>
            </clipPath>
<clipPath id="terminal-4139811926-line-33">
    <rect x="0" y="806.7" width="1695.8" height="24.65"/>
            </clipPath>
<clipPath id="terminal-4139811926-line-34">
    <rect x="0" y="831.1" width="1695.8" height="24.65"/>
            </clipPath>
    </defs>

    <rect fill="#292929" stroke="rgba(255,255,255,0.35)" stroke-width="1" x="1" y="1" width="1712" height="926.4" rx="8"/><text class="terminal-4139811926-title" fill="#c5c8c6" text-anchor="middle" x="856" y="27">etui&#160;—&#160;about</text>
            <g transform="translate(26,22)">
            <circle cx="0" cy="0" r="7" fill="#ff5f57"/>
            <circle cx="22" cy="0" r="7" fill="#febc2e"/>
            <circle cx="44" cy="0" r="7" fill="#28c840"/>
            </g>
        
    <g transform="translate(9, 41)" clip-path="url(#terminal-4139811926-clip-terminal)">
    <rect fill="#242f38" x="0" y="1.5" width="12.2" height="24.65" shape-rendering="crispEdges"/><rect fill="#242f38" x="12.2" y="1.5" width="12.2" height="24.65" shape-rendering="crispEdges"/><rect fill="#242f38" x="24.4" y="1.5" width="61" height="24.65" shape-rendering="crispEdges"/><rect fill="#242f38" x="85.4" y="1.5" width="12.2" height="24.65" shape-rendering="crispEdges"/><rect fill="#242f38" x="97.6" y="1.5" width="695.4" height="24.65" shape-rendering="crispEdges"/><rect fill="#242f38" x="793" y="1.5" width="85.4" height="24.65" shape-rendering="crispEdges"/><rect fill="#242f38" x="878.4" y="1.5" width="695.4" height="24.65" shape-rendering="crispEdges"/><rect fill="#242f38" x="1573.8" y="1.5" width="12.2" height="24.65" shape-rendering="crispEdges"/><rect fill="#242f38" x="1586" y="1.5" width="0" height="24.65" shape-rendering="crispEdges"/><rect fill="#242f38" x="1586" y="1.5" width="97.6" height="24.65" shape-rendering="crispEdges"/><rect fill="#242f38" x="1683.6" y="1.5" width="12.2" height="24.65" shape-rendering="crispEdges"/><rect fill="#121212" x="0" y="25.9" width="12.2" height="24.65" shape-rendering="crispEdges"/><rect fill="#121212" x="12.2" y="25.9" width="61" height="24.65" shape-rendering="crispEdges"/><rect fill="#121212" x="73.2" y="25.9" width="12.2" height="24.65" shape-rendering="crispEdges"/><rect fill="#121212" x="85.4" y="25.9" width="12.2" height="24.65" shape-rendering="crispEdges"/><rect fill="#121212" x="97.6" y="25.9" width="85.4" height="24.65" shape-rendering="crispEdges"/><rect fill="#121212" x="183" y="25.9" width="12.2" height="24.65" shape-rendering="crispEdges"/><rect fill="#121212" x="195.2" y="25.9" width="12.2" height="24.65" shape-rendering="crispEdges"/><rect fill="#121212" x="207.4" y="25.9" width="61" height="24.65" shape-rendering="crispEdges"/><rect fill="#121212" x="268.4" y="25.9" width="12.2" height="24.65" shape-rendering="crispEdges"/><rect fill="#121212" x="280.6" y="25.9" width="12.2" height="24.65" shape-rendering="crispEdges"/><rect fill="#121212" x="292.8" y="25.9" width="36.6" height="24.65" shape-rendering="crispEdges"/><rect fill="#121212" x="329.4" y="25.9" width="12.2" height="24.65" shape-rendering="crispEdges"/><rect fill="#121212" x="341.6" y="25.9" width="12.2" height="24.65" shape-rendering="crispEdges"/><rect fill="#121212" x="353.8" y="25.9" width="73.2" height="24.65" shape-rendering="crispEdges"/><rect fill="#121212" x="427" y="25.9" width="12.2" height="24.65" shape-rendering="crispEdges"/><rect fill="#121212" x="439.2" y="25.9" width="12.2" height="24.65" shape-rendering="crispEdges"/><rect fill="#121212" x="451.4" y="25.9" width="61" height="24.65" shape-rendering="crispEdges"/><rect fill="#121212" x="512.4" y="25.9" width="12.2" height="24.65" shape-rendering="crispEdges"/><rect fill="#121212" x="524.6" y="25.9" width="12.2" height="24.65" shape-rendering="crispEdges"/><rect fill="#121212" x="536.8" y="25.9" width="73.2" height="24.65" shape-rendering="crispEdges"/><rect fill="#121212" x="610" y="25.9" width="12.2" height="24.65" shape-rendering="crispEdges"/><rect fill="#121212" x="622.2" y="25.9" width="12.2" height="24.65" shape-rendering="crispEdges"/><rect fill="#121212" x="634.4" y="25.9" width="61" height="24.65" shape-rendering="crispEdges"/><rect fill="#121212" x="695.4" y="25.9" width="12.2" height="24.65" shape-rendering="crispEdges"/><rect fill="#121212" x="707.6" y="25.9" width="12.2" height="24.65" shape-rendering="crispEdges"/><rect fill="#121212" x="719.8" y="25.9" width="48.8" height="24.65" shape-rendering="crispEdges"/><rect fill="#121212" x="768.6" y="25.9" width="12.2" height="24.65" shape-rendering="crispEdges"/><rect fill="#121212" x="780.8" y="25.9" width="12.2" height="24.65" shape-rendering="crispEdges"/><rect fill="#121212" x="793" y="25.9" width="48.8" height="24.65" shape-rendering="crispEdges"/><rect fill="#121212" x="841.8" y="25.9" width="12.2" height="24.65" shape-rendering="crispEdges"/><rect fill="#121212" x="854" y="25.9" width="12.2" height="24.65" shape-rendering="crispEdges"/><rect fill="#121212" x="866.2" y="25.9" width="97.6" height="24.65" shape-rendering="crispEdges"/><rect fill="#121212" x="963.8" y="25.9" width="12.2" height="24.65" shape-rendering="crispEdges"/><rect fill="#121212" x="976" y="25.9" width="12.2" height="24.65" shape-rendering="crispEdges"/><rect fill="#121212" x="988.2" y="25.9" width="48.8" height="24.65" shape-rendering="crispEdges"/><rect fill="#121212" x="1037" y="25.9" width="12.2" height="24.65" shape-rendering="crispEdges"/><rect fill="#121212" x="1049.2" y="25.9" width="475.8" height="24.65" shape-rendering="crispEdges"/><rect fill="#121212" x="1525" y="25.9" width="12.2" height="24.65" shape-rendering="crispEdges"/><rect fill="#121212" x="1537.2" y="25.9" width="61" height="24.65" shape-rendering="crispEdges"/><rect fill="#121212" x="1598.2" y="25.9" width="12.2" height="24.65" shape-rendering="crispEdges"/><rect fill="#121212" x="1610.4" y="25.9" width="12.2" height="24.65" shape-rendering="crispEdges"/><rect fill="#121212" x="1622.6" y="25.9" width="61" height="24.65" shape-rendering="crispEdges"/><rect fill="#121212" x="1683.6" y="25.9" width="12.2" height="24.65" shape-rendering="crispEdges"/><rect fill="#121212" x="0" y="50.3" width="1537.2" height="24.65" shape-rendering="crispEdges"/><rect fill="#121212" x="1537.2" y="50.3" width="12.2" height="24.65" shape-rendering="crispEdges"/><rect fill="#121212" x="1549.4" y="50.3" width="61" height="24.65" shape-rendering="crispEdges"/><rect fill="#121212" x="1610.4" y="50.3" width="12.2" height="24.65" shape-rendering="crispEdges"/><rect fill="#121212" x="1622.6" y="50.3" width="73.2" height="24.65" shape-rendering="crispEdges"/><rect fill="#121212" x="0" y="74.7" width="1695.8" height="24.65" shape-rendering="crispEdges"/><rect fill="#121212" x="0" y="99.1" width="24.4" height="24.65" shape-rendering="crispEdges"/><rect fill="#121212" x="24.4" y="99.1" width="512.4" height="24.65" shape-rendering="crispEdges"/><rect fill="#121212" x="536.8" y="99.1" width="48.8" height="24.65" shape-rendering="crispEdges"/><rect fill="#121212" x="585.6" y="99.1" width="183" height="24.65" shape-rendering="crispEdges"/><rect fill="#121212" x="768.6" y="99.1" width="378.2" height="24.65" shape-rendering="crispEdges"/><rect fill="#121212" x="1146.8" y="99.1" width="524.6" height="24.65" shape-rendering="crispEdges"/><rect fill="#121212" x="1671.4" y="99.1" width="24.4" height="24.65" shape-rendering="crispEdges"/><rect fill="#121212" x="0" y="123.5" width="24.4" height="24.65" shape-rendering="crispEdges"/><rect fill="#121212" x="24.4" y="123.5" width="512.4" height="24.65" shape-rendering="crispEdges"/><rect fill="#121212" x="536.8" y="123.5" width="610" height="24.65" shape-rendering="crispEdges"/><rect fill="#121212" x="1146.8" y="123.5" width="524.6" height="24.65" shape-rendering="crispEdges"/><rect fill="#121212" x="1671.4" y="123.5" width="24.4" height="24.65" shape-rendering="crispEdges"/><rect fill="#121212" x="0" y="147.9" width="24.4" height="24.65" shape-rendering="crispEdges"/><rect fill="#121212" x="24.4" y="147.9" width="512.4" height="24.65" shape-rendering="crispEdges"/><rect fill="#121212" x="536.8" y="147.9" width="561.2" height="24.65" shape-rendering="crispEdges"/><rect fill="#121212" x="1098" y="147.9" width="12.2" height="24.65" shape-rendering="crispEdges"/><rect fill="#121212" x="1110.2" y="147.9" width="36.6" height="24.65" shape-rendering="crispEdges"/><rect fill="#121212" x="1146.8" y="147.9" width="524.6" height="24.65" shape-rendering="crispEdges"/><rect fill="#121212" x="1671.4" y="147.9" width="24.4" height="24.65" shape-rendering="crispEdges"/><rect fill="#121212" x="0" y="172.3" width="24.4" height="24.65" shape-rendering="crispEdges"/><rect fill="#121212" x="24.4" y="172.3" width="512.4" height="24.65" shape-rendering="crispEdges"/><rect fill="#121212" x="536.8" y="172.3" width="561.2" height="24.65" shape-rendering="crispEdges"/><rect fill="#121212" x="1098" y="172.3" width="12.2" height="24.65" shape-rendering="crispEdges"/><rect fill="#121212" x="1110.2" y="172.3" width="36.6" height="24.65" shape-rendering="crispEdges"/><rect fill="#121212" x="1146.8" y="172.3" width="524.6" height="24.65" shape-rendering="crispEdges"/><rect fill="#121212" x="1671.4" y="172.3" width="24.4" height="24.65" shape-rendering="crispEdges"/><rect fill="#121212" x="0" y="196.7" width="24.4" height="24.65" shape-rendering="crispEdges"/><rect fill="#121212" x="24.4" y="196.7" width="512.4" height="24.65" shape-rendering="crispEdges"/><rect fill="#121212" x="536.8" y="196.7" width="573.4" height="24.65" shape-rendering="crispEdges"/><rect fill="#121212" x="1110.2" y="196.7" width="36.6" height="24.65" shape-rendering="crispEdges"/><rect fill="#121212" x="1146.8" y="196.7" width="524.6" height="24.65" shape-rendering="crispEdges"/><rect fill="#121212" x="1671.4" y="196.7" width="24.4" height="24.65" shape-rendering="crispEdges"/><rect fill="#121212" x="0" y="221.1" width="24.4" height="24.65" shape-rendering="crispEdges"/><rect fill="#121212" x="24.4" y="221.1" width="24.4" height="24.65" shape-rendering="crispEdges"/><rect fill="#121212" x="48.8" y="221.1" width="1598.2" height="24.65" shape-rendering="crispEdges"/><rect fill="#121212" x="1647" y="221.1" width="24.4" height="24.65" shape-rendering="crispEdges"/><rect fill="#121212" x="1671.4" y="221.1" width="24.4" height="24.65" shape-rendering="crispEdges"/><rect fill="#121212" x="0" y="245.5" width="24.4" height="24.65" shape-rendering="crispEdges"/><rect fill="#121212" x="24.4" y="245.5" width="24.4" height="24.65" shape-rendering="crispEdges"/><rect fill="#121212" x="48.8" y="245.5" width="561.2" height="24.65" shape-rendering="crispEdges"/><rect fill="#08315c" x="610" y="245.5" width="256.2" height="24.65" shape-rendering="crispEdges"/><rect fill="#121212" x="866.2" y="245.5" width="12.2" height="24.65" shape-rendering="crispEdges"/><rect fill="#1e1e1e" x="878.4" y="245.5" width="195.2" height="24.65" shape-rendering="crispEdges"/><rect fill="#121212" x="1073.6" y="245.5" width="573.4" height="24.65" shape-rendering="crispEdges"/><rect fill="#121212" x="1647" y="245.5" width="24.4" height="24.65" shape-rendering="crispEdges"/><rect fill="#121212" x="1671.4" y="245.5" width="24.4" height="24.65" shape-rendering="crispEdges"/><rect fill="#121212" x="0" y="269.9" width="24.4" height="24.65" shape-rendering="crispEdges"/><rect fill="#121212" x="24.4" y="269.9" width="24.4" height="24.65" shape-rendering="crispEdges"/><rect fill="#121212" x="48.8" y="269.9" width="561.2" height="24.65" shape-rendering="crispEdges"/><rect fill="#08315c" x="610" y="269.9" width="256.2" height="24.65" shape-rendering="crispEdges"/><rect fill="#121212" x="866.2" y="269.9" width="12.2" height="24.65" shape-rendering="crispEdges"/><rect fill="#1e1e1e" x="878.4" y="269.9" width="24.4" height="24.65" shape-rendering="crispEdges"/><rect fill="#1e1e1e" x="902.8" y="269.9" width="134.2" height="24.65" shape-rendering="crispEdges"/><rect fill="#1e1e1e" x="1037" y="269.9" width="36.6" height="24.65" shape-rendering="crispEdges"/><rect fill="#121212" x="1073.6" y="269.9" width="573.4" height="24.65" shape-rendering="crispEdges"/><rect fill="#121212" x="1647" y="269.9" width="24.4" height="24.65" shape-rendering="crispEdges"/><rect fill="#121212" x="1671.4" y="269.9" width="24.4" height="24.65" shape-rendering="crispEdges"/><rect fill="#121212" x="0" y="294.3" width="24.4" height="24.65" shape-rendering="crispEdges"/><rect fill="#121212" x="24.4" y="294.3" width="24.4" height="24.65" shape-rendering="crispEdges"/><rect fill="#121212" x="48.8" y="294.3" width="561.2" height="24.65" shape-rendering="crispEdges"/><rect fill="#08315c" x="610" y="294.3" width="256.2" height="24.65" shape-rendering="crispEdges"/><rect fill="#121212" x="866.2" y="294.3" width="12.2" height="24.65" shape-rendering="crispEdges"/><rect fill="#1e1e1e" x="878.4" y="294.3" width="195.2" height="24.65" shape-rendering="crispEdges"/><rect fill="#121212" x="1073.6" y="294.3" width="573.4" height="24.65" shape-rendering="crispEdges"/><rect fill="#121212" x="1647" y="294.3" width="24.4" height="24.65" shape-rendering="crispEdges"/><rect fill="#121212" x="1671.4" y="294.3" width="24.4" height="24.65" shape-rendering="crispEdges"/><rect fill="#121212" x="0" y="318.7" width="24.4" height="24.65" shape-rendering="crispEdges"/><rect fill="#121212" x="24.4" y="318.7" width="24.4" height="24.65" shape-rendering="crispEdges"/><rect fill="#121212" x="48.8" y="318.7" width="1598.2" height="24.65" shape-rendering="crispEdges"/><rect fill="#121212" x="1647" y="318.7" width="24.4" height="24.65" shape-rendering="crispEdges"/><rect fill="#121212" x="1671.4" y="318.7" width="24.4" height="24.65" shape-rendering="crispEdges"/><rect fill="#121212" x="0" y="343.1" width="24.4" height="24.65" shape-rendering="crispEdges"/><rect fill="#121212" x="24.4" y="343.1" width="24.4" height="24.65" shape-rendering="crispEdges"/><rect fill="#121212" x="48.8" y="343.1" width="195.2" height="24.65" shape-rendering="crispEdges"/><rect fill="#121212" x="244" y="343.1" width="24.4" height="24.65" shape-rendering="crispEdges"/><rect fill="#121212" x="268.4" y="343.1" width="1403" height="24.65" shape-rendering="crispEdges"/><rect fill="#121212" x="1671.4" y="343.1" width="24.4" height="24.65" shape-rendering="crispEdges"/><rect fill="#121212" x="0" y="367.5" width="1695.8" height="24.65" shape-rendering="crispEdges"/><rect fill="#121212" x="0" y="391.9" width="1695.8" height="24.65" shape-rendering="crispEdges"/><rect fill="#1e1e1e" x="0" y="416.3" width="1695.8" height="24.65" shape-rendering="crispEdges"/><rect fill="#1e1e1e" x="0" y="440.7" width="48.8" height="24.65" shape-rendering="crispEdges"/><rect fill="#1e1e1e" x="48.8" y="440.7" width="280.6" height="24.65" shape-rendering="crispEdges"/><rect fill="#1e1e1e" x="329.4" y="440.7" width="1342" height="24.65" shape-rendering="crispEdges"/><rect fill="#000000" x="1671.4" y="440.7" width="24.4" height="24.65" shape-rendering="crispEdges"/><rect fill="#1e1e1e" x="0" y="465.1" width="48.8" height="24.65" shape-rendering="crispEdges"/><rect fill="#1e1e1e" x="48.8" y="465.1" width="439.2" height="24.65" shape-rendering="crispEdges"/><rect fill="#1e1e1e" x="488" y="465.1" width="1183.4" height="24.65" shape-rendering="crispEdges"/><rect fill="#000000" x="1671.4" y="465.1" width="24.4" height="24.65" shape-rendering="crispEdges"/><rect fill="#1e1e1e" x="0" y="489.5" width="48.8" height="24.65" shape-rendering="crispEdges"/><rect fill="#1e1e1e" x="48.8" y="489.5" width="512.4" height="24.65" shape-rendering="crispEdges"/><rect fill="#1e1e1e" x="561.2" y="489.5" width="1110.2" height="24.65" shape-rendering="crispEdges"/><rect fill="#000000" x="1671.4" y="489.5" width="24.4" height="24.65" shape-rendering="crispEdges"/><rect fill="#1e1e1e" x="0" y="513.9" width="48.8" height="24.65" shape-rendering="crispEdges"/><rect fill="#1e1e1e" x="48.8" y="513.9" width="439.2" height="24.65" shape-rendering="crispEdges"/><rect fill="#1e1e1e" x="488" y="513.9" width="1183.4" height="24.65" shape-rendering="crispEdges"/><rect fill="#000000" x="1671.4" y="513.9" width="24.4" height="24.65" shape-rendering="crispEdges"/><rect fill="#1e1e1e" x="0" y="538.3" width="48.8" height="24.65" shape-rendering="crispEdges"/><rect fill="#1e1e1e" x="48.8" y="538.3" width="500.2" height="24.65" shape-rendering="crispEdges"/><rect fill="#1e1e1e" x="549" y="538.3" width="1122.4" height="24.65" shape-rendering="crispEdges"/><rect fill="#000000" x="1671.4" y="538.3" width="24.4" height="24.65" shape-rendering="crispEdges"/><rect fill="#1e1e1e" x="0" y="562.7" width="48.8" height="24.65" shape-rendering="crispEdges"/><rect fill="#1e1e1e" x="48.8" y="562.7" width="427" height="24.65" shape-rendering="crispEdges"/><rect fill="#1e1e1e" x="475.8" y="562.7" width="1195.6" height="24.65" shape-rendering="crispEdges"/><rect fill="#000000" x="1671.4" y="562.7" width="24.4" height="24.65" shape-rendering="crispEdges"/><rect fill="#1e1e1e" x="0" y="587.1" width="48.8" height="24.65" shape-rendering="crispEdges"/><rect fill="#1e1e1e" x="48.8" y="587.1" width="585.6" height="24.65" shape-rendering="crispEdges"/><rect fill="#1e1e1e" x="634.4" y="587.1" width="1037" height="24.65" shape-rendering="crispEdges"/><rect fill="#000000" x="1671.4" y="587.1" width="24.4" height="24.65" shape-rendering="crispEdges"/><rect fill="#1e1e1e" x="0" y="611.5" width="48.8" height="24.65" shape-rendering="crispEdges"/><rect fill="#1e1e1e" x="48.8" y="611.5" width="378.2" height="24.65" shape-rendering="crispEdges"/><rect fill="#1e1e1e" x="427" y="611.5" width="1244.4" height="24.65" shape-rendering="crispEdges"/><rect fill="#000000" x="1671.4" y="611.5" width="24.4" height="24.65" shape-rendering="crispEdges"/><rect fill="#1e1e1e" x="0" y="635.9" width="48.8" height="24.65" shape-rendering="crispEdges"/><rect fill="#1e1e1e" x="48.8" y="635.9" width="268.4" height="24.65" shape-rendering="crispEdges"/><rect fill="#1e1e1e" x="317.2" y="635.9" width="1354.2" height="24.65" shape-rendering="crispEdges"/><rect fill="#000000" x="1671.4" y="635.9" width="24.4" height="24.65" shape-rendering="crispEdges"/><rect fill="#1e1e1e" x="0" y="660.3" width="48.8" height="24.65" shape-rendering="crispEdges"/><rect fill="#1e1e1e" x="48.8" y="660.3" width="305" height="24.65" shape-rendering="crispEdges"/><rect fill="#1e1e1e" x="353.8" y="660.3" width="1317.6" height="24.65" shape-rendering="crispEdges"/><rect fill="#000000" x="1671.4" y="660.3" width="24.4" height="24.65" shape-rendering="crispEdges"/><rect fill="#1e1e1e" x="0" y="684.7" width="48.8" height="24.65" shape-rendering="crispEdges"/><rect fill="#1e1e1e" x="48.8" y="684.7" width="414.8" height="24.65" shape-rendering="crispEdges"/><rect fill="#1e1e1e" x="463.6" y="684.7" width="1207.8" height="24.65" shape-rendering="crispEdges"/><rect fill="#000000" x="1671.4" y="684.7" width="24.4" height="24.65" shape-rendering="crispEdges"/><rect fill="#1e1e1e" x="0" y="709.1" width="48.8" height="24.65" shape-rendering="crispEdges"/><rect fill="#1e1e1e" x="48.8" y="709.1" width="439.2" height="24.65" shape-rendering="crispEdges"/><rect fill="#1e1e1e" x="488" y="709.1" width="1183.4" height="24.65" shape-rendering="crispEdges"/><rect fill="#000000" x="1671.4" y="709.1" width="24.4" height="24.65" shape-rendering="crispEdges"/><rect fill="#1e1e1e" x="0" y="733.5" width="48.8" height="24.65" shape-rendering="crispEdges"/><rect fill="#1e1e1e" x="48.8" y="733.5" width="610" height="24.65" shape-rendering="crispEdges"/><rect fill="#1e1e1e" x="658.8" y="733.5" width="1012.6" height="24.65" shape-rendering="crispEdges"/><rect fill="#000000" x="1671.4" y="733.5" width="24.4" height="24.65" shape-rendering="crispEdges"/><rect fill="#1e1e1e" x="0" y="757.9" width="48.8" height="24.65" shape-rendering="crispEdges"/><rect fill="#1e1e1e" x="48.8" y="757.9" width="561.2" height="24.65" shape-rendering="crispEdges"/><rect fill="#1e1e1e" x="610" y="757.9" width="1061.4" height="24.65" shape-rendering="crispEdges"/><rect fill="#000000" x="1671.4" y="757.9" width="24.4" height="24.65" shape-rendering="crispEdges"/><rect fill="#1e1e1e" x="0" y="782.3" width="1671.4" height="24.65" shape-rendering="crispEdges"/><rect fill="#000000" x="1671.4" y="782.3" width="24.4" height="24.65" shape-rendering="crispEdges"/><rect fill="#1e1e1e" x="0" y="806.7" width="146.4" height="24.65" shape-rendering="crispEdges"/><rect fill="#1e1e1e" x="146.4" y="806.7" width="1525" height="24.65" shape-rendering="crispEdges"/><rect fill="#000000" x="1671.4" y="806.7" width="24.4" height="24.65" shape-rendering="crispEdges"/><rect fill="#1e1e1e" x="0" y="831.1" width="1671.4" height="24.65" shape-rendering="crispEdges"/><rect fill="#000000" x="1671.4" y="831.1" width="24.4" height="24.65" shape-rendering="crispEdges"/><rect fill="#242f38" x="0" y="855.5" width="1549.4" height="24.65" shape-rendering="crispEdges"/><rect fill="#242f38" x="1549.4" y="855.5" width="12.2" height="24.65" shape-rendering="crispEdges"/><rect fill="#242f38" x="1561.6" y="855.5" width="24.4" height="24.65" shape-rendering="crispEdges"/><rect fill="#242f38" x="1586" y="855.5" width="97.6" height="24.65" shape-rendering="crispEdges"/><rect fill="#242f38" x="1683.6" y="855.5" width="12.2" height="24.65" shape-rendering="crispEdges"/>
    <g class="terminal-4139811926-matrix">
    <text class="terminal-4139811926-r2" x="12.2" y="20" textLength="12.2" clip-path="url(#terminal-4139811926-line-0)">⭘</text><text class="terminal-4139811926-r2" x="793" y="20" textLength="85.4" clip-path="url(#terminal-4139811926-line-0)">EtuiApp</text><text class="terminal-4139811926-r1" x="1695.8" y="20" textLength="12.2" clip-path="url(#terminal-4139811926-line-0)">
</text><text class="terminal-4139811926-r3" x="12.2" y="44.4" textLength="61" clip-path="url(#terminal-4139811926-line-1)">Files</text><text class="terminal-4139811926-r3" x="97.6" y="44.4" textLength="85.4" clip-path="url(#terminal-4139811926-line-1)">Console</text><text class="terminal-4139811926-r3" x="207.4" y="44.4" textLength="61" clip-path="url(#terminal-4139811926-line-1)">Tools</text><text class="terminal-4139811926-r3" x="292.8" y="44.4" textLength="36.6" clip-path="url(#terminal-4139811926-line-1)">Git</text><text class="terminal-4139811926-r3" x="353.8" y="44.4" textLength="73.2" clip-path="url(#terminal-4139811926-line-1)">GitHub</text><text class="terminal-4139811926-r3" x="451.4" y="44.4" textLength="61" clip-path="url(#terminal-4139811926-line-1)">CMake</text><text class="terminal-4139811926-r3" x="536.8" y="44.4" textLength="73.2" clip-path="url(#terminal-4139811926-line-1)">Serial</text><text class="terminal-4139811926-r3" x="634.4" y="44.4" textLength="61" clip-path="url(#terminal-4139811926-line-1)">Probe</text><text class="terminal-4139811926-r3" x="719.8" y="44.4" textLength="48.8" clip-path="url(#terminal-4139811926-line-1)">LLDB</text><text class="terminal-4139811926-r3" x="793" y="44.4" textLength="48.8" clip-path="url(#terminal-4139811926-line-1)">Venv</text><text class="terminal-4139811926-r3" x="866.2" y="44.4" textLength="97.6" clip-path="url(#terminal-4139811926-line-1)">Settings</text><text class="terminal-4139811926-r3" x="988.2" y="44.4" textLength="48.8" clip-path="url(#terminal-4139811926-line-1)">Help</text><text class="terminal-4139811926-r3" x="1537.2" y="44.4" textLength="61" clip-path="url(#terminal-4139811926-line-1)">Theme</text><text class="terminal-4139811926-r2" x="1622.6" y="44.4" textLength="61" clip-path="url(#terminal-4139811926-line-1)">About</text><text class="terminal-4139811926-r1" x="1695.8" y="44.4" textLength="12.2" clip-path="url(#terminal-4139811926-line-1)">
</text><text class="terminal-4139811926-r4" x="0" y="68.8" textLength="1537.2" clip-path="url(#terminal-4139811926-line-2)">━━━━━━━━━━━━━━━━━━━━━━━━━━━━━━━━━━━━━━━━━━━━━━━━━━━━━━━━━━━━━━━━━━━━━━━━━━━━━━━━━━━━━━━━━━━━━━━━━━━━━━━━━━━━━━━━━━━━━━━━━━━━━━</text><text class="terminal-4139811926-r4" x="1537.2" y="68.8" textLength="12.2" clip-path="url(#terminal-4139811926-line-2)">╸</text><text class="terminal-4139811926-r5" x="1549.4" y="68.8" textLength="61" clip-path="url(#terminal-4139811926-line-2)">━━━━━</text><text class="terminal-4139811926-r4" x="1610.4" y="68.8" textLength="12.2" clip-path="url(#terminal-4139811926-line-2)">╺</text><text class="terminal-4139811926-r4" x="1622.6" y="68.8" textLength="73.2" clip-path="url(#terminal-4139811926-line-2)">━━━━━━</text><text class="terminal-4139811926-r1" x="1695.8" y="68.8" textLength="12.2" clip-path="url(#terminal-4139811926-line-2)">
</text><text class="terminal-4139811926-r1" x="1695.8" y="93.2" textLength="12.2" clip-path="url(#terminal-4139811926-line-3)">
</text><text class="terminal-4139811926-r6" x="536.8" y="117.6" textLength="48.8" clip-path="url(#terminal-4139811926-line-4)">etui</text><text class="terminal-4139811926-r2" x="585.6" y="117.6" textLength="183" clip-path="url(#terminal-4139811926-line-4)">&#160;—&#160;Embedded&#160;TUI</text><text class="terminal-4139811926-r1" x="1695.8" y="117.6" textLength="12.2" clip-path="url(#terminal-4139811926-line-4)">
</text><text class="terminal-4139811926-r2" x="536.8" y="142" textLength="610" clip-path="url(#terminal-4139811926-line-5)">Copyright&#160;(c)&#160;2026&#160;Pawel&#160;Wodnicki&#160;/&#160;32bitmicro&#160;LLC</text><text class="terminal-4139811926-r1" x="1695.8" y="142" textLength="12.2" clip-path="url(#terminal-4139811926-line-5)">
</text><text class="terminal-4139811926-r2" x="536.8" y="166.4" textLength="561.2" clip-path="url(#terminal-4139811926-line-6)">A&#160;terminal-based&#160;IDE&#160;for&#160;embedded&#160;development.</text><text class="terminal-4139811926-r1" x="1695.8" y="166.4" textLength="12.2" clip-path="url(#terminal-4139811926-line-6)">
</text><text class="terminal-4139811926-r2" x="536.8" y="190.8" textLength="561.2" clip-path="url(#terminal-4139811926-line-7)">Files&#160;·&#160;Console&#160;·&#160;Tools&#160;·&#160;Git&#160;·&#160;GitHub&#160;·&#160;CMake</text><text class="terminal-4139811926-r1" x="1695.8" y="190.8" textLength="12.2" clip-path="url(#terminal-4139811926-line-7)">
</text><text class="terminal-4139811926-r2" x="536.8" y="215.2" textLength="573.4" clip-path="url(#terminal-4139811926-line-8)">Serial&#160;·&#160;Probe&#160;·&#160;LLDB&#160;·&#160;Venv&#160;·&#160;Settings&#160;·&#160;Theme</text><text class="terminal-4139811926-r1" x="1695.8" y="215.2" textLength="12.2" clip-path="url(#terminal-4139811926-line-8)">
</text><text class="terminal-4139811926-r1" x="1695.8" y="239.6" textLength="12.2" clip-path="url(#terminal-4139811926-line-9)">
</text><text class="terminal-4139811926-r7" x="610" y="264" textLength="256.2" clip-path="url(#terminal-4139811926-line-10)">▔▔▔▔▔▔▔▔▔▔▔▔▔▔▔▔▔▔▔▔▔</text><text class="terminal-4139811926-r8" x="878.4" y="264" textLength="195.2" clip-path="url(#terminal-4139811926-line-10)">▔▔▔▔▔▔▔▔▔▔▔▔▔▔▔▔</text><text class="terminal-4139811926-r1" x="1695.8" y="264" textLength="12.2" clip-path="url(#terminal-4139811926-line-10)">
</text><text class="terminal-4139811926-r9" x="610" y="288.4" textLength="256.2" clip-path="url(#terminal-4139811926-line-11)">&#160;Capture&#160;Screenshots&#160;</text><text class="terminal-4139811926-r6" x="902.8" y="288.4" textLength="134.2" clip-path="url(#terminal-4139811926-line-11)">&#160;Self&#160;Test&#160;</text><text class="terminal-4139811926-r1" x="1695.8" y="288.4" textLength="12.2" clip-path="url(#terminal-4139811926-line-11)">
</text><text class="terminal-4139811926-r10" x="610" y="312.8" textLength="256.2" clip-path="url(#terminal-4139811926-line-12)">▁▁▁▁▁▁▁▁▁▁▁▁▁▁▁▁▁▁▁▁▁</text><text class="terminal-4139811926-r11" x="878.4" y="312.8" textLength="195.2" clip-path="url(#terminal-4139811926-line-12)">▁▁▁▁▁▁▁▁▁▁▁▁▁▁▁▁</text><text class="terminal-4139811926-r1" x="1695.8" y="312.8" textLength="12.2" clip-path="url(#terminal-4139811926-line-12)">
</text><text class="terminal-4139811926-r1" x="1695.8" y="337.2" textLength="12.2" clip-path="url(#terminal-4139811926-line-13)">
</text><text class="terminal-4139811926-r12" x="48.8" y="361.6" textLength="195.2" clip-path="url(#terminal-4139811926-line-14)">Capturing&#160;about…</text><text class="terminal-4139811926-r1" x="1695.8" y="361.6" textLength="12.2" clip-path="url(#terminal-4139811926-line-14)">
</text><text class="terminal-4139811926-r1" x="1695.8" y="386" textLength="12.2" clip-path="url(#terminal-4139811926-line-15)">
</text><text class="terminal-4139811926-r1" x="1695.8" y="410.4" textLength="12.2" clip-path="url(#terminal-4139811926-line-16)">
</text><text class="terminal-4139811926-r13" x="0" y="434.8" textLength="1695.8" clip-path="url(#terminal-4139811926-line-17)">───────────────────────────────────────────────────────────────────────────────────────────────────────────────────────────────────────────</text><text class="terminal-4139811926-r1" x="1695.8" y="434.8" textLength="12.2" clip-path="url(#terminal-4139811926-line-17)">
</text><text class="terminal-4139811926-r14" x="0" y="459.2" textLength="48.8" clip-path="url(#terminal-4139811926-line-18)">PASS</text><text class="terminal-4139811926-r2" x="48.8" y="459.2" textLength="280.6" clip-path="url(#terminal-4139811926-line-18)">&#160;&#160;copyright&#160;defined:&#160;ok</text><text class="terminal-4139811926-r1" x="1695.8" y="459.2" textLength="12.2" clip-path="url(#terminal-4139811926-line-18)">
</text><text class="terminal-4139811926-r14" x="0" y="483.6" textLength="48.8" clip-path="url(#terminal-4139811926-line-19)">PASS</text><text class="terminal-4139811926-r2" x="48.8" y="483.6" textLength="439.2" clip-path="url(#terminal-4139811926-line-19)">&#160;&#160;settings&#160;defaults&#160;are&#160;complete:&#160;ok</text><text class="terminal-4139811926-r1" x="1695.8" y="483.6" textLength="12.2" clip-path="url(#terminal-4139811926-line-19)">
</text><text class="terminal-4139811926-r14" x="0" y="508" textLength="48.8" clip-path="url(#terminal-4139811926-line-20)">PASS</text><text class="terminal-4139811926-r2" x="48.8" y="508" textLength="512.4" clip-path="url(#terminal-4139811926-line-20)">&#160;&#160;settings&#160;fresh&#160;load&#160;returns&#160;defaults:&#160;ok</text><text class="terminal-4139811926-r1" x="1695.8" y="508" textLength="12.2" clip-path="url(#terminal-4139811926-line-20)">
</text><text class="terminal-4139811926-r14" x="0" y="532.4" textLength="48.8" clip-path="url(#terminal-4139811926-line-21)">PASS</text><text class="terminal-4139811926-r2" x="48.8" y="532.4" textLength="439.2" clip-path="url(#terminal-4139811926-line-21)">&#160;&#160;settings&#160;save&#160;reload&#160;roundtrip:&#160;ok</text><text class="terminal-4139811926-r1" x="1695.8" y="532.4" textLength="12.2" clip-path="url(#terminal-4139811926-line-21)">
</text><text class="terminal-4139811926-r14" x="0" y="556.8" textLength="48.8" clip-path="url(#terminal-4139811926-line-22)">PASS</text><text class="terminal-4139811926-r2" x="48.8" y="556.8" textLength="500.2" clip-path="url(#terminal-4139811926-line-22)">&#160;&#160;settings&#160;atomic&#160;write&#160;leaves&#160;no&#160;tmp:&#160;ok</text><text class="terminal-4139811926-r1" x="1695.8" y="556.8" textLength="12.2" clip-path="url(#terminal-4139811926-line-22)">
</text><text class="terminal-4139811926-r14" x="0" y="581.2" textLength="48.8" clip-path="url(#terminal-4139811926-line-23)">PASS</text><text class="terminal-4139811926-r2" x="48.8" y="581.2" textLength="427" clip-path="url(#terminal-4139811926-line-23)">&#160;&#160;settings&#160;unknown&#160;keys&#160;ignored:&#160;ok</text><text class="terminal-4139811926-r1" x="1695.8" y="581.2" textLength="12.2" clip-path="url(#terminal-4139811926-line-23)">
</text><text class="terminal-4139811926-r14" x="0" y="605.6" textLength="48.8" clip-path="url(#terminal-4139811926-line-24)">PASS</text><text class="terminal-4139811926-r2" x="48.8" y="605.6" textLength="585.6" clip-path="url(#terminal-4139811926-line-24)">&#160;&#160;settings&#160;replace&#160;strips&#160;unknown&#160;categories:&#160;ok</text><text class="terminal-4139811926-r1" x="1695.8" y="605.6" textLength="12.2" clip-path="url(#terminal-4139811926-line-24)">
</text><text class="terminal-4139811926-r14" x="0" y="630" textLength="48.8" clip-path="url(#terminal-4139811926-line-25)">PASS</text><text class="terminal-4139811926-r2" x="48.8" y="630" textLength="378.2" clip-path="url(#terminal-4139811926-line-25)">&#160;&#160;settings&#160;legacy&#160;migration:&#160;ok</text><text class="terminal-4139811926-r1" x="1695.8" y="630" textLength="12.2" clip-path="url(#terminal-4139811926-line-25)">
</text><text class="terminal-4139811926-r14" x="0" y="654.4" textLength="48.8" clip-path="url(#terminal-4139811926-line-26)">PASS</text><text class="terminal-4139811926-r2" x="48.8" y="654.4" textLength="268.4" clip-path="url(#terminal-4139811926-line-26)">&#160;&#160;doc&#160;index&#160;exists:&#160;ok</text><text class="terminal-4139811926-r1" x="1695.8" y="654.4" textLength="12.2" clip-path="url(#terminal-4139811926-line-26)">
</text><text class="terminal-4139811926-r14" x="0" y="678.8" textLength="48.8" clip-path="url(#terminal-4139811926-line-27)">PASS</text><text class="terminal-4139811926-r2" x="48.8" y="678.8" textLength="305" clip-path="url(#terminal-4139811926-line-27)">&#160;&#160;doc&#160;tab&#160;files&#160;exist:&#160;ok</text><text class="terminal-4139811926-r1" x="1695.8" y="678.8" textLength="12.2" clip-path="url(#terminal-4139811926-line-27)">
</text><text class="terminal-4139811926-r14" x="0" y="703.2" textLength="48.8" clip-path="url(#terminal-4139811926-line-28)">PASS</text><text class="terminal-4139811926-r2" x="48.8" y="703.2" textLength="414.8" clip-path="url(#terminal-4139811926-line-28)">&#160;&#160;screenshot&#160;dir&#160;is&#160;inside&#160;doc:&#160;ok</text><text class="terminal-4139811926-r1" x="1695.8" y="703.2" textLength="12.2" clip-path="url(#terminal-4139811926-line-28)">
</text><text class="terminal-4139811926-r14" x="0" y="727.6" textLength="48.8" clip-path="url(#terminal-4139811926-line-29)">PASS</text><text class="terminal-4139811926-r2" x="48.8" y="727.6" textLength="439.2" clip-path="url(#terminal-4139811926-line-29)">&#160;&#160;tab&#160;ids&#160;cover&#160;all&#160;menu&#160;entries:&#160;ok</text><text class="terminal-4139811926-r1" x="1695.8" y="727.6" textLength="12.2" clip-path="url(#terminal-4139811926-line-29)">
</text><text class="terminal-4139811926-r14" x="0" y="752" textLength="48.8" clip-path="url(#terminal-4139811926-line-30)">PASS</text><text class="terminal-4139811926-r2" x="48.8" y="752" textLength="610" clip-path="url(#terminal-4139811926-line-30)">&#160;&#160;safe&#160;markdown&#160;viewer&#160;resolves&#160;relative&#160;links:&#160;ok</text><text class="terminal-4139811926-r1" x="1695.8" y="752" textLength="12.2" clip-path="url(#terminal-4139811926-line-30)">
</text><text class="terminal-4139811926-r14" x="0" y="776.4" textLength="48.8" clip-path="url(#terminal-4139811926-line-31)">PASS</text><text class="terminal-4139811926-r2" x="48.8" y="776.4" textLength="561.2" clip-path="url(#terminal-4139811926-line-31)">&#160;&#160;safe&#160;markdown&#160;viewer&#160;blocks&#160;non&#160;md&#160;links:&#160;ok</text><text class="terminal-4139811926-r1" x="1695.8" y="776.4" textLength="12.2" clip-path="url(#terminal-4139811926-line-31)">
</text><text class="terminal-4139811926-r1" x="1695.8" y="800.8" textLength="12.2" clip-path="url(#terminal-4139811926-line-32)">
</text><text class="terminal-4139811926-r14" x="0" y="825.2" textLength="146.4" clip-path="url(#terminal-4139811926-line-33)">14/14&#160;passed</text><text class="terminal-4139811926-r1" x="1695.8" y="825.2" textLength="12.2" clip-path="url(#terminal-4139811926-line-33)">
</text><text class="terminal-4139811926-r1" x="1695.8" y="849.6" textLength="12.2" clip-path="url(#terminal-4139811926-line-34)">
</text><text class="terminal-4139811926-r15" x="1549.4" y="874" textLength="12.2" clip-path="url(#terminal-4139811926-line-35)">▏</text><text class="terminal-4139811926-r16" x="1561.6" y="874" textLength="24.4" clip-path="url(#terminal-4139811926-line-35)">^p</text><text class="terminal-4139811926-r2" x="1586" y="874" textLength="97.6" clip-path="url(#terminal-4139811926-line-35)">&#160;palette</text>
    </g>
    </g>
</svg>
