<svg class="rich-terminal" viewBox="0 0 1714 928.4" xmlns="http://www.w3.org/2000/svg">
    <!-- Generated with Rich https://www.textualize.io -->
    <style>

    @font-face {
        font-family: "Fira Code";
        src: local("FiraCode-Regular"),
                url("https://cdnjs.cloudflare.com/ajax/libs/firacode/6.2.0/woff2/FiraCode-Regular.woff2") format("woff2"),
                url("https://cdnjs.cloudflare.com/ajax/libs/firacode/6.2.0/woff/FiraCode-Regular.woff") format("woff");
        font-style: normal;
        font-weight: 400;
    }
    @font-face {
        font-family: "Fira Code";
        src: local("FiraCode-Bold"),
                url("https://cdnjs.cloudflare.com/ajax/libs/firacode/6.2.0/woff2/FiraCode-Bold.woff2") format("woff2"),
                url("https://cdnjs.cloudflare.com/ajax/libs/firacode/6.2.0/woff/FiraCode-Bold.woff") format("woff");
        font-style: bold;
        font-weight: 700;
    }

    .terminal-2535222816-matrix {
        font-family: Fira Code, monospace;
        font-size: 20px;
        line-height: 24.4px;
        font-variant-east-asian: full-width;
    }

    .terminal-2535222816-title {
        font-size: 18px;
        font-weight: bold;
        font-family: arial;
    }

    .terminal-2535222816-r1 { fill: #c5c8c6 }
.terminal-2535222816-r2 { fill: #e0e0e0 }
.terminal-2535222816-r3 { fill: #797979 }
.terminal-2535222816-r4 { fill: #262626 }
.terminal-2535222816-r5 { fill: #0178d4 }
.terminal-2535222816-r6 { fill: #fea62b }
.terminal-2535222816-r7 { fill: #a7abaf }
.terminal-2535222816-r8 { fill: #afb3b7 }
.terminal-2535222816-r9 { fill: #a5a5a5 }
.terminal-2535222816-r10 { fill: #495259 }
.terminal-2535222816-r11 { fill: #ffa62b;font-weight: bold }
    </style>

    <defs>
    <clipPath id="terminal-2535222816-clip-terminal">
      <rect x="0" y="0" width="1694.8" height="877.4" />
    </clipPath>
    <clipPath id="terminal-2535222816-line-0">
    <rect x="0" y="1.5" width="1695.8" height="24.65"/>
            </clipPath>
<clipPath id="terminal-2535222816-line-1">
    <rect x="0" y="25.9" width="1695.8" height="24.65"/>
            </clipPath>
<clipPath id="terminal-2535222816-line-2">
    <rect x="0" y="50.3" width="1695.8" height="24.65"/>
            </clipPath>
<clipPath id="terminal-2535222816-line-3">
    <rect x="0" y="74.7" width="1695.8" height="24.65"/>
            </clipPath>
<clipPath id="terminal-2535222816-line-4">
    <rect x="0" y="99.1" width="1695.8" height="24.65"/>
            </clipPath>
<clipPath id="terminal-2535222816-line-5">
    <rect x="0" y="123.5" width="1695.8" height="24.65"/>
            </clipPath>
<clipPath id="terminal-2535222816-line-6">
    <rect x="0" y="147.9" width="1695.8" height="24.65"/>
            </clipPath>
<clipPath id="terminal-2535222816-line-7">
    <rect x="0" y="172.3" width="1695.8" height="24.65"/>
            </clipPath>
<clipPath id="terminal-2535222816-line-8">
    <rect x="0" y="196.7" width="1695.8" height="24.65"/>
            </clipPath>
<clipPath id="terminal-2535222816-line-9">
    <rect x="0" y="221.1" width="1695.8" height="24.65"/>
            </clipPath>
<clipPath id="terminal-2535222816-line-10">
    <rect x="0" y="245.5" width="1695.8" height="24.65"/>
            </clipPath>
<clipPath id="terminal-2535222816-line-11">
    <rect x="0" y="269.9" width="1695.8" height="24.65"/>
            </clipPath>
<clipPath id="terminal-2535222816-line-12">
    <rect x="0" y="294.3" width="1695.8" height="24.65"/>
            </clipPath>
<clipPath id="terminal-2535222816-line-13">
    <rect x="0" y="318.7" width="1695.8" height="24.65"/>
            </clipPath>
<clipPath id="terminal-2535222816-line-14">
    <rect x="0" y="343.1" width="1695.8" height="24.65"/>
            </clipPath>
<clipPath id="terminal-2535222816-line-15">
    <rect x="0" y="367.5" width="1695.8" height="24.65"/>
            </clipPath>
<clipPath id="terminal-2535222816-line-16">
    <rect x="0" y="391.9" width="1695.8" height="24.65"/>
            </clipPath>
<clipPath id="terminal-2535222816-line-17">
    <rect x="0" y="416.3" width="1695.8" height="24.65"/>
            </clipPath>
<clipPath id="terminal-2535222816-line-18">
    <rect x="0" y="440.7" width="1695.8" height="24.65"/>
            </clipPath>
<clipPath id="terminal-2535222816-line-19">
    <rect x="0" y="465.1" width="1695.8" height="24.65"/>
            </clipPath>
<clipPath id="terminal-2535222816-line-20">
    <rect x="0" y="489.5" width="1695.8" height="24.65"/>
            </clipPath>
<clipPath id="terminal-2535222816-line-21">
    <rect x="0" y="513.9" width="1695.8" height="24.65"/>
            </clipPath>
<clipPath id="terminal-2535222816-line-22">
    <rect x="0" y="538.3" width="1695.8" height="24.65"/>
            </clipPath>
<clipPath id="terminal-2535222816-line-23">
    <rect x="0" y="562.7" width="1695.8" height="24.65"/>
            </clipPath>
<clipPath id="terminal-2535222816-line-24">
    <rect x="0" y="587.1" width="1695.8" height="24.65"/>
            </clipPath>
<clipPath id="terminal-2535222816-line-25">
    <rect x="0" y="611.5" width="1695.8" height="24.65"/>
            </clipPath>
<clipPath id="terminal-2535222816-line-26">
    <rect x="0" y="635.9" width="1695.8" height="24.65"/>
            </clipPath>
<clipPath id="terminal-2535222816-line-27">
    <rect x="0" y="660.3" width="1695.8" height="24.65"/>
            </clipPath>
<clipPath id="terminal-2535222816-line-28">
    <rect x="0" y="684.7" width="1695.8" height="24.65"/>
            </clipPath>
<clipPath id="terminal-2535222816-line-29">
    <rect x="0" y="709.1" width="1695.8" height="24.65"/>
            </clipPath>
<clipPath id="terminal-2535222816-line-30">
    <rect x="0" y="733.5" width="1695.8" height="24.65"/>
            </clipPath>
<clipPath id="terminal-2535222816-line-31">
    <rect x="0" y="757.9" width="1695.8" height="24.65"/>
            </clipPath>
<clipPath id="terminal-2535222816-line-32">
    <rect x="0" y="782.3" width="1695.8" height="24.65"/>
            </clipPath>
<clipPath id="terminal-2535222816-line-33">
    <rect x="0" y="806.7" width="1695.8" height="24.65"/>
            </clipPath>
<clipPath id="terminal-2535222816-line-34">
    <rect x="0" y="831.1" width="1695.8" height="24.65"/>
            </clipPath>
    </defs>

    <rect fill="#292929" stroke="rgba(255,255,255,0.35)" stroke-width="1" x="1" y="1" width="1712" height="926.4" rx="8"/><text class="terminal-2535222816-title" fill="#c5c8c6" text-anchor="middle" x="856" y="27">etui&#160;—&#160;help</text>
            <g transform="translate(26,22)">
            <circle cx="0" cy="0" r="7" fill="#ff5f57"/>
            <circle cx="22" cy="0" r="7" fill="#febc2e"/>
            <circle cx="44" cy="0" r="7" fill="#28c840"/>
            </g>
        
    <g transform="translate(9, 41)" clip-path="url(#terminal-2535222816-clip-terminal)">
    <rect fill="#242f38" x="0" y="1.5" width="12.2" height="24.65" shape-rendering="crispEdges"/><rect fill="#242f38" x="12.2" y="1.5" width="12.2" height="24.65" shape-rendering="crispEdges"/><rect fill="#242f38" x="24.4" y="1.5" width="61" height="24.65" shape-rendering="crispEdges"/><rect fill="#242f38" x="85.4" y="1.5" width="12.2" height="24.65" shape-rendering="crispEdges"/><rect fill="#242f38" x="97.6" y="1.5" width="695.4" height="24.65" shape-rendering="crispEdges"/><rect fill="#242f38" x="793" y="1.5" width="85.4" height="24.65" shape-rendering="crispEdges"/><rect fill="#242f38" x="878.4" y="1.5" width="695.4" height="24.65" shape-rendering="crispEdges"/><rect fill="#242f38" x="1573.8" y="1.5" width="12.2" height="24.65" shape-rendering="crispEdges"/><rect fill="#242f38" x="1586" y="1.5" width="0" height="24.65" shape-rendering="crispEdges"/><rect fill="#242f38" x="1586" y="1.5" width="97.6" height="24.65" shape-rendering="crispEdges"/><rect fill="#242f38" x="1683.6" y="1.5" width="12.2" height="24.65" shape-rendering="crispEdges"/><rect fill="#121212" x="0" y="25.9" width="12.2" height="24.65" shape-rendering="crispEdges"/><rect fill="#121212" x="12.2" y="25.9" width="61" height="24.65" shape-rendering="crispEdges"/><rect fill="#121212" x="73.2" y="25.9" width="12.2" height="24.65" shape-rendering="crispEdges"/><rect fill="#121212" x="85.4" y="25.9" width="12.2" height="24.65" shape-rendering="crispEdges"/><rect fill="#121212" x="97.6" y="25.9" width="85.4" height="24.65" shape-rendering="crispEdges"/><rect fill="#121212" x="183" y="25.9" width="12.2" height="24.65" shape-rendering="crispEdges"/><rect fill="#121212" x="195.2" y="25.9" width="12.2" height="24.65" shape-rendering="crispEdges"/><rect fill="#121212" x="207.4" y="25.9" width="97.6" height="24.65" shape-rendering="crispEdges"/><rect fill="#121212" x="305" y="25.9" width="12.2" height="24.65" shape-rendering="crispEdges"/><rect fill="#121212" x="317.2" y="25.9" width="12.2" height="24.65" shape-rendering="crispEdges"/><rect fill="#121212" x="329.4" y="25.9" width="48.8" height="24.65" shape-rendering="crispEdges"/><rect fill="#121212" x="378.2" y="25.9" width="12.2" height="24.65" shape-rendering="crispEdges"/><rect fill="#121212" x="390.4" y="25.9" width="12.2" height="24.65" shape-rendering="crispEdges"/><rect fill="#121212" x="402.6" y="25.9" width="85.4" height="24.65" shape-rendering="crispEdges"/><rect fill="#121212" x="488" y="25.9" width="12.2" height="24.65" shape-rendering="crispEdges"/><rect fill="#121212" x="500.2" y="25.9" width="12.2" height="24.65" shape-rendering="crispEdges"/><rect fill="#121212" x="512.4" y="25.9" width="48.8" height="24.65" shape-rendering="crispEdges"/><rect fill="#121212" x="561.2" y="25.9" width="12.2" height="24.65" shape-rendering="crispEdges"/><rect fill="#121212" x="573.4" y="25.9" width="12.2" height="24.65" shape-rendering="crispEdges"/><rect fill="#121212" x="585.6" y="25.9" width="36.6" height="24.65" shape-rendering="crispEdges"/><rect fill="#121212" x="622.2" y="25.9" width="12.2" height="24.65" shape-rendering="crispEdges"/><rect fill="#121212" x="634.4" y="25.9" width="12.2" height="24.65" shape-rendering="crispEdges"/><rect fill="#121212" x="646.6" y="25.9" width="73.2" height="24.65" shape-rendering="crispEdges"/><rect fill="#121212" x="719.8" y="25.9" width="12.2" height="24.65" shape-rendering="crispEdges"/><rect fill="#121212" x="732" y="25.9" width="12.2" height="24.65" shape-rendering="crispEdges"/><rect fill="#121212" x="744.2" y="25.9" width="61" height="24.65" shape-rendering="crispEdges"/><rect fill="#121212" x="805.2" y="25.9" width="12.2" height="24.65" shape-rendering="crispEdges"/><rect fill="#121212" x="817.4" y="25.9" width="12.2" height="24.65" shape-rendering="crispEdges"/><rect fill="#121212" x="829.6" y="25.9" width="73.2" height="24.65" shape-rendering="crispEdges"/><rect fill="#121212" x="902.8" y="25.9" width="12.2" height="24.65" shape-rendering="crispEdges"/><rect fill="#121212" x="915" y="25.9" width="12.2" height="24.65" shape-rendering="crispEdges"/><rect fill="#121212" x="927.2" y="25.9" width="97.6" height="24.65" shape-rendering="crispEdges"/><rect fill="#121212" x="1024.8" y="25.9" width="12.2" height="24.65" shape-rendering="crispEdges"/><rect fill="#121212" x="1037" y="25.9" width="12.2" height="24.65" shape-rendering="crispEdges"/><rect fill="#121212" x="1049.2" y="25.9" width="61" height="24.65" shape-rendering="crispEdges"/><rect fill="#121212" x="1110.2" y="25.9" width="12.2" height="24.65" shape-rendering="crispEdges"/><rect fill="#121212" x="1122.4" y="25.9" width="12.2" height="24.65" shape-rendering="crispEdges"/><rect fill="#121212" x="1134.6" y="25.9" width="48.8" height="24.65" shape-rendering="crispEdges"/><rect fill="#121212" x="1183.4" y="25.9" width="12.2" height="24.65" shape-rendering="crispEdges"/><rect fill="#121212" x="1195.6" y="25.9" width="12.2" height="24.65" shape-rendering="crispEdges"/><rect fill="#121212" x="1207.8" y="25.9" width="61" height="24.65" shape-rendering="crispEdges"/><rect fill="#121212" x="1268.8" y="25.9" width="12.2" height="24.65" shape-rendering="crispEdges"/><rect fill="#121212" x="1281" y="25.9" width="244" height="24.65" shape-rendering="crispEdges"/><rect fill="#121212" x="1525" y="25.9" width="12.2" height="24.65" shape-rendering="crispEdges"/><rect fill="#121212" x="1537.2" y="25.9" width="61" height="24.65" shape-rendering="crispEdges"/><rect fill="#121212" x="1598.2" y="25.9" width="12.2" height="24.65" shape-rendering="crispEdges"/><rect fill="#121212" x="1610.4" y="25.9" width="12.2" height="24.65" shape-rendering="crispEdges"/><rect fill="#121212" x="1622.6" y="25.9" width="61" height="24.65" shape-rendering="crispEdges"/><rect fill="#121212" x="1683.6" y="25.9" width="12.2" height="24.65" shape-rendering="crispEdges"/><rect fill="#121212" x="0" y="50.3" width="1427.4" height="24.65" shape-rendering="crispEdges"/><rect fill="#121212" x="1427.4" y="50.3" width="12.2" height="24.65" shape-rendering="crispEdges"/><rect fill="#121212" x="1439.6" y="50.3" width="48.8" height="24.65" shape-rendering="crispEdges"/><rect fill="#121212" x="1488.4" y="50.3" width="12.2" height="24.65" shape-rendering="crispEdges"/><rect fill="#121212" x="1500.6" y="50.3" width="195.2" height="24.65" shape-rendering="crispEdges"/><rect fill="#1e1e1e" x="0" y="74.7" width="12.2" height="24.65" shape-rendering="crispEdges"/><rect fill="#1e1e1e" x="12.2" y="74.7" width="158.6" height="24.65" shape-rendering="crispEdges"/><rect fill="#1e1e1e" x="170.8" y="74.7" width="1512.8" height="24.65" shape-rendering="crispEdges"/><rect fill="#1e1e1e" x="1683.6" y="74.7" width="12.2" height="24.65" shape-rendering="crispEdges"/><rect fill="#1e1e1e" x="0" y="99.1" width="12.2" height="24.65" shape-rendering="crispEdges"/><rect fill="#1e1e1e" x="12.2" y="99.1" width="1671.4" height="24.65" shape-rendering="crispEdges"/><rect fill="#1e1e1e" x="1683.6" y="99.1" width="12.2" height="24.65" shape-rendering="crispEdges"/><rect fill="#1e1e1e" x="0" y="123.5" width="1695.8" height="24.65" shape-rendering="crispEdges"/><rect fill="#194466" x="0" y="147.9" width="12.2" height="24.65" shape-rendering="crispEdges"/><rect fill="#194466" x="12.2" y="147.9" width="122" height="24.65" shape-rendering="crispEdges"/><rect fill="#194466" x="134.2" y="147.9" width="1549.4" height="24.65" shape-rendering="crispEdges"/><rect fill="#194466" x="1683.6" y="147.9" width="12.2" height="24.65" shape-rendering="crispEdges"/><rect fill="#242f38" x="0" y="172.3" width="12.2" height="24.65" shape-rendering="crispEdges"/><rect fill="#242f38" x="12.2" y="172.3" width="85.4" height="24.65" shape-rendering="crispEdges"/><rect fill="#242f38" x="97.6" y="172.3" width="1586" height="24.65" shape-rendering="crispEdges"/><rect fill="#242f38" x="1683.6" y="172.3" width="12.2" height="24.65" shape-rendering="crispEdges"/><rect fill="#242f38" x="0" y="196.7" width="12.2" height="24.65" shape-rendering="crispEdges"/><rect fill="#242f38" x="12.2" y="196.7" width="109.8" height="24.65" shape-rendering="crispEdges"/><rect fill="#242f38" x="122" y="196.7" width="1561.6" height="24.65" shape-rendering="crispEdges"/><rect fill="#242f38" x="1683.6" y="196.7" width="12.2" height="24.65" shape-rendering="crispEdges"/><rect fill="#242f38" x="0" y="221.1" width="12.2" height="24.65" shape-rendering="crispEdges"/><rect fill="#242f38" x="12.2" y="221.1" width="85.4" height="24.65" shape-rendering="crispEdges"/><rect fill="#242f38" x="97.6" y="221.1" width="1586" height="24.65" shape-rendering="crispEdges"/><rect fill="#242f38" x="1683.6" y="221.1" width="12.2" height="24.65" shape-rendering="crispEdges"/><rect fill="#242f38" x="0" y="245.5" width="12.2" height="24.65" shape-rendering="crispEdges"/><rect fill="#242f38" x="12.2" y="245.5" width="61" height="24.65" shape-rendering="crispEdges"/><rect fill="#242f38" x="73.2" y="245.5" width="1610.4" height="24.65" shape-rendering="crispEdges"/><rect fill="#242f38" x="1683.6" y="245.5" width="12.2" height="24.65" shape-rendering="crispEdges"/><rect fill="#242f38" x="0" y="269.9" width="12.2" height="24.65" shape-rendering="crispEdges"/><rect fill="#242f38" x="12.2" y="269.9" width="97.6" height="24.65" shape-rendering="crispEdges"/><rect fill="#242f38" x="109.8" y="269.9" width="1573.8" height="24.65" shape-rendering="crispEdges"/><rect fill="#242f38" x="1683.6" y="269.9" width="12.2" height="24.65" shape-rendering="crispEdges"/><rect fill="#242f38" x="0" y="294.3" width="12.2" height="24.65" shape-rendering="crispEdges"/><rect fill="#242f38" x="12.2" y="294.3" width="85.4" height="24.65" shape-rendering="crispEdges"/><rect fill="#242f38" x="97.6" y="294.3" width="1586" height="24.65" shape-rendering="crispEdges"/><rect fill="#242f38" x="1683.6" y="294.3" width="12.2" height="24.65" shape-rendering="crispEdges"/><rect fill="#242f38" x="0" y="318.7" width="12.2" height="24.65" shape-rendering="crispEdges"/><rect fill="#242f38" x="12.2" y="318.7" width="97.6" height="24.65" shape-rendering="crispEdges"/><rect fill="#242f38" x="109.8" y="318.7" width="1573.8" height="24.65" shape-rendering="crispEdges"/><rect fill="#242f38" x="1683.6" y="318.7" width="12.2" height="24.65" shape-rendering="crispEdges"/><rect fill="#39434b" x="0" y="343.1" width="12.2" height="24.65" shape-rendering="crispEdges"/><rect fill="#39434b" x="12.2" y="343.1" width="85.4" height="24.65" shape-rendering="crispEdges"/><rect fill="#39434b" x="97.6" y="343.1" width="1586" height="24.65" shape-rendering="crispEdges"/><rect fill="#39434b" x="1683.6" y="343.1" width="12.2" height="24.65" shape-rendering="crispEdges"/><rect fill="#242f38" x="0" y="367.5" width="12.2" height="24.65" shape-rendering="crispEdges"/><rect fill="#242f38" x="12.2" y="367.5" width="73.2" height="24.65" shape-rendering="crispEdges"/><rect fill="#242f38" x="85.4" y="367.5" width="1598.2" height="24.65" shape-rendering="crispEdges"/><rect fill="#242f38" x="1683.6" y="367.5" width="12.2" height="24.65" shape-rendering="crispEdges"/><rect fill="#242f38" x="0" y="391.9" width="12.2" height="24.65" shape-rendering="crispEdges"/><rect fill="#242f38" x="12.2" y="391.9" width="73.2" height="24.65" shape-rendering="crispEdges"/><rect fill="#242f38" x="85.4" y="391.9" width="1598.2" height="24.65" shape-rendering="crispEdges"/><rect fill="#242f38" x="1683.6" y="391.9" width="12.2" height="24.65" shape-rendering="crispEdges"/><rect fill="#242f38" x="0" y="416.3" width="12.2" height="24.65" shape-rendering="crispEdges"/><rect fill="#242f38" x="12.2" y="416.3" width="109.8" height="24.65" shape-rendering="crispEdges"/><rect fill="#242f38" x="122" y="416.3" width="1561.6" height="24.65" shape-rendering="crispEdges"/><rect fill="#242f38" x="1683.6" y="416.3" width="12.2" height="24.65" shape-rendering="crispEdges"/><rect fill="#242f38" x="0" y="440.7" width="12.2" height="24.65" shape-rendering="crispEdges"/><rect fill="#242f38" x="12.2" y="440.7" width="122" height="24.65" shape-rendering="crispEdges"/><rect fill="#242f38" x="134.2" y="440.7" width="1549.4" height="24.65" shape-rendering="crispEdges"/><rect fill="#242f38" x="1683.6" y="440.7" width="12.2" height="24.65" shape-rendering="crispEdges"/><rect fill="#242f38" x="0" y="465.1" width="12.2" height="24.65" shape-rendering="crispEdges"/><rect fill="#242f38" x="12.2" y="465.1" width="85.4" height="24.65" shape-rendering="crispEdges"/><rect fill="#242f38" x="97.6" y="465.1" width="1586" height="24.65" shape-rendering="crispEdges"/><rect fill="#242f38" x="1683.6" y="465.1" width="12.2" height="24.65" shape-rendering="crispEdges"/><rect fill="#242f38" x="0" y="489.5" width="12.2" height="24.65" shape-rendering="crispEdges"/><rect fill="#242f38" x="12.2" y="489.5" width="85.4" height="24.65" shape-rendering="crispEdges"/><rect fill="#242f38" x="97.6" y="489.5" width="1586" height="24.65" shape-rendering="crispEdges"/><rect fill="#242f38" x="1683.6" y="489.5" width="12.2" height="24.65" shape-rendering="crispEdges"/><rect fill="#242f38" x="0" y="513.9" width="12.2" height="24.65" shape-rendering="crispEdges"/><rect fill="#242f38" x="12.2" y="513.9" width="73.2" height="24.65" shape-rendering="crispEdges"/><rect fill="#242f38" x="85.4" y="513.9" width="1598.2" height="24.65" shape-rendering="crispEdges"/><rect fill="#242f38" x="1683.6" y="513.9" width="12.2" height="24.65" shape-rendering="crispEdges"/><rect fill="#242f38" x="0" y="538.3" width="1695.8" height="24.65" shape-rendering="crispEdges"/><rect fill="#242f38" x="0" y="562.7" width="1695.8" height="24.65" shape-rendering="crispEdges"/><rect fill="#242f38" x="0" y="587.1" width="1695.8" height="24.65" shape-rendering="crispEdges"/><rect fill="#242f38" x="0" y="611.5" width="1695.8" height="24.65" shape-rendering="crispEdges"/><rect fill="#242f38" x="0" y="635.9" width="1695.8" height="24.65" shape-rendering="crispEdges"/><rect fill="#242f38" x="0" y="660.3" width="1695.8" height="24.65" shape-rendering="crispEdges"/><rect fill="#242f38" x="0" y="684.7" width="1695.8" height="24.65" shape-rendering="crispEdges"/><rect fill="#242f38" x="0" y="709.1" width="1695.8" height="24.65" shape-rendering="crispEdges"/><rect fill="#242f38" x="0" y="733.5" width="1695.8" height="24.65" shape-rendering="crispEdges"/><rect fill="#242f38" x="0" y="757.9" width="1695.8" height="24.65" shape-rendering="crispEdges"/><rect fill="#242f38" x="0" y="782.3" width="1695.8" height="24.65" shape-rendering="crispEdges"/><rect fill="#1e1e1e" x="0" y="806.7" width="1695.8" height="24.65" shape-rendering="crispEdges"/><rect fill="#1e1e1e" x="0" y="831.1" width="12.2" height="24.65" shape-rendering="crispEdges"/><rect fill="#1e1e1e" x="12.2" y="831.1" width="414.8" height="24.65" shape-rendering="crispEdges"/><rect fill="#1e1e1e" x="427" y="831.1" width="1256.6" height="24.65" shape-rendering="crispEdges"/><rect fill="#1e1e1e" x="1683.6" y="831.1" width="12.2" height="24.65" shape-rendering="crispEdges"/><rect fill="#242f38" x="0" y="855.5" width="1549.4" height="24.65" shape-rendering="crispEdges"/><rect fill="#242f38" x="1549.4" y="855.5" width="12.2" height="24.65" shape-rendering="crispEdges"/><rect fill="#242f38" x="1561.6" y="855.5" width="24.4" height="24.65" shape-rendering="crispEdges"/><rect fill="#242f38" x="1586" y="855.5" width="97.6" height="24.65" shape-rendering="crispEdges"/><rect fill="#242f38" x="1683.6" y="855.5" width="12.2" height="24.65" shape-rendering="crispEdges"/>
    <g class="terminal-2535222816-matrix">
    <text class="terminal-2535222816-r2" x="12.2" y="20" textLength="12.2" clip-path="url(#terminal-2535222816-line-0)">⭘</text><text class="terminal-2535222816-r2" x="793" y="20" textLength="85.4" clip-path="url(#terminal-2535222816-line-0)">EtuiApp</text><text class="terminal-2535222816-r1" x="1695.8" y="20" textLength="12.2" clip-path="url(#terminal-2535222816-line-0)">
</text><text class="terminal-2535222816-r3" x="12.2" y="44.4" textLength="61" clip-path="url(#terminal-2535222816-line-1)">Files</text><text class="terminal-2535222816-r3" x="97.6" y="44.4" textLength="85.4" clip-path="url(#terminal-2535222816-line-1)">Console</text><text class="terminal-2535222816-r3" x="207.4" y="44.4" textLength="97.6" clip-path="url(#terminal-2535222816-line-1)">Settings</text><text class="terminal-2535222816-r3" x="329.4" y="44.4" textLength="48.8" clip-path="url(#terminal-2535222816-line-1)">Venv</text><text class="terminal-2535222816-r3" x="402.6" y="44.4" textLength="85.4" clip-path="url(#terminal-2535222816-line-1)">Plugins</text><text class="terminal-2535222816-r2" x="512.4" y="44.4" textLength="48.8" clip-path="url(#terminal-2535222816-line-1)">Help</text><text class="terminal-2535222816-r3" x="585.6" y="44.4" textLength="36.6" clip-path="url(#terminal-2535222816-line-1)">Git</text><text class="terminal-2535222816-r3" x="646.6" y="44.4" textLength="73.2" clip-path="url(#terminal-2535222816-line-1)">GitHub</text><text class="terminal-2535222816-r3" x="744.2" y="44.4" textLength="61" clip-path="url(#terminal-2535222816-line-1)">CMake</text><text class="terminal-2535222816-r3" x="829.6" y="44.4" textLength="73.2" clip-path="url(#terminal-2535222816-line-1)">Serial</text><text class="terminal-2535222816-r3" x="927.2" y="44.4" textLength="97.6" clip-path="url(#terminal-2535222816-line-1)">Workflow</text><text class="terminal-2535222816-r3" x="1049.2" y="44.4" textLength="61" clip-path="url(#terminal-2535222816-line-1)">Probe</text><text class="terminal-2535222816-r3" x="1134.6" y="44.4" textLength="48.8" clip-path="url(#terminal-2535222816-line-1)">LLDB</text><text class="terminal-2535222816-r3" x="1207.8" y="44.4" textLength="61" clip-path="url(#terminal-2535222816-line-1)">Tools</text><text class="terminal-2535222816-r3" x="1537.2" y="44.4" textLength="61" clip-path="url(#terminal-2535222816-line-1)">Theme</text><text class="terminal-2535222816-r3" x="1622.6" y="44.4" textLength="61" clip-path="url(#terminal-2535222816-line-1)">About</text><text class="terminal-2535222816-r1" x="1695.8" y="44.4" textLength="12.2" clip-path="url(#terminal-2535222816-line-1)">
</text><text class="terminal-2535222816-r4" x="0" y="68.8" textLength="1427.4" clip-path="url(#terminal-2535222816-line-2)">━━━━━━━━━━━━━━━━━━━━━━━━━━━━━━━━━━━━━━━━━━━━━━━━━━━━━━━━━━━━━━━━━━━━━━━━━━━━━━━━━━━━━━━━━━━━━━━━━━━━━━━━━━━━━━━━━━━━━</text><text class="terminal-2535222816-r4" x="1427.4" y="68.8" textLength="12.2" clip-path="url(#terminal-2535222816-line-2)">╸</text><text class="terminal-2535222816-r5" x="1439.6" y="68.8" textLength="48.8" clip-path="url(#terminal-2535222816-line-2)">━━━━</text><text class="terminal-2535222816-r5" x="1488.4" y="68.8" textLength="12.2" clip-path="url(#terminal-2535222816-line-2)">╸</text><text class="terminal-2535222816-r4" x="1500.6" y="68.8" textLength="195.2" clip-path="url(#terminal-2535222816-line-2)">━━━━━━━━━━━━━━━━</text><text class="terminal-2535222816-r1" x="1695.8" y="68.8" textLength="12.2" clip-path="url(#terminal-2535222816-line-2)">
</text><text class="terminal-2535222816-r2" x="12.2" y="93.2" textLength="158.6" clip-path="url(#terminal-2535222816-line-3)">Documentation</text><text class="terminal-2535222816-r1" x="1695.8" y="93.2" textLength="12.2" clip-path="url(#terminal-2535222816-line-3)">
</text><text class="terminal-2535222816-r1" x="1695.8" y="117.6" textLength="12.2" clip-path="url(#terminal-2535222816-line-4)">
</text><text class="terminal-2535222816-r6" x="0" y="142" textLength="1695.8" clip-path="url(#terminal-2535222816-line-5)">───────────────────────────────────────────────────────────────────────────────────────────────────────────────────────────────────────────</text><text class="terminal-2535222816-r1" x="1695.8" y="142" textLength="12.2" clip-path="url(#terminal-2535222816-line-5)">
</text><text class="terminal-2535222816-r2" x="12.2" y="166.4" textLength="122" clip-path="url(#terminal-2535222816-line-6)">User&#160;Guide</text><text class="terminal-2535222816-r1" x="1695.8" y="166.4" textLength="12.2" clip-path="url(#terminal-2535222816-line-6)">
</text><text class="terminal-2535222816-r7" x="12.2" y="190.8" textLength="85.4" clip-path="url(#terminal-2535222816-line-7)">&#160;&#160;Files</text><text class="terminal-2535222816-r1" x="1695.8" y="190.8" textLength="12.2" clip-path="url(#terminal-2535222816-line-7)">
</text><text class="terminal-2535222816-r7" x="12.2" y="215.2" textLength="109.8" clip-path="url(#terminal-2535222816-line-8)">&#160;&#160;Console</text><text class="terminal-2535222816-r1" x="1695.8" y="215.2" textLength="12.2" clip-path="url(#terminal-2535222816-line-8)">
</text><text class="terminal-2535222816-r7" x="12.2" y="239.6" textLength="85.4" clip-path="url(#terminal-2535222816-line-9)">&#160;&#160;Tools</text><text class="terminal-2535222816-r1" x="1695.8" y="239.6" textLength="12.2" clip-path="url(#terminal-2535222816-line-9)">
</text><text class="terminal-2535222816-r7" x="12.2" y="264" textLength="61" clip-path="url(#terminal-2535222816-line-10)">&#160;&#160;Git</text><text class="terminal-2535222816-r1" x="1695.8" y="264" textLength="12.2" clip-path="url(#terminal-2535222816-line-10)">
</text><text class="terminal-2535222816-r7" x="12.2" y="288.4" textLength="97.6" clip-path="url(#terminal-2535222816-line-11)">&#160;&#160;GitHub</text><text class="terminal-2535222816-r1" x="1695.8" y="288.4" textLength="12.2" clip-path="url(#terminal-2535222816-line-11)">
</text><text class="terminal-2535222816-r7" x="12.2" y="312.8" textLength="85.4" clip-path="url(#terminal-2535222816-line-12)">&#160;&#160;CMake</text><text class="terminal-2535222816-r1" x="1695.8" y="312.8" textLength="12.2" clip-path="url(#terminal-2535222816-line-12)">
</text><text class="terminal-2535222816-r7" x="12.2" y="337.2" textLength="97.6" clip-path="url(#terminal-2535222816-line-13)">&#160;&#160;Serial</text><text class="terminal-2535222816-r1" x="1695.8" y="337.2" textLength="12.2" clip-path="url(#terminal-2535222816-line-13)">
</text><text class="terminal-2535222816-r8" x="12.2" y="361.6" textLength="85.4" clip-path="url(#terminal-2535222816-line-14)">&#160;&#160;Probe</text><text class="terminal-2535222816-r1" x="1695.8" y="361.6" textLength="12.2" clip-path="url(#terminal-2535222816-line-14)">
</text><text class="terminal-2535222816-r7" x="12.2" y="386" textLength="73.2" clip-path="url(#terminal-2535222816-line-15)">&#160;&#160;LLDB</text><text class="terminal-2535222816-r1" x="1695.8" y="386" textLength="12.2" clip-path="url(#terminal-2535222816-line-15)">
</text><text class="terminal-2535222816-r7" x="12.2" y="410.4" textLength="73.2" clip-path="url(#terminal-2535222816-line-16)">&#160;&#160;Venv</text><text class="terminal-2535222816-r1" x="1695.8" y="410.4" textLength="12.2" clip-path="url(#terminal-2535222816-line-16)">
</text><text class="terminal-2535222816-r7" x="12.2" y="434.8" textLength="109.8" clip-path="url(#terminal-2535222816-line-17)">&#160;&#160;Plugins</text><text class="terminal-2535222816-r1" x="1695.8" y="434.8" textLength="12.2" clip-path="url(#terminal-2535222816-line-17)">
</text><text class="terminal-2535222816-r7" x="12.2" y="459.2" textLength="122" clip-path="url(#terminal-2535222816-line-18)">&#160;&#160;Settings</text><text class="terminal-2535222816-r1" x="1695.8" y="459.2" textLength="12.2" clip-path="url(#terminal-2535222816-line-18)">
</text><text class="terminal-2535222816-r7" x="12.2" y="483.6" textLength="85.4" clip-path="url(#terminal-2535222816-line-19)">&#160;&#160;Theme</text><text class="terminal-2535222816-r1" x="1695.8" y="483.6" textLength="12.2" clip-path="url(#terminal-2535222816-line-19)">
</text><text class="terminal-2535222816-r7" x="12.2" y="508" textLength="85.4" clip-path="url(#terminal-2535222816-line-20)">&#160;&#160;About</text><text class="terminal-2535222816-r1" x="1695.8" y="508" textLength="12.2" clip-path="url(#terminal-2535222816-line-20)">
</text><text class="terminal-2535222816-r7" x="12.2" y="532.4" textLength="73.2" clip-path="url(#terminal-2535222816-line-21)">&#160;&#160;Help</text><text class="terminal-2535222816-r1" x="1695.8" y="532.4" textLength="12.2" clip-path="url(#terminal-2535222816-line-21)">
</text><text class="terminal-2535222816-r1" x="1695.8" y="556.8" textLength="12.2" clip-path="url(#terminal-2535222816-line-22)">
</text><text class="terminal-2535222816-r1" x="1695.8" y="581.2" textLength="12.2" clip-path="url(#terminal-2535222816-line-23)">
</text><text class="terminal-2535222816-r1" x="1695.8" y="605.6" textLength="12.2" clip-path="url(#terminal-2535222816-line-24)">
</text><text class="terminal-2535222816-r1" x="1695.8" y="630" textLength="12.2" clip-path="url(#terminal-2535222816-line-25)">
</text><text class="terminal-2535222816-r1" x="1695.8" y="654.4" textLength="12.2" clip-path="url(#terminal-2535222816-line-26)">
</text><text class="terminal-2535222816-r1" x="1695.8" y="678.8" textLength="12.2" clip-path="url(#terminal-2535222816-line-27)">
</text><text class="terminal-2535222816-r1" x="1695.8" y="703.2" textLength="12.2" clip-path="url(#terminal-2535222816-line-28)">
</text><text class="terminal-2535222816-r1" x="1695.8" y="727.6" textLength="12.2" clip-path="url(#terminal-2535222816-line-29)">
</text><text class="terminal-2535222816-r1" x="1695.8" y="752" textLength="12.2" clip-path="url(#terminal-2535222816-line-30)">
</text><text class="terminal-2535222816-r1" x="1695.8" y="776.4" textLength="12.2" clip-path="url(#terminal-2535222816-line-31)">
</text><text class="terminal-2535222816-r1" x="1695.8" y="800.8" textLength="12.2" clip-path="url(#terminal-2535222816-line-32)">
</text><text class="terminal-2535222816-r6" x="0" y="825.2" textLength="1695.8" clip-path="url(#terminal-2535222816-line-33)">───────────────────────────────────────────────────────────────────────────────────────────────────────────────────────────────────────────</text><text class="terminal-2535222816-r1" x="1695.8" y="825.2" textLength="12.2" clip-path="url(#terminal-2535222816-line-33)">
</text><text class="terminal-2535222816-r9" x="12.2" y="849.6" textLength="414.8" clip-path="url(#terminal-2535222816-line-34)">Enter&#160;/&#160;click&#160;to&#160;open&#160;in&#160;Files&#160;tab</text><text class="terminal-2535222816-r1" x="1695.8" y="849.6" textLength="12.2" clip-path="url(#terminal-2535222816-line-34)">
</text><text class="terminal-2535222816-r10" x="1549.4" y="874" textLength="12.2" clip-path="url(#terminal-2535222816-line-35)">▏</text><text class="terminal-2535222816-r11" x="1561.6" y="874" textLength="24.4" clip-path="url(#terminal-2535222816-line-35)">^p</text><text class="terminal-2535222816-r2" x="1586" y="874" textLength="97.6" clip-path="url(#terminal-2535222816-line-35)">&#160;palette</text>
    </g>
    </g>
</svg>
