<svg class="rich-terminal" viewBox="0 0 1714 928.4" xmlns="http://www.w3.org/2000/svg">
    <!-- Generated with Rich https://www.textualize.io -->
    <style>

    @font-face {
        font-family: "Fira Code";
        src: local("FiraCode-Regular"),
                url("https://cdnjs.cloudflare.com/ajax/libs/firacode/6.2.0/woff2/FiraCode-Regular.woff2") format("woff2"),
                url("https://cdnjs.cloudflare.com/ajax/libs/firacode/6.2.0/woff/FiraCode-Regular.woff") format("woff");
        font-style: normal;
        font-weight: 400;
    }
    @font-face {
        font-family: "Fira Code";
        src: local("FiraCode-Bold"),
                url("https://cdnjs.cloudflare.com/ajax/libs/firacode/6.2.0/woff2/FiraCode-Bold.woff2") format("woff2"),
                url("https://cdnjs.cloudflare.com/ajax/libs/firacode/6.2.0/woff/FiraCode-Bold.woff") format("woff");
        font-style: bold;
        font-weight: 700;
    }

    .terminal-779815062-matrix {
        font-family: Fira Code, monospace;
        font-size: 20px;
        line-height: 24.4px;
        font-variant-east-asian: full-width;
    }

    .terminal-779815062-title {
        font-size: 18px;
        font-weight: bold;
        font-family: arial;
    }

    .terminal-779815062-r1 { fill: #c5c8c6 }
.terminal-779815062-r2 { fill: #e0e0e0 }
.terminal-779815062-r3 { fill: #797979 }
.terminal-779815062-r4 { fill: #262626 }
.terminal-779815062-r5 { fill: #0178d4 }
.terminal-779815062-r6 { fill: #1e1e1e }
.terminal-779815062-r7 { fill: #121212 }
.terminal-779815062-r8 { fill: #fea62b }
.terminal-779815062-r9 { fill: #58d1eb;font-weight: bold }
.terminal-779815062-r10 { fill: #98e024;font-weight: bold }
.terminal-779815062-r11 { fill: #fd971f;font-weight: bold }
.terminal-779815062-r12 { fill: #2d2d2d }
.terminal-779815062-r13 { fill: #856e32 }
.terminal-779815062-r14 { fill: #e0e0e0;font-weight: bold }
.terminal-779815062-r15 { fill: #6a6a6a;font-weight: bold }
.terminal-779815062-r16 { fill: #422d10;font-weight: bold }
.terminal-779815062-r17 { fill: #0d0d0d }
.terminal-779815062-r18 { fill: #0f0f0f }
.terminal-779815062-r19 { fill: #633d08 }
.terminal-779815062-r20 { fill: #191919 }
.terminal-779815062-r21 { fill: #6db2ff }
.terminal-779815062-r22 { fill: #737373 }
.terminal-779815062-r23 { fill: #ddedf9;font-weight: bold }
.terminal-779815062-r24 { fill: #004295 }
.terminal-779815062-r25 { fill: #495259 }
.terminal-779815062-r26 { fill: #ffa62b;font-weight: bold }
    </style>

    <defs>
    <clipPath id="terminal-779815062-clip-terminal">
      <rect x="0" y="0" width="1694.8" height="877.4" />
    </clipPath>
    <clipPath id="terminal-779815062-line-0">
    <rect x="0" y="1.5" width="1695.8" height="24.65"/>
            </clipPath>
<clipPath id="terminal-779815062-line-1">
    <rect x="0" y="25.9" width="1695.8" height="24.65"/>
            </clipPath>
<clipPath id="terminal-779815062-line-2">
    <rect x="0" y="50.3" width="1695.8" height="24.65"/>
            </clipPath>
<clipPath id="terminal-779815062-line-3">
    <rect x="0" y="74.7" width="1695.8" height="24.65"/>
            </clipPath>
<clipPath id="terminal-779815062-line-4">
    <rect x="0" y="99.1" width="1695.8" height="24.65"/>
            </clipPath>
<clipPath id="terminal-779815062-line-5">
    <rect x="0" y="123.5" width="1695.8" height="24.65"/>
            </clipPath>
<clipPath id="terminal-779815062-line-6">
    <rect x="0" y="147.9" width="1695.8" height="24.65"/>
            </clipPath>
<clipPath id="terminal-779815062-line-7">
    <rect x="0" y="172.3" width="1695.8" height="24.65"/>
            </clipPath>
<clipPath id="terminal-779815062-line-8">
    <rect x="0" y="196.7" width="1695.8" height="24.65"/>
            </clipPath>
<clipPath id="terminal-779815062-line-9">
    <rect x="0" y="221.1" width="1695.8" height="24.65"/>
            </clipPath>
<clipPath id="terminal-779815062-line-10">
    <rect x="0" y="245.5" width="1695.8" height="24.65"/>
            </clipPath>
<clipPath id="terminal-779815062-line-11">
    <rect x="0" y="269.9" width="1695.8" height="24.65"/>
            </clipPath>
<clipPath id="terminal-779815062-line-12">
    <rect x="0" y="294.3" width="1695.8" height="24.65"/>
            </clipPath>
<clipPath id="terminal-779815062-line-13">
    <rect x="0" y="318.7" width="1695.8" height="24.65"/>
            </clipPath>
<clipPath id="terminal-779815062-line-14">
    <rect x="0" y="343.1" width="1695.8" height="24.65"/>
            </clipPath>
<clipPath id="terminal-779815062-line-15">
    <rect x="0" y="367.5" width="1695.8" height="24.65"/>
            </clipPath>
<clipPath id="terminal-779815062-line-16">
    <rect x="0" y="391.9" width="1695.8" height="24.65"/>
            </clipPath>
<clipPath id="terminal-779815062-line-17">
    <rect x="0" y="416.3" width="1695.8" height="24.65"/>
            </clipPath>
<clipPath id="terminal-779815062-line-18">
    <rect x="0" y="440.7" width="1695.8" height="24.65"/>
            </clipPath>
<clipPath id="terminal-779815062-line-19">
    <rect x="0" y="465.1" width="1695.8" height="24.65"/>
            </clipPath>
<clipPath id="terminal-779815062-line-20">
    <rect x="0" y="489.5" width="1695.8" height="24.65"/>
            </clipPath>
<clipPath id="terminal-779815062-line-21">
    <rect x="0" y="513.9" width="1695.8" height="24.65"/>
            </clipPath>
<clipPath id="terminal-779815062-line-22">
    <rect x="0" y="538.3" width="1695.8" height="24.65"/>
            </clipPath>
<clipPath id="terminal-779815062-line-23">
    <rect x="0" y="562.7" width="1695.8" height="24.65"/>
            </clipPath>
<clipPath id="terminal-779815062-line-24">
    <rect x="0" y="587.1" width="1695.8" height="24.65"/>
            </clipPath>
<clipPath id="terminal-779815062-line-25">
    <rect x="0" y="611.5" width="1695.8" height="24.65"/>
            </clipPath>
<clipPath id="terminal-779815062-line-26">
    <rect x="0" y="635.9" width="1695.8" height="24.65"/>
            </clipPath>
<clipPath id="terminal-779815062-line-27">
    <rect x="0" y="660.3" width="1695.8" height="24.65"/>
            </clipPath>
<clipPath id="terminal-779815062-line-28">
    <rect x="0" y="684.7" width="1695.8" height="24.65"/>
            </clipPath>
<clipPath id="terminal-779815062-line-29">
    <rect x="0" y="709.1" width="1695.8" height="24.65"/>
            </clipPath>
<clipPath id="terminal-779815062-line-30">
    <rect x="0" y="733.5" width="1695.8" height="24.65"/>
            </clipPath>
<clipPath id="terminal-779815062-line-31">
    <rect x="0" y="757.9" width="1695.8" height="24.65"/>
            </clipPath>
<clipPath id="terminal-779815062-line-32">
    <rect x="0" y="782.3" width="1695.8" height="24.65"/>
            </clipPath>
<clipPath id="terminal-779815062-line-33">
    <rect x="0" y="806.7" width="1695.8" height="24.65"/>
            </clipPath>
<clipPath id="terminal-779815062-line-34">
    <rect x="0" y="831.1" width="1695.8" height="24.65"/>
            </clipPath>
    </defs>

    <rect fill="#292929" stroke="rgba(255,255,255,0.35)" stroke-width="1" x="1" y="1" width="1712" height="926.4" rx="8"/><text class="terminal-779815062-title" fill="#c5c8c6" text-anchor="middle" x="856" y="27">etui&#160;—&#160;plugin-git</text>
            <g transform="translate(26,22)">
            <circle cx="0" cy="0" r="7" fill="#ff5f57"/>
            <circle cx="22" cy="0" r="7" fill="#febc2e"/>
            <circle cx="44" cy="0" r="7" fill="#28c840"/>
            </g>
        
    <g transform="translate(9, 41)" clip-path="url(#terminal-779815062-clip-terminal)">
    <rect fill="#242f38" x="0" y="1.5" width="12.2" height="24.65" shape-rendering="crispEdges"/><rect fill="#242f38" x="12.2" y="1.5" width="12.2" height="24.65" shape-rendering="crispEdges"/><rect fill="#242f38" x="24.4" y="1.5" width="61" height="24.65" shape-rendering="crispEdges"/><rect fill="#242f38" x="85.4" y="1.5" width="12.2" height="24.65" shape-rendering="crispEdges"/><rect fill="#242f38" x="97.6" y="1.5" width="695.4" height="24.65" shape-rendering="crispEdges"/><rect fill="#242f38" x="793" y="1.5" width="85.4" height="24.65" shape-rendering="crispEdges"/><rect fill="#242f38" x="878.4" y="1.5" width="695.4" height="24.65" shape-rendering="crispEdges"/><rect fill="#242f38" x="1573.8" y="1.5" width="12.2" height="24.65" shape-rendering="crispEdges"/><rect fill="#242f38" x="1586" y="1.5" width="0" height="24.65" shape-rendering="crispEdges"/><rect fill="#242f38" x="1586" y="1.5" width="97.6" height="24.65" shape-rendering="crispEdges"/><rect fill="#242f38" x="1683.6" y="1.5" width="12.2" height="24.65" shape-rendering="crispEdges"/><rect fill="#121212" x="0" y="25.9" width="12.2" height="24.65" shape-rendering="crispEdges"/><rect fill="#121212" x="12.2" y="25.9" width="61" height="24.65" shape-rendering="crispEdges"/><rect fill="#121212" x="73.2" y="25.9" width="12.2" height="24.65" shape-rendering="crispEdges"/><rect fill="#121212" x="85.4" y="25.9" width="12.2" height="24.65" shape-rendering="crispEdges"/><rect fill="#121212" x="97.6" y="25.9" width="85.4" height="24.65" shape-rendering="crispEdges"/><rect fill="#121212" x="183" y="25.9" width="12.2" height="24.65" shape-rendering="crispEdges"/><rect fill="#121212" x="195.2" y="25.9" width="12.2" height="24.65" shape-rendering="crispEdges"/><rect fill="#121212" x="207.4" y="25.9" width="97.6" height="24.65" shape-rendering="crispEdges"/><rect fill="#121212" x="305" y="25.9" width="12.2" height="24.65" shape-rendering="crispEdges"/><rect fill="#121212" x="317.2" y="25.9" width="12.2" height="24.65" shape-rendering="crispEdges"/><rect fill="#121212" x="329.4" y="25.9" width="48.8" height="24.65" shape-rendering="crispEdges"/><rect fill="#121212" x="378.2" y="25.9" width="12.2" height="24.65" shape-rendering="crispEdges"/><rect fill="#121212" x="390.4" y="25.9" width="12.2" height="24.65" shape-rendering="crispEdges"/><rect fill="#121212" x="402.6" y="25.9" width="85.4" height="24.65" shape-rendering="crispEdges"/><rect fill="#121212" x="488" y="25.9" width="12.2" height="24.65" shape-rendering="crispEdges"/><rect fill="#121212" x="500.2" y="25.9" width="12.2" height="24.65" shape-rendering="crispEdges"/><rect fill="#121212" x="512.4" y="25.9" width="48.8" height="24.65" shape-rendering="crispEdges"/><rect fill="#121212" x="561.2" y="25.9" width="12.2" height="24.65" shape-rendering="crispEdges"/><rect fill="#121212" x="573.4" y="25.9" width="12.2" height="24.65" shape-rendering="crispEdges"/><rect fill="#121212" x="585.6" y="25.9" width="36.6" height="24.65" shape-rendering="crispEdges"/><rect fill="#121212" x="622.2" y="25.9" width="12.2" height="24.65" shape-rendering="crispEdges"/><rect fill="#121212" x="634.4" y="25.9" width="12.2" height="24.65" shape-rendering="crispEdges"/><rect fill="#121212" x="646.6" y="25.9" width="73.2" height="24.65" shape-rendering="crispEdges"/><rect fill="#121212" x="719.8" y="25.9" width="12.2" height="24.65" shape-rendering="crispEdges"/><rect fill="#121212" x="732" y="25.9" width="12.2" height="24.65" shape-rendering="crispEdges"/><rect fill="#121212" x="744.2" y="25.9" width="61" height="24.65" shape-rendering="crispEdges"/><rect fill="#121212" x="805.2" y="25.9" width="12.2" height="24.65" shape-rendering="crispEdges"/><rect fill="#121212" x="817.4" y="25.9" width="12.2" height="24.65" shape-rendering="crispEdges"/><rect fill="#121212" x="829.6" y="25.9" width="73.2" height="24.65" shape-rendering="crispEdges"/><rect fill="#121212" x="902.8" y="25.9" width="12.2" height="24.65" shape-rendering="crispEdges"/><rect fill="#121212" x="915" y="25.9" width="12.2" height="24.65" shape-rendering="crispEdges"/><rect fill="#121212" x="927.2" y="25.9" width="97.6" height="24.65" shape-rendering="crispEdges"/><rect fill="#121212" x="1024.8" y="25.9" width="12.2" height="24.65" shape-rendering="crispEdges"/><rect fill="#121212" x="1037" y="25.9" width="12.2" height="24.65" shape-rendering="crispEdges"/><rect fill="#121212" x="1049.2" y="25.9" width="61" height="24.65" shape-rendering="crispEdges"/><rect fill="#121212" x="1110.2" y="25.9" width="12.2" height="24.65" shape-rendering="crispEdges"/><rect fill="#121212" x="1122.4" y="25.9" width="12.2" height="24.65" shape-rendering="crispEdges"/><rect fill="#121212" x="1134.6" y="25.9" width="48.8" height="24.65" shape-rendering="crispEdges"/><rect fill="#121212" x="1183.4" y="25.9" width="12.2" height="24.65" shape-rendering="crispEdges"/><rect fill="#121212" x="1195.6" y="25.9" width="12.2" height="24.65" shape-rendering="crispEdges"/><rect fill="#121212" x="1207.8" y="25.9" width="61" height="24.65" shape-rendering="crispEdges"/><rect fill="#121212" x="1268.8" y="25.9" width="12.2" height="24.65" shape-rendering="crispEdges"/><rect fill="#121212" x="1281" y="25.9" width="244" height="24.65" shape-rendering="crispEdges"/><rect fill="#121212" x="1525" y="25.9" width="12.2" height="24.65" shape-rendering="crispEdges"/><rect fill="#121212" x="1537.2" y="25.9" width="61" height="24.65" shape-rendering="crispEdges"/><rect fill="#121212" x="1598.2" y="25.9" width="12.2" height="24.65" shape-rendering="crispEdges"/><rect fill="#121212" x="1610.4" y="25.9" width="12.2" height="24.65" shape-rendering="crispEdges"/><rect fill="#121212" x="1622.6" y="25.9" width="61" height="24.65" shape-rendering="crispEdges"/><rect fill="#121212" x="1683.6" y="25.9" width="12.2" height="24.65" shape-rendering="crispEdges"/><rect fill="#121212" x="0" y="50.3" width="536.8" height="24.65" shape-rendering="crispEdges"/><rect fill="#121212" x="536.8" y="50.3" width="12.2" height="24.65" shape-rendering="crispEdges"/><rect fill="#121212" x="549" y="50.3" width="36.6" height="24.65" shape-rendering="crispEdges"/><rect fill="#121212" x="585.6" y="50.3" width="12.2" height="24.65" shape-rendering="crispEdges"/><rect fill="#121212" x="597.8" y="50.3" width="1098" height="24.65" shape-rendering="crispEdges"/><rect fill="#1e1e1e" x="0" y="74.7" width="12.2" height="24.65" shape-rendering="crispEdges"/><rect fill="#1e1e1e" x="12.2" y="74.7" width="195.2" height="24.65" shape-rendering="crispEdges"/><rect fill="#0178d4" x="207.4" y="74.7" width="12.2" height="24.65" shape-rendering="crispEdges"/><rect fill="#272727" x="219.6" y="74.7" width="1464" height="24.65" shape-rendering="crispEdges"/><rect fill="#1e1e1e" x="1683.6" y="74.7" width="12.2" height="24.65" shape-rendering="crispEdges"/><rect fill="#1e1e1e" x="0" y="99.1" width="12.2" height="24.65" shape-rendering="crispEdges"/><rect fill="#1e1e1e" x="12.2" y="99.1" width="195.2" height="24.65" shape-rendering="crispEdges"/><rect fill="#0178d4" x="207.4" y="99.1" width="12.2" height="24.65" shape-rendering="crispEdges"/><rect fill="#272727" x="219.6" y="99.1" width="24.4" height="24.65" shape-rendering="crispEdges"/><rect fill="#2d4e74" x="244" y="99.1" width="414.8" height="24.65" shape-rendering="crispEdges"/><rect fill="#e0e0e0" x="658.8" y="99.1" width="12.2" height="24.65" shape-rendering="crispEdges"/><rect fill="#272727" x="671" y="99.1" width="1012.6" height="24.65" shape-rendering="crispEdges"/><rect fill="#1e1e1e" x="1683.6" y="99.1" width="12.2" height="24.65" shape-rendering="crispEdges"/><rect fill="#1e1e1e" x="0" y="123.5" width="1695.8" height="24.65" shape-rendering="crispEdges"/><rect fill="#1e1e1e" x="0" y="147.9" width="12.2" height="24.65" shape-rendering="crispEdges"/><rect fill="#1e1e1e" x="12.2" y="147.9" width="97.6" height="24.65" shape-rendering="crispEdges"/><rect fill="#1e1e1e" x="109.8" y="147.9" width="48.8" height="24.65" shape-rendering="crispEdges"/><rect fill="#1e1e1e" x="158.6" y="147.9" width="158.6" height="24.65" shape-rendering="crispEdges"/><rect fill="#1e1e1e" x="317.2" y="147.9" width="85.4" height="24.65" shape-rendering="crispEdges"/><rect fill="#1e1e1e" x="402.6" y="147.9" width="170.8" height="24.65" shape-rendering="crispEdges"/><rect fill="#1e1e1e" x="573.4" y="147.9" width="12.2" height="24.65" shape-rendering="crispEdges"/><rect fill="#1e1e1e" x="585.6" y="147.9" width="1098" height="24.65" shape-rendering="crispEdges"/><rect fill="#1e1e1e" x="1683.6" y="147.9" width="12.2" height="24.65" shape-rendering="crispEdges"/><rect fill="#1e1e1e" x="0" y="172.3" width="12.2" height="24.65" shape-rendering="crispEdges"/><rect fill="#1e1e1e" x="12.2" y="172.3" width="1671.4" height="24.65" shape-rendering="crispEdges"/><rect fill="#1e1e1e" x="1683.6" y="172.3" width="12.2" height="24.65" shape-rendering="crispEdges"/><rect fill="#1e1e1e" x="0" y="196.7" width="1695.8" height="24.65" shape-rendering="crispEdges"/><rect fill="#1e1e1e" x="0" y="221.1" width="24.4" height="24.65" shape-rendering="crispEdges"/><rect fill="#153854" x="24.4" y="221.1" width="85.4" height="24.65" shape-rendering="crispEdges"/><rect fill="#1e1e1e" x="109.8" y="221.1" width="463.6" height="24.65" shape-rendering="crispEdges"/><rect fill="#1e1e1e" x="573.4" y="221.1" width="12.2" height="24.65" shape-rendering="crispEdges"/><rect fill="#1b1b1b" x="585.6" y="221.1" width="1085.8" height="24.65" shape-rendering="crispEdges"/><rect fill="#000000" x="1671.4" y="221.1" width="24.4" height="24.65" shape-rendering="crispEdges"/><rect fill="#1e1e1e" x="0" y="245.5" width="573.4" height="24.65" shape-rendering="crispEdges"/><rect fill="#1e1e1e" x="573.4" y="245.5" width="12.2" height="24.65" shape-rendering="crispEdges"/><rect fill="#1b1b1b" x="585.6" y="245.5" width="1085.8" height="24.65" shape-rendering="crispEdges"/><rect fill="#000000" x="1671.4" y="245.5" width="24.4" height="24.65" shape-rendering="crispEdges"/><rect fill="#1e1e1e" x="0" y="269.9" width="573.4" height="24.65" shape-rendering="crispEdges"/><rect fill="#1e1e1e" x="573.4" y="269.9" width="12.2" height="24.65" shape-rendering="crispEdges"/><rect fill="#1b1b1b" x="585.6" y="269.9" width="1085.8" height="24.65" shape-rendering="crispEdges"/><rect fill="#000000" x="1671.4" y="269.9" width="24.4" height="24.65" shape-rendering="crispEdges"/><rect fill="#1e1e1e" x="0" y="294.3" width="573.4" height="24.65" shape-rendering="crispEdges"/><rect fill="#1e1e1e" x="573.4" y="294.3" width="12.2" height="24.65" shape-rendering="crispEdges"/><rect fill="#1b1b1b" x="585.6" y="294.3" width="1085.8" height="24.65" shape-rendering="crispEdges"/><rect fill="#000000" x="1671.4" y="294.3" width="24.4" height="24.65" shape-rendering="crispEdges"/><rect fill="#1e1e1e" x="0" y="318.7" width="573.4" height="24.65" shape-rendering="crispEdges"/><rect fill="#1e1e1e" x="573.4" y="318.7" width="12.2" height="24.65" shape-rendering="crispEdges"/><rect fill="#1b1b1b" x="585.6" y="318.7" width="1085.8" height="24.65" shape-rendering="crispEdges"/><rect fill="#000000" x="1671.4" y="318.7" width="24.4" height="24.65" shape-rendering="crispEdges"/><rect fill="#1e1e1e" x="0" y="343.1" width="573.4" height="24.65" shape-rendering="crispEdges"/><rect fill="#1e1e1e" x="573.4" y="343.1" width="12.2" height="24.65" shape-rendering="crispEdges"/><rect fill="#1b1b1b" x="585.6" y="343.1" width="1085.8" height="24.65" shape-rendering="crispEdges"/><rect fill="#000000" x="1671.4" y="343.1" width="24.4" height="24.65" shape-rendering="crispEdges"/><rect fill="#1e1e1e" x="0" y="367.5" width="573.4" height="24.65" shape-rendering="crispEdges"/><rect fill="#1e1e1e" x="573.4" y="367.5" width="12.2" height="24.65" shape-rendering="crispEdges"/><rect fill="#1b1b1b" x="585.6" y="367.5" width="1085.8" height="24.65" shape-rendering="crispEdges"/><rect fill="#000000" x="1671.4" y="367.5" width="24.4" height="24.65" shape-rendering="crispEdges"/><rect fill="#1e1e1e" x="0" y="391.9" width="573.4" height="24.65" shape-rendering="crispEdges"/><rect fill="#1e1e1e" x="573.4" y="391.9" width="12.2" height="24.65" shape-rendering="crispEdges"/><rect fill="#1b1b1b" x="585.6" y="391.9" width="1085.8" height="24.65" shape-rendering="crispEdges"/><rect fill="#000000" x="1671.4" y="391.9" width="24.4" height="24.65" shape-rendering="crispEdges"/><rect fill="#1e1e1e" x="0" y="416.3" width="573.4" height="24.65" shape-rendering="crispEdges"/><rect fill="#1e1e1e" x="573.4" y="416.3" width="12.2" height="24.65" shape-rendering="crispEdges"/><rect fill="#1b1b1b" x="585.6" y="416.3" width="1085.8" height="24.65" shape-rendering="crispEdges"/><rect fill="#000000" x="1671.4" y="416.3" width="24.4" height="24.65" shape-rendering="crispEdges"/><rect fill="#1e1e1e" x="0" y="440.7" width="573.4" height="24.65" shape-rendering="crispEdges"/><rect fill="#1e1e1e" x="573.4" y="440.7" width="12.2" height="24.65" shape-rendering="crispEdges"/><rect fill="#1b1b1b" x="585.6" y="440.7" width="1085.8" height="24.65" shape-rendering="crispEdges"/><rect fill="#000000" x="1671.4" y="440.7" width="24.4" height="24.65" shape-rendering="crispEdges"/><rect fill="#1e1e1e" x="0" y="465.1" width="573.4" height="24.65" shape-rendering="crispEdges"/><rect fill="#1e1e1e" x="573.4" y="465.1" width="12.2" height="24.65" shape-rendering="crispEdges"/><rect fill="#1b1b1b" x="585.6" y="465.1" width="1085.8" height="24.65" shape-rendering="crispEdges"/><rect fill="#000000" x="1671.4" y="465.1" width="24.4" height="24.65" shape-rendering="crispEdges"/><rect fill="#1e1e1e" x="0" y="489.5" width="573.4" height="24.65" shape-rendering="crispEdges"/><rect fill="#1e1e1e" x="573.4" y="489.5" width="12.2" height="24.65" shape-rendering="crispEdges"/><rect fill="#1b1b1b" x="585.6" y="489.5" width="1085.8" height="24.65" shape-rendering="crispEdges"/><rect fill="#000000" x="1671.4" y="489.5" width="24.4" height="24.65" shape-rendering="crispEdges"/><rect fill="#1e1e1e" x="0" y="513.9" width="573.4" height="24.65" shape-rendering="crispEdges"/><rect fill="#1e1e1e" x="573.4" y="513.9" width="12.2" height="24.65" shape-rendering="crispEdges"/><rect fill="#1b1b1b" x="585.6" y="513.9" width="1085.8" height="24.65" shape-rendering="crispEdges"/><rect fill="#000000" x="1671.4" y="513.9" width="24.4" height="24.65" shape-rendering="crispEdges"/><rect fill="#1e1e1e" x="0" y="538.3" width="573.4" height="24.65" shape-rendering="crispEdges"/><rect fill="#1e1e1e" x="573.4" y="538.3" width="12.2" height="24.65" shape-rendering="crispEdges"/><rect fill="#1b1b1b" x="585.6" y="538.3" width="1085.8" height="24.65" shape-rendering="crispEdges"/><rect fill="#000000" x="1671.4" y="538.3" width="24.4" height="24.65" shape-rendering="crispEdges"/><rect fill="#1e1e1e" x="0" y="562.7" width="573.4" height="24.65" shape-rendering="crispEdges"/><rect fill="#1e1e1e" x="573.4" y="562.7" width="12.2" height="24.65" shape-rendering="crispEdges"/><rect fill="#1b1b1b" x="585.6" y="562.7" width="1085.8" height="24.65" shape-rendering="crispEdges"/><rect fill="#000000" x="1671.4" y="562.7" width="24.4" height="24.65" shape-rendering="crispEdges"/><rect fill="#1e1e1e" x="0" y="587.1" width="573.4" height="24.65" shape-rendering="crispEdges"/><rect fill="#1e1e1e" x="573.4" y="587.1" width="12.2" height="24.65" shape-rendering="crispEdges"/><rect fill="#1b1b1b" x="585.6" y="587.1" width="1085.8" height="24.65" shape-rendering="crispEdges"/><rect fill="#000000" x="1671.4" y="587.1" width="24.4" height="24.65" shape-rendering="crispEdges"/><rect fill="#1e1e1e" x="0" y="611.5" width="573.4" height="24.65" shape-rendering="crispEdges"/><rect fill="#1e1e1e" x="573.4" y="611.5" width="12.2" height="24.65" shape-rendering="crispEdges"/><rect fill="#1b1b1b" x="585.6" y="611.5" width="1085.8" height="24.65" shape-rendering="crispEdges"/><rect fill="#000000" x="1671.4" y="611.5" width="24.4" height="24.65" shape-rendering="crispEdges"/><rect fill="#1e1e1e" x="0" y="635.9" width="573.4" height="24.65" shape-rendering="crispEdges"/><rect fill="#1e1e1e" x="573.4" y="635.9" width="12.2" height="24.65" shape-rendering="crispEdges"/><rect fill="#1b1b1b" x="585.6" y="635.9" width="1110.2" height="24.65" shape-rendering="crispEdges"/><rect fill="#1e1e1e" x="0" y="660.3" width="573.4" height="24.65" shape-rendering="crispEdges"/><rect fill="#1e1e1e" x="573.4" y="660.3" width="12.2" height="24.65" shape-rendering="crispEdges"/><rect fill="#121212" x="585.6" y="660.3" width="1110.2" height="24.65" shape-rendering="crispEdges"/><rect fill="#1e1e1e" x="0" y="684.7" width="573.4" height="24.65" shape-rendering="crispEdges"/><rect fill="#1e1e1e" x="573.4" y="684.7" width="12.2" height="24.65" shape-rendering="crispEdges"/><rect fill="#121212" x="585.6" y="684.7" width="12.2" height="24.65" shape-rendering="crispEdges"/><rect fill="#1e1e1e" x="597.8" y="684.7" width="195.2" height="24.65" shape-rendering="crispEdges"/><rect fill="#171717" x="793" y="684.7" width="195.2" height="24.65" shape-rendering="crispEdges"/><rect fill="#1e1e1e" x="988.2" y="684.7" width="195.2" height="24.65" shape-rendering="crispEdges"/><rect fill="#1e1e1e" x="1183.4" y="684.7" width="195.2" height="24.65" shape-rendering="crispEdges"/><rect fill="#855a1d" x="1378.6" y="684.7" width="195.2" height="24.65" shape-rendering="crispEdges"/><rect fill="#121212" x="1573.8" y="684.7" width="109.8" height="24.65" shape-rendering="crispEdges"/><rect fill="#121212" x="1683.6" y="684.7" width="12.2" height="24.65" shape-rendering="crispEdges"/><rect fill="#1e1e1e" x="0" y="709.1" width="573.4" height="24.65" shape-rendering="crispEdges"/><rect fill="#1e1e1e" x="573.4" y="709.1" width="12.2" height="24.65" shape-rendering="crispEdges"/><rect fill="#121212" x="585.6" y="709.1" width="12.2" height="24.65" shape-rendering="crispEdges"/><rect fill="#1e1e1e" x="597.8" y="709.1" width="24.4" height="24.65" shape-rendering="crispEdges"/><rect fill="#1e1e1e" x="622.2" y="709.1" width="134.2" height="24.65" shape-rendering="crispEdges"/><rect fill="#1e1e1e" x="756.4" y="709.1" width="36.6" height="24.65" shape-rendering="crispEdges"/><rect fill="#171717" x="793" y="709.1" width="195.2" height="24.65" shape-rendering="crispEdges"/><rect fill="#1e1e1e" x="988.2" y="709.1" width="61" height="24.65" shape-rendering="crispEdges"/><rect fill="#1e1e1e" x="1049.2" y="709.1" width="73.2" height="24.65" shape-rendering="crispEdges"/><rect fill="#1e1e1e" x="1122.4" y="709.1" width="61" height="24.65" shape-rendering="crispEdges"/><rect fill="#1e1e1e" x="1183.4" y="709.1" width="61" height="24.65" shape-rendering="crispEdges"/><rect fill="#1e1e1e" x="1244.4" y="709.1" width="73.2" height="24.65" shape-rendering="crispEdges"/><rect fill="#1e1e1e" x="1317.6" y="709.1" width="61" height="24.65" shape-rendering="crispEdges"/><rect fill="#855a1d" x="1378.6" y="709.1" width="48.8" height="24.65" shape-rendering="crispEdges"/><rect fill="#855a1d" x="1427.4" y="709.1" width="97.6" height="24.65" shape-rendering="crispEdges"/><rect fill="#855a1d" x="1525" y="709.1" width="48.8" height="24.65" shape-rendering="crispEdges"/><rect fill="#121212" x="1573.8" y="709.1" width="109.8" height="24.65" shape-rendering="crispEdges"/><rect fill="#121212" x="1683.6" y="709.1" width="12.2" height="24.65" shape-rendering="crispEdges"/><rect fill="#1e1e1e" x="0" y="733.5" width="573.4" height="24.65" shape-rendering="crispEdges"/><rect fill="#1e1e1e" x="573.4" y="733.5" width="12.2" height="24.65" shape-rendering="crispEdges"/><rect fill="#121212" x="585.6" y="733.5" width="12.2" height="24.65" shape-rendering="crispEdges"/><rect fill="#1e1e1e" x="597.8" y="733.5" width="195.2" height="24.65" shape-rendering="crispEdges"/><rect fill="#171717" x="793" y="733.5" width="195.2" height="24.65" shape-rendering="crispEdges"/><rect fill="#1e1e1e" x="988.2" y="733.5" width="195.2" height="24.65" shape-rendering="crispEdges"/><rect fill="#1e1e1e" x="1183.4" y="733.5" width="195.2" height="24.65" shape-rendering="crispEdges"/><rect fill="#855a1d" x="1378.6" y="733.5" width="195.2" height="24.65" shape-rendering="crispEdges"/><rect fill="#121212" x="1573.8" y="733.5" width="109.8" height="24.65" shape-rendering="crispEdges"/><rect fill="#121212" x="1683.6" y="733.5" width="12.2" height="24.65" shape-rendering="crispEdges"/><rect fill="#1e1e1e" x="0" y="757.9" width="573.4" height="24.65" shape-rendering="crispEdges"/><rect fill="#1e1e1e" x="573.4" y="757.9" width="12.2" height="24.65" shape-rendering="crispEdges"/><rect fill="#121212" x="585.6" y="757.9" width="12.2" height="24.65" shape-rendering="crispEdges"/><rect fill="#191919" x="597.8" y="757.9" width="12.2" height="24.65" shape-rendering="crispEdges"/><rect fill="#1e1e1e" x="610" y="757.9" width="866.2" height="24.65" shape-rendering="crispEdges"/><rect fill="#121212" x="1476.2" y="757.9" width="12.2" height="24.65" shape-rendering="crispEdges"/><rect fill="#0178d4" x="1488.4" y="757.9" width="195.2" height="24.65" shape-rendering="crispEdges"/><rect fill="#121212" x="1683.6" y="757.9" width="12.2" height="24.65" shape-rendering="crispEdges"/><rect fill="#1e1e1e" x="0" y="782.3" width="573.4" height="24.65" shape-rendering="crispEdges"/><rect fill="#1e1e1e" x="573.4" y="782.3" width="12.2" height="24.65" shape-rendering="crispEdges"/><rect fill="#121212" x="585.6" y="782.3" width="12.2" height="24.65" shape-rendering="crispEdges"/><rect fill="#191919" x="597.8" y="782.3" width="12.2" height="24.65" shape-rendering="crispEdges"/><rect fill="#1e1e1e" x="610" y="782.3" width="24.4" height="24.65" shape-rendering="crispEdges"/><rect fill="#1e1e1e" x="634.4" y="782.3" width="207.4" height="24.65" shape-rendering="crispEdges"/><rect fill="#1e1e1e" x="841.8" y="782.3" width="610" height="24.65" shape-rendering="crispEdges"/><rect fill="#1e1e1e" x="1451.8" y="782.3" width="24.4" height="24.65" shape-rendering="crispEdges"/><rect fill="#121212" x="1476.2" y="782.3" width="12.2" height="24.65" shape-rendering="crispEdges"/><rect fill="#0178d4" x="1488.4" y="782.3" width="48.8" height="24.65" shape-rendering="crispEdges"/><rect fill="#0178d4" x="1537.2" y="782.3" width="97.6" height="24.65" shape-rendering="crispEdges"/><rect fill="#0178d4" x="1634.8" y="782.3" width="48.8" height="24.65" shape-rendering="crispEdges"/><rect fill="#121212" x="1683.6" y="782.3" width="12.2" height="24.65" shape-rendering="crispEdges"/><rect fill="#1e1e1e" x="0" y="806.7" width="573.4" height="24.65" shape-rendering="crispEdges"/><rect fill="#1e1e1e" x="573.4" y="806.7" width="12.2" height="24.65" shape-rendering="crispEdges"/><rect fill="#121212" x="585.6" y="806.7" width="12.2" height="24.65" shape-rendering="crispEdges"/><rect fill="#191919" x="597.8" y="806.7" width="12.2" height="24.65" shape-rendering="crispEdges"/><rect fill="#1e1e1e" x="610" y="806.7" width="866.2" height="24.65" shape-rendering="crispEdges"/><rect fill="#121212" x="1476.2" y="806.7" width="12.2" height="24.65" shape-rendering="crispEdges"/><rect fill="#0178d4" x="1488.4" y="806.7" width="195.2" height="24.65" shape-rendering="crispEdges"/><rect fill="#121212" x="1683.6" y="806.7" width="12.2" height="24.65" shape-rendering="crispEdges"/><rect fill="#1e1e1e" x="0" y="831.1" width="573.4" height="24.65" shape-rendering="crispEdges"/><rect fill="#1e1e1e" x="573.4" y="831.1" width="12.2" height="24.65" shape-rendering="crispEdges"/><rect fill="#121212" x="585.6" y="831.1" width="1110.2" height="24.65" shape-rendering="crispEdges"/><rect fill="#242f38" x="0" y="855.5" width="1549.4" height="24.65" shape-rendering="crispEdges"/><rect fill="#242f38" x="1549.4" y="855.5" width="12.2" height="24.65" shape-rendering="crispEdges"/><rect fill="#242f38" x="1561.6" y="855.5" width="24.4" height="24.65" shape-rendering="crispEdges"/><rect fill="#242f38" x="1586" y="855.5" width="97.6" height="24.65" shape-rendering="crispEdges"/><rect fill="#242f38" x="1683.6" y="855.5" width="12.2" height="24.65" shape-rendering="crispEdges"/>
    <g class="terminal-779815062-matrix">
    <text class="terminal-779815062-r2" x="12.2" y="20" textLength="12.2" clip-path="url(#terminal-779815062-line-0)">⭘</text><text class="terminal-779815062-r2" x="793" y="20" textLength="85.4" clip-path="url(#terminal-779815062-line-0)">EtuiApp</text><text class="terminal-779815062-r1" x="1695.8" y="20" textLength="12.2" clip-path="url(#terminal-779815062-line-0)">
</text><text class="terminal-779815062-r3" x="12.2" y="44.4" textLength="61" clip-path="url(#terminal-779815062-line-1)">Files</text><text class="terminal-779815062-r3" x="97.6" y="44.4" textLength="85.4" clip-path="url(#terminal-779815062-line-1)">Console</text><text class="terminal-779815062-r3" x="207.4" y="44.4" textLength="97.6" clip-path="url(#terminal-779815062-line-1)">Settings</text><text class="terminal-779815062-r3" x="329.4" y="44.4" textLength="48.8" clip-path="url(#terminal-779815062-line-1)">Venv</text><text class="terminal-779815062-r3" x="402.6" y="44.4" textLength="85.4" clip-path="url(#terminal-779815062-line-1)">Plugins</text><text class="terminal-779815062-r3" x="512.4" y="44.4" textLength="48.8" clip-path="url(#terminal-779815062-line-1)">Help</text><text class="terminal-779815062-r2" x="585.6" y="44.4" textLength="36.6" clip-path="url(#terminal-779815062-line-1)">Git</text><text class="terminal-779815062-r3" x="646.6" y="44.4" textLength="73.2" clip-path="url(#terminal-779815062-line-1)">GitHub</text><text class="terminal-779815062-r3" x="744.2" y="44.4" textLength="61" clip-path="url(#terminal-779815062-line-1)">CMake</text><text class="terminal-779815062-r3" x="829.6" y="44.4" textLength="73.2" clip-path="url(#terminal-779815062-line-1)">Serial</text><text class="terminal-779815062-r3" x="927.2" y="44.4" textLength="97.6" clip-path="url(#terminal-779815062-line-1)">Workflow</text><text class="terminal-779815062-r3" x="1049.2" y="44.4" textLength="61" clip-path="url(#terminal-779815062-line-1)">Probe</text><text class="terminal-779815062-r3" x="1134.6" y="44.4" textLength="48.8" clip-path="url(#terminal-779815062-line-1)">LLDB</text><text class="terminal-779815062-r3" x="1207.8" y="44.4" textLength="61" clip-path="url(#terminal-779815062-line-1)">Tools</text><text class="terminal-779815062-r3" x="1537.2" y="44.4" textLength="61" clip-path="url(#terminal-779815062-line-1)">Theme</text><text class="terminal-779815062-r3" x="1622.6" y="44.4" textLength="61" clip-path="url(#terminal-779815062-line-1)">About</text><text class="terminal-779815062-r1" x="1695.8" y="44.4" textLength="12.2" clip-path="url(#terminal-779815062-line-1)">
</text><text class="terminal-779815062-r4" x="0" y="68.8" textLength="536.8" clip-path="url(#terminal-779815062-line-2)">━━━━━━━━━━━━━━━━━━━━━━━━━━━━━━━━━━━━━━━━━━━━</text><text class="terminal-779815062-r4" x="536.8" y="68.8" textLength="12.2" clip-path="url(#terminal-779815062-line-2)">╸</text><text class="terminal-779815062-r5" x="549" y="68.8" textLength="36.6" clip-path="url(#terminal-779815062-line-2)">━━━</text><text class="terminal-779815062-r5" x="585.6" y="68.8" textLength="12.2" clip-path="url(#terminal-779815062-line-2)">╸</text><text class="terminal-779815062-r4" x="597.8" y="68.8" textLength="1098" clip-path="url(#terminal-779815062-line-2)">━━━━━━━━━━━━━━━━━━━━━━━━━━━━━━━━━━━━━━━━━━━━━━━━━━━━━━━━━━━━━━━━━━━━━━━━━━━━━━━━━━━━━━━━━━</text><text class="terminal-779815062-r1" x="1695.8" y="68.8" textLength="12.2" clip-path="url(#terminal-779815062-line-2)">
</text><text class="terminal-779815062-r2" x="12.2" y="93.2" textLength="195.2" clip-path="url(#terminal-779815062-line-3)">Git&#160;Repository:&#160;</text><text class="terminal-779815062-r6" x="207.4" y="93.2" textLength="12.2" clip-path="url(#terminal-779815062-line-3)">▊</text><text class="terminal-779815062-r5" x="219.6" y="93.2" textLength="1464" clip-path="url(#terminal-779815062-line-3)">▔▔▔▔▔▔▔▔▔▔▔▔▔▔▔▔▔▔▔▔▔▔▔▔▔▔▔▔▔▔▔▔▔▔▔▔▔▔▔▔▔▔▔▔▔▔▔▔▔▔▔▔▔▔▔▔▔▔▔▔▔▔▔▔▔▔▔▔▔▔▔▔▔▔▔▔▔▔▔▔▔▔▔▔▔▔▔▔▔▔▔▔▔▔▔▔▔▔▔▔▔▔▔▔▔▔▔▔▔▔▔▔▔▔▔▔▔▔▔▔</text><text class="terminal-779815062-r1" x="1695.8" y="93.2" textLength="12.2" clip-path="url(#terminal-779815062-line-3)">
</text><text class="terminal-779815062-r6" x="207.4" y="117.6" textLength="12.2" clip-path="url(#terminal-779815062-line-4)">▊</text><text class="terminal-779815062-r2" x="244" y="117.6" textLength="414.8" clip-path="url(#terminal-779815062-line-4)">/home/pawel/src/32bitmicroLLC/MMCU</text><text class="terminal-779815062-r1" x="1695.8" y="117.6" textLength="12.2" clip-path="url(#terminal-779815062-line-4)">
</text><text class="terminal-779815062-r8" x="0" y="142" textLength="1695.8" clip-path="url(#terminal-779815062-line-5)">───────────────────────────────────────────────────────────────────────────────────────────────────────────────────────────────────────────</text><text class="terminal-779815062-r1" x="1695.8" y="142" textLength="12.2" clip-path="url(#terminal-779815062-line-5)">
</text><text class="terminal-779815062-r2" x="12.2" y="166.4" textLength="97.6" clip-path="url(#terminal-779815062-line-6)">Branch:&#160;</text><text class="terminal-779815062-r9" x="109.8" y="166.4" textLength="48.8" clip-path="url(#terminal-779815062-line-6)">main</text><text class="terminal-779815062-r2" x="158.6" y="166.4" textLength="158.6" clip-path="url(#terminal-779815062-line-6)">&#160;&#160;|&#160;&#160;Commit:&#160;</text><text class="terminal-779815062-r10" x="317.2" y="166.4" textLength="85.4" clip-path="url(#terminal-779815062-line-6)">9066ab9</text><text class="terminal-779815062-r2" x="402.6" y="166.4" textLength="170.8" clip-path="url(#terminal-779815062-line-6)">&#160;&#160;|&#160;&#160;Changes:&#160;</text><text class="terminal-779815062-r11" x="573.4" y="166.4" textLength="12.2" clip-path="url(#terminal-779815062-line-6)">0</text><text class="terminal-779815062-r1" x="1695.8" y="166.4" textLength="12.2" clip-path="url(#terminal-779815062-line-6)">
</text><text class="terminal-779815062-r1" x="1695.8" y="190.8" textLength="12.2" clip-path="url(#terminal-779815062-line-7)">
</text><text class="terminal-779815062-r8" x="0" y="215.2" textLength="1695.8" clip-path="url(#terminal-779815062-line-8)">───────────────────────────────────────────────────────────────────────────────────────────────────────────────────────────────────────────</text><text class="terminal-779815062-r1" x="1695.8" y="215.2" textLength="12.2" clip-path="url(#terminal-779815062-line-8)">
</text><text class="terminal-779815062-r2" x="0" y="239.6" textLength="24.4" clip-path="url(#terminal-779815062-line-9)">▶&#160;</text><text class="terminal-779815062-r2" x="24.4" y="239.6" textLength="85.4" clip-path="url(#terminal-779815062-line-9)">Changes</text><text class="terminal-779815062-r8" x="573.4" y="239.6" textLength="12.2" clip-path="url(#terminal-779815062-line-9)">│</text><text class="terminal-779815062-r1" x="1695.8" y="239.6" textLength="12.2" clip-path="url(#terminal-779815062-line-9)">
</text><text class="terminal-779815062-r8" x="573.4" y="264" textLength="12.2" clip-path="url(#terminal-779815062-line-10)">│</text><text class="terminal-779815062-r1" x="1695.8" y="264" textLength="12.2" clip-path="url(#terminal-779815062-line-10)">
</text><text class="terminal-779815062-r8" x="573.4" y="288.4" textLength="12.2" clip-path="url(#terminal-779815062-line-11)">│</text><text class="terminal-779815062-r1" x="1695.8" y="288.4" textLength="12.2" clip-path="url(#terminal-779815062-line-11)">
</text><text class="terminal-779815062-r8" x="573.4" y="312.8" textLength="12.2" clip-path="url(#terminal-779815062-line-12)">│</text><text class="terminal-779815062-r1" x="1695.8" y="312.8" textLength="12.2" clip-path="url(#terminal-779815062-line-12)">
</text><text class="terminal-779815062-r8" x="573.4" y="337.2" textLength="12.2" clip-path="url(#terminal-779815062-line-13)">│</text><text class="terminal-779815062-r1" x="1695.8" y="337.2" textLength="12.2" clip-path="url(#terminal-779815062-line-13)">
</text><text class="terminal-779815062-r8" x="573.4" y="361.6" textLength="12.2" clip-path="url(#terminal-779815062-line-14)">│</text><text class="terminal-779815062-r1" x="1695.8" y="361.6" textLength="12.2" clip-path="url(#terminal-779815062-line-14)">
</text><text class="terminal-779815062-r8" x="573.4" y="386" textLength="12.2" clip-path="url(#terminal-779815062-line-15)">│</text><text class="terminal-779815062-r1" x="1695.8" y="386" textLength="12.2" clip-path="url(#terminal-779815062-line-15)">
</text><text class="terminal-779815062-r8" x="573.4" y="410.4" textLength="12.2" clip-path="url(#terminal-779815062-line-16)">│</text><text class="terminal-779815062-r1" x="1695.8" y="410.4" textLength="12.2" clip-path="url(#terminal-779815062-line-16)">
</text><text class="terminal-779815062-r8" x="573.4" y="434.8" textLength="12.2" clip-path="url(#terminal-779815062-line-17)">│</text><text class="terminal-779815062-r1" x="1695.8" y="434.8" textLength="12.2" clip-path="url(#terminal-779815062-line-17)">
</text><text class="terminal-779815062-r8" x="573.4" y="459.2" textLength="12.2" clip-path="url(#terminal-779815062-line-18)">│</text><text class="terminal-779815062-r1" x="1695.8" y="459.2" textLength="12.2" clip-path="url(#terminal-779815062-line-18)">
</text><text class="terminal-779815062-r8" x="573.4" y="483.6" textLength="12.2" clip-path="url(#terminal-779815062-line-19)">│</text><text class="terminal-779815062-r1" x="1695.8" y="483.6" textLength="12.2" clip-path="url(#terminal-779815062-line-19)">
</text><text class="terminal-779815062-r8" x="573.4" y="508" textLength="12.2" clip-path="url(#terminal-779815062-line-20)">│</text><text class="terminal-779815062-r1" x="1695.8" y="508" textLength="12.2" clip-path="url(#terminal-779815062-line-20)">
</text><text class="terminal-779815062-r8" x="573.4" y="532.4" textLength="12.2" clip-path="url(#terminal-779815062-line-21)">│</text><text class="terminal-779815062-r1" x="1695.8" y="532.4" textLength="12.2" clip-path="url(#terminal-779815062-line-21)">
</text><text class="terminal-779815062-r8" x="573.4" y="556.8" textLength="12.2" clip-path="url(#terminal-779815062-line-22)">│</text><text class="terminal-779815062-r1" x="1695.8" y="556.8" textLength="12.2" clip-path="url(#terminal-779815062-line-22)">
</text><text class="terminal-779815062-r8" x="573.4" y="581.2" textLength="12.2" clip-path="url(#terminal-779815062-line-23)">│</text><text class="terminal-779815062-r1" x="1695.8" y="581.2" textLength="12.2" clip-path="url(#terminal-779815062-line-23)">
</text><text class="terminal-779815062-r8" x="573.4" y="605.6" textLength="12.2" clip-path="url(#terminal-779815062-line-24)">│</text><text class="terminal-779815062-r1" x="1695.8" y="605.6" textLength="12.2" clip-path="url(#terminal-779815062-line-24)">
</text><text class="terminal-779815062-r8" x="573.4" y="630" textLength="12.2" clip-path="url(#terminal-779815062-line-25)">│</text><text class="terminal-779815062-r1" x="1695.8" y="630" textLength="12.2" clip-path="url(#terminal-779815062-line-25)">
</text><text class="terminal-779815062-r8" x="573.4" y="654.4" textLength="12.2" clip-path="url(#terminal-779815062-line-26)">│</text><text class="terminal-779815062-r8" x="585.6" y="654.4" textLength="1110.2" clip-path="url(#terminal-779815062-line-26)">───────────────────────────────────────────────────────────────────────────────────────────</text><text class="terminal-779815062-r1" x="1695.8" y="654.4" textLength="12.2" clip-path="url(#terminal-779815062-line-26)">
</text><text class="terminal-779815062-r8" x="573.4" y="678.8" textLength="12.2" clip-path="url(#terminal-779815062-line-27)">│</text><text class="terminal-779815062-r1" x="1695.8" y="678.8" textLength="12.2" clip-path="url(#terminal-779815062-line-27)">
</text><text class="terminal-779815062-r8" x="573.4" y="703.2" textLength="12.2" clip-path="url(#terminal-779815062-line-28)">│</text><text class="terminal-779815062-r12" x="597.8" y="703.2" textLength="195.2" clip-path="url(#terminal-779815062-line-28)">▔▔▔▔▔▔▔▔▔▔▔▔▔▔▔▔</text><text class="terminal-779815062-r6" x="793" y="703.2" textLength="195.2" clip-path="url(#terminal-779815062-line-28)">▔▔▔▔▔▔▔▔▔▔▔▔▔▔▔▔</text><text class="terminal-779815062-r12" x="988.2" y="703.2" textLength="195.2" clip-path="url(#terminal-779815062-line-28)">▔▔▔▔▔▔▔▔▔▔▔▔▔▔▔▔</text><text class="terminal-779815062-r12" x="1183.4" y="703.2" textLength="195.2" clip-path="url(#terminal-779815062-line-28)">▔▔▔▔▔▔▔▔▔▔▔▔▔▔▔▔</text><text class="terminal-779815062-r13" x="1378.6" y="703.2" textLength="195.2" clip-path="url(#terminal-779815062-line-28)">▔▔▔▔▔▔▔▔▔▔▔▔▔▔▔▔</text><text class="terminal-779815062-r1" x="1695.8" y="703.2" textLength="12.2" clip-path="url(#terminal-779815062-line-28)">
</text><text class="terminal-779815062-r8" x="573.4" y="727.6" textLength="12.2" clip-path="url(#terminal-779815062-line-29)">│</text><text class="terminal-779815062-r14" x="622.2" y="727.6" textLength="134.2" clip-path="url(#terminal-779815062-line-29)">&#160;Stage&#160;All&#160;</text><text class="terminal-779815062-r15" x="793" y="727.6" textLength="195.2" clip-path="url(#terminal-779815062-line-29)">&#160;Stage&#160;Selected&#160;</text><text class="terminal-779815062-r14" x="1049.2" y="727.6" textLength="73.2" clip-path="url(#terminal-779815062-line-29)">&#160;Pull&#160;</text><text class="terminal-779815062-r14" x="1244.4" y="727.6" textLength="73.2" clip-path="url(#terminal-779815062-line-29)">&#160;Push&#160;</text><text class="terminal-779815062-r16" x="1427.4" y="727.6" textLength="97.6" clip-path="url(#terminal-779815062-line-29)">&#160;Cancel&#160;</text><text class="terminal-779815062-r1" x="1695.8" y="727.6" textLength="12.2" clip-path="url(#terminal-779815062-line-29)">
</text><text class="terminal-779815062-r8" x="573.4" y="752" textLength="12.2" clip-path="url(#terminal-779815062-line-30)">│</text><text class="terminal-779815062-r17" x="597.8" y="752" textLength="195.2" clip-path="url(#terminal-779815062-line-30)">▁▁▁▁▁▁▁▁▁▁▁▁▁▁▁▁</text><text class="terminal-779815062-r18" x="793" y="752" textLength="195.2" clip-path="url(#terminal-779815062-line-30)">▁▁▁▁▁▁▁▁▁▁▁▁▁▁▁▁</text><text class="terminal-779815062-r17" x="988.2" y="752" textLength="195.2" clip-path="url(#terminal-779815062-line-30)">▁▁▁▁▁▁▁▁▁▁▁▁▁▁▁▁</text><text class="terminal-779815062-r17" x="1183.4" y="752" textLength="195.2" clip-path="url(#terminal-779815062-line-30)">▁▁▁▁▁▁▁▁▁▁▁▁▁▁▁▁</text><text class="terminal-779815062-r19" x="1378.6" y="752" textLength="195.2" clip-path="url(#terminal-779815062-line-30)">▁▁▁▁▁▁▁▁▁▁▁▁▁▁▁▁</text><text class="terminal-779815062-r1" x="1695.8" y="752" textLength="12.2" clip-path="url(#terminal-779815062-line-30)">
</text><text class="terminal-779815062-r8" x="573.4" y="776.4" textLength="12.2" clip-path="url(#terminal-779815062-line-31)">│</text><text class="terminal-779815062-r7" x="597.8" y="776.4" textLength="12.2" clip-path="url(#terminal-779815062-line-31)">▊</text><text class="terminal-779815062-r20" x="610" y="776.4" textLength="866.2" clip-path="url(#terminal-779815062-line-31)">▔▔▔▔▔▔▔▔▔▔▔▔▔▔▔▔▔▔▔▔▔▔▔▔▔▔▔▔▔▔▔▔▔▔▔▔▔▔▔▔▔▔▔▔▔▔▔▔▔▔▔▔▔▔▔▔▔▔▔▔▔▔▔▔▔▔▔▔▔▔▔</text><text class="terminal-779815062-r20" x="1476.2" y="776.4" textLength="12.2" clip-path="url(#terminal-779815062-line-31)">▎</text><text class="terminal-779815062-r21" x="1488.4" y="776.4" textLength="195.2" clip-path="url(#terminal-779815062-line-31)">▔▔▔▔▔▔▔▔▔▔▔▔▔▔▔▔</text><text class="terminal-779815062-r1" x="1695.8" y="776.4" textLength="12.2" clip-path="url(#terminal-779815062-line-31)">
</text><text class="terminal-779815062-r8" x="573.4" y="800.8" textLength="12.2" clip-path="url(#terminal-779815062-line-32)">│</text><text class="terminal-779815062-r7" x="597.8" y="800.8" textLength="12.2" clip-path="url(#terminal-779815062-line-32)">▊</text><text class="terminal-779815062-r22" x="634.4" y="800.8" textLength="207.4" clip-path="url(#terminal-779815062-line-32)">Commit&#160;message...</text><text class="terminal-779815062-r20" x="1476.2" y="800.8" textLength="12.2" clip-path="url(#terminal-779815062-line-32)">▎</text><text class="terminal-779815062-r23" x="1537.2" y="800.8" textLength="97.6" clip-path="url(#terminal-779815062-line-32)">&#160;Commit&#160;</text><text class="terminal-779815062-r1" x="1695.8" y="800.8" textLength="12.2" clip-path="url(#terminal-779815062-line-32)">
</text><text class="terminal-779815062-r8" x="573.4" y="825.2" textLength="12.2" clip-path="url(#terminal-779815062-line-33)">│</text><text class="terminal-779815062-r7" x="597.8" y="825.2" textLength="12.2" clip-path="url(#terminal-779815062-line-33)">▊</text><text class="terminal-779815062-r20" x="610" y="825.2" textLength="866.2" clip-path="url(#terminal-779815062-line-33)">▁▁▁▁▁▁▁▁▁▁▁▁▁▁▁▁▁▁▁▁▁▁▁▁▁▁▁▁▁▁▁▁▁▁▁▁▁▁▁▁▁▁▁▁▁▁▁▁▁▁▁▁▁▁▁▁▁▁▁▁▁▁▁▁▁▁▁▁▁▁▁</text><text class="terminal-779815062-r20" x="1476.2" y="825.2" textLength="12.2" clip-path="url(#terminal-779815062-line-33)">▎</text><text class="terminal-779815062-r24" x="1488.4" y="825.2" textLength="195.2" clip-path="url(#terminal-779815062-line-33)">▁▁▁▁▁▁▁▁▁▁▁▁▁▁▁▁</text><text class="terminal-779815062-r1" x="1695.8" y="825.2" textLength="12.2" clip-path="url(#terminal-779815062-line-33)">
</text><text class="terminal-779815062-r8" x="573.4" y="849.6" textLength="12.2" clip-path="url(#terminal-779815062-line-34)">│</text><text class="terminal-779815062-r1" x="1695.8" y="849.6" textLength="12.2" clip-path="url(#terminal-779815062-line-34)">
</text><text class="terminal-779815062-r25" x="1549.4" y="874" textLength="12.2" clip-path="url(#terminal-779815062-line-35)">▏</text><text class="terminal-779815062-r26" x="1561.6" y="874" textLength="24.4" clip-path="url(#terminal-779815062-line-35)">^p</text><text class="terminal-779815062-r2" x="1586" y="874" textLength="97.6" clip-path="url(#terminal-779815062-line-35)">&#160;palette</text>
    </g>
    </g>
</svg>
