<svg class="rich-terminal" viewBox="0 0 1714 928.4" xmlns="http://www.w3.org/2000/svg">
    <!-- Generated with Rich https://www.textualize.io -->
    <style>

    @font-face {
        font-family: "Fira Code";
        src: local("FiraCode-Regular"),
                url("https://cdnjs.cloudflare.com/ajax/libs/firacode/6.2.0/woff2/FiraCode-Regular.woff2") format("woff2"),
                url("https://cdnjs.cloudflare.com/ajax/libs/firacode/6.2.0/woff/FiraCode-Regular.woff") format("woff");
        font-style: normal;
        font-weight: 400;
    }
    @font-face {
        font-family: "Fira Code";
        src: local("FiraCode-Bold"),
                url("https://cdnjs.cloudflare.com/ajax/libs/firacode/6.2.0/woff2/FiraCode-Bold.woff2") format("woff2"),
                url("https://cdnjs.cloudflare.com/ajax/libs/firacode/6.2.0/woff/FiraCode-Bold.woff") format("woff");
        font-style: bold;
        font-weight: 700;
    }

    .terminal-485512248-matrix {
        font-family: Fira Code, monospace;
        font-size: 20px;
        line-height: 24.4px;
        font-variant-east-asian: full-width;
    }

    .terminal-485512248-title {
        font-size: 18px;
        font-weight: bold;
        font-family: arial;
    }

    .terminal-485512248-r1 { fill: #c5c8c6 }
.terminal-485512248-r2 { fill: #e0e0e0 }
.terminal-485512248-r3 { fill: #797979 }
.terminal-485512248-r4 { fill: #262626 }
.terminal-485512248-r5 { fill: #0178d4 }
.terminal-485512248-r6 { fill: #ffcf56 }
.terminal-485512248-r7 { fill: #121212 }
.terminal-485512248-r8 { fill: #6db2ff }
.terminal-485512248-r9 { fill: #2d2d2d }
.terminal-485512248-r10 { fill: #7ae998 }
.terminal-485512248-r11 { fill: #e76580 }
.terminal-485512248-r12 { fill: #f3e2e7;font-weight: bold }
.terminal-485512248-r13 { fill: #b86b00 }
.terminal-485512248-r14 { fill: #ddedf9;font-weight: bold }
.terminal-485512248-r15 { fill: #e0e0e0;font-weight: bold }
.terminal-485512248-r16 { fill: #0a180e;font-weight: bold }
.terminal-485512248-r17 { fill: #f5e5e9;font-weight: bold }
.terminal-485512248-r18 { fill: #211505;font-weight: bold }
.terminal-485512248-r19 { fill: #b93c5b }
.terminal-485512248-r20 { fill: #004295 }
.terminal-485512248-r21 { fill: #0d0d0d }
.terminal-485512248-r22 { fill: #008139 }
.terminal-485512248-r23 { fill: #780028 }
.terminal-485512248-r24 { fill: #495259 }
.terminal-485512248-r25 { fill: #ffa62b;font-weight: bold }
    </style>

    <defs>
    <clipPath id="terminal-485512248-clip-terminal">
      <rect x="0" y="0" width="1694.8" height="877.4" />
    </clipPath>
    <clipPath id="terminal-485512248-line-0">
    <rect x="0" y="1.5" width="1695.8" height="24.65"/>
            </clipPath>
<clipPath id="terminal-485512248-line-1">
    <rect x="0" y="25.9" width="1695.8" height="24.65"/>
            </clipPath>
<clipPath id="terminal-485512248-line-2">
    <rect x="0" y="50.3" width="1695.8" height="24.65"/>
            </clipPath>
<clipPath id="terminal-485512248-line-3">
    <rect x="0" y="74.7" width="1695.8" height="24.65"/>
            </clipPath>
<clipPath id="terminal-485512248-line-4">
    <rect x="0" y="99.1" width="1695.8" height="24.65"/>
            </clipPath>
<clipPath id="terminal-485512248-line-5">
    <rect x="0" y="123.5" width="1695.8" height="24.65"/>
            </clipPath>
<clipPath id="terminal-485512248-line-6">
    <rect x="0" y="147.9" width="1695.8" height="24.65"/>
            </clipPath>
<clipPath id="terminal-485512248-line-7">
    <rect x="0" y="172.3" width="1695.8" height="24.65"/>
            </clipPath>
<clipPath id="terminal-485512248-line-8">
    <rect x="0" y="196.7" width="1695.8" height="24.65"/>
            </clipPath>
<clipPath id="terminal-485512248-line-9">
    <rect x="0" y="221.1" width="1695.8" height="24.65"/>
            </clipPath>
<clipPath id="terminal-485512248-line-10">
    <rect x="0" y="245.5" width="1695.8" height="24.65"/>
            </clipPath>
<clipPath id="terminal-485512248-line-11">
    <rect x="0" y="269.9" width="1695.8" height="24.65"/>
            </clipPath>
<clipPath id="terminal-485512248-line-12">
    <rect x="0" y="294.3" width="1695.8" height="24.65"/>
            </clipPath>
<clipPath id="terminal-485512248-line-13">
    <rect x="0" y="318.7" width="1695.8" height="24.65"/>
            </clipPath>
<clipPath id="terminal-485512248-line-14">
    <rect x="0" y="343.1" width="1695.8" height="24.65"/>
            </clipPath>
<clipPath id="terminal-485512248-line-15">
    <rect x="0" y="367.5" width="1695.8" height="24.65"/>
            </clipPath>
<clipPath id="terminal-485512248-line-16">
    <rect x="0" y="391.9" width="1695.8" height="24.65"/>
            </clipPath>
<clipPath id="terminal-485512248-line-17">
    <rect x="0" y="416.3" width="1695.8" height="24.65"/>
            </clipPath>
<clipPath id="terminal-485512248-line-18">
    <rect x="0" y="440.7" width="1695.8" height="24.65"/>
            </clipPath>
<clipPath id="terminal-485512248-line-19">
    <rect x="0" y="465.1" width="1695.8" height="24.65"/>
            </clipPath>
<clipPath id="terminal-485512248-line-20">
    <rect x="0" y="489.5" width="1695.8" height="24.65"/>
            </clipPath>
<clipPath id="terminal-485512248-line-21">
    <rect x="0" y="513.9" width="1695.8" height="24.65"/>
            </clipPath>
<clipPath id="terminal-485512248-line-22">
    <rect x="0" y="538.3" width="1695.8" height="24.65"/>
            </clipPath>
<clipPath id="terminal-485512248-line-23">
    <rect x="0" y="562.7" width="1695.8" height="24.65"/>
            </clipPath>
<clipPath id="terminal-485512248-line-24">
    <rect x="0" y="587.1" width="1695.8" height="24.65"/>
            </clipPath>
<clipPath id="terminal-485512248-line-25">
    <rect x="0" y="611.5" width="1695.8" height="24.65"/>
            </clipPath>
<clipPath id="terminal-485512248-line-26">
    <rect x="0" y="635.9" width="1695.8" height="24.65"/>
            </clipPath>
<clipPath id="terminal-485512248-line-27">
    <rect x="0" y="660.3" width="1695.8" height="24.65"/>
            </clipPath>
<clipPath id="terminal-485512248-line-28">
    <rect x="0" y="684.7" width="1695.8" height="24.65"/>
            </clipPath>
<clipPath id="terminal-485512248-line-29">
    <rect x="0" y="709.1" width="1695.8" height="24.65"/>
            </clipPath>
<clipPath id="terminal-485512248-line-30">
    <rect x="0" y="733.5" width="1695.8" height="24.65"/>
            </clipPath>
<clipPath id="terminal-485512248-line-31">
    <rect x="0" y="757.9" width="1695.8" height="24.65"/>
            </clipPath>
<clipPath id="terminal-485512248-line-32">
    <rect x="0" y="782.3" width="1695.8" height="24.65"/>
            </clipPath>
<clipPath id="terminal-485512248-line-33">
    <rect x="0" y="806.7" width="1695.8" height="24.65"/>
            </clipPath>
<clipPath id="terminal-485512248-line-34">
    <rect x="0" y="831.1" width="1695.8" height="24.65"/>
            </clipPath>
    </defs>

    <rect fill="#292929" stroke="rgba(255,255,255,0.35)" stroke-width="1" x="1" y="1" width="1712" height="926.4" rx="8"/><text class="terminal-485512248-title" fill="#c5c8c6" text-anchor="middle" x="856" y="27">etui&#160;—&#160;probe</text>
            <g transform="translate(26,22)">
            <circle cx="0" cy="0" r="7" fill="#ff5f57"/>
            <circle cx="22" cy="0" r="7" fill="#febc2e"/>
            <circle cx="44" cy="0" r="7" fill="#28c840"/>
            </g>
        
    <g transform="translate(9, 41)" clip-path="url(#terminal-485512248-clip-terminal)">
    <rect fill="#242f38" x="0" y="1.5" width="12.2" height="24.65" shape-rendering="crispEdges"/><rect fill="#242f38" x="12.2" y="1.5" width="12.2" height="24.65" shape-rendering="crispEdges"/><rect fill="#242f38" x="24.4" y="1.5" width="61" height="24.65" shape-rendering="crispEdges"/><rect fill="#242f38" x="85.4" y="1.5" width="12.2" height="24.65" shape-rendering="crispEdges"/><rect fill="#242f38" x="97.6" y="1.5" width="695.4" height="24.65" shape-rendering="crispEdges"/><rect fill="#242f38" x="793" y="1.5" width="85.4" height="24.65" shape-rendering="crispEdges"/><rect fill="#242f38" x="878.4" y="1.5" width="695.4" height="24.65" shape-rendering="crispEdges"/><rect fill="#242f38" x="1573.8" y="1.5" width="12.2" height="24.65" shape-rendering="crispEdges"/><rect fill="#242f38" x="1586" y="1.5" width="0" height="24.65" shape-rendering="crispEdges"/><rect fill="#242f38" x="1586" y="1.5" width="97.6" height="24.65" shape-rendering="crispEdges"/><rect fill="#242f38" x="1683.6" y="1.5" width="12.2" height="24.65" shape-rendering="crispEdges"/><rect fill="#121212" x="0" y="25.9" width="12.2" height="24.65" shape-rendering="crispEdges"/><rect fill="#121212" x="12.2" y="25.9" width="61" height="24.65" shape-rendering="crispEdges"/><rect fill="#121212" x="73.2" y="25.9" width="12.2" height="24.65" shape-rendering="crispEdges"/><rect fill="#121212" x="85.4" y="25.9" width="12.2" height="24.65" shape-rendering="crispEdges"/><rect fill="#121212" x="97.6" y="25.9" width="85.4" height="24.65" shape-rendering="crispEdges"/><rect fill="#121212" x="183" y="25.9" width="12.2" height="24.65" shape-rendering="crispEdges"/><rect fill="#121212" x="195.2" y="25.9" width="12.2" height="24.65" shape-rendering="crispEdges"/><rect fill="#121212" x="207.4" y="25.9" width="61" height="24.65" shape-rendering="crispEdges"/><rect fill="#121212" x="268.4" y="25.9" width="12.2" height="24.65" shape-rendering="crispEdges"/><rect fill="#121212" x="280.6" y="25.9" width="12.2" height="24.65" shape-rendering="crispEdges"/><rect fill="#121212" x="292.8" y="25.9" width="36.6" height="24.65" shape-rendering="crispEdges"/><rect fill="#121212" x="329.4" y="25.9" width="12.2" height="24.65" shape-rendering="crispEdges"/><rect fill="#121212" x="341.6" y="25.9" width="12.2" height="24.65" shape-rendering="crispEdges"/><rect fill="#121212" x="353.8" y="25.9" width="73.2" height="24.65" shape-rendering="crispEdges"/><rect fill="#121212" x="427" y="25.9" width="12.2" height="24.65" shape-rendering="crispEdges"/><rect fill="#121212" x="439.2" y="25.9" width="12.2" height="24.65" shape-rendering="crispEdges"/><rect fill="#121212" x="451.4" y="25.9" width="61" height="24.65" shape-rendering="crispEdges"/><rect fill="#121212" x="512.4" y="25.9" width="12.2" height="24.65" shape-rendering="crispEdges"/><rect fill="#121212" x="524.6" y="25.9" width="12.2" height="24.65" shape-rendering="crispEdges"/><rect fill="#121212" x="536.8" y="25.9" width="73.2" height="24.65" shape-rendering="crispEdges"/><rect fill="#121212" x="610" y="25.9" width="12.2" height="24.65" shape-rendering="crispEdges"/><rect fill="#121212" x="622.2" y="25.9" width="12.2" height="24.65" shape-rendering="crispEdges"/><rect fill="#121212" x="634.4" y="25.9" width="61" height="24.65" shape-rendering="crispEdges"/><rect fill="#121212" x="695.4" y="25.9" width="12.2" height="24.65" shape-rendering="crispEdges"/><rect fill="#121212" x="707.6" y="25.9" width="12.2" height="24.65" shape-rendering="crispEdges"/><rect fill="#121212" x="719.8" y="25.9" width="48.8" height="24.65" shape-rendering="crispEdges"/><rect fill="#121212" x="768.6" y="25.9" width="12.2" height="24.65" shape-rendering="crispEdges"/><rect fill="#121212" x="780.8" y="25.9" width="12.2" height="24.65" shape-rendering="crispEdges"/><rect fill="#121212" x="793" y="25.9" width="48.8" height="24.65" shape-rendering="crispEdges"/><rect fill="#121212" x="841.8" y="25.9" width="12.2" height="24.65" shape-rendering="crispEdges"/><rect fill="#121212" x="854" y="25.9" width="12.2" height="24.65" shape-rendering="crispEdges"/><rect fill="#121212" x="866.2" y="25.9" width="97.6" height="24.65" shape-rendering="crispEdges"/><rect fill="#121212" x="963.8" y="25.9" width="12.2" height="24.65" shape-rendering="crispEdges"/><rect fill="#121212" x="976" y="25.9" width="12.2" height="24.65" shape-rendering="crispEdges"/><rect fill="#121212" x="988.2" y="25.9" width="48.8" height="24.65" shape-rendering="crispEdges"/><rect fill="#121212" x="1037" y="25.9" width="12.2" height="24.65" shape-rendering="crispEdges"/><rect fill="#121212" x="1049.2" y="25.9" width="475.8" height="24.65" shape-rendering="crispEdges"/><rect fill="#121212" x="1525" y="25.9" width="12.2" height="24.65" shape-rendering="crispEdges"/><rect fill="#121212" x="1537.2" y="25.9" width="61" height="24.65" shape-rendering="crispEdges"/><rect fill="#121212" x="1598.2" y="25.9" width="12.2" height="24.65" shape-rendering="crispEdges"/><rect fill="#121212" x="1610.4" y="25.9" width="12.2" height="24.65" shape-rendering="crispEdges"/><rect fill="#121212" x="1622.6" y="25.9" width="61" height="24.65" shape-rendering="crispEdges"/><rect fill="#121212" x="1683.6" y="25.9" width="12.2" height="24.65" shape-rendering="crispEdges"/><rect fill="#121212" x="0" y="50.3" width="622.2" height="24.65" shape-rendering="crispEdges"/><rect fill="#121212" x="622.2" y="50.3" width="12.2" height="24.65" shape-rendering="crispEdges"/><rect fill="#121212" x="634.4" y="50.3" width="61" height="24.65" shape-rendering="crispEdges"/><rect fill="#121212" x="695.4" y="50.3" width="12.2" height="24.65" shape-rendering="crispEdges"/><rect fill="#121212" x="707.6" y="50.3" width="988.2" height="24.65" shape-rendering="crispEdges"/><rect fill="#a32549" x="0" y="74.7" width="12.2" height="24.65" shape-rendering="crispEdges"/><rect fill="#a32549" x="12.2" y="74.7" width="744.2" height="24.65" shape-rendering="crispEdges"/><rect fill="#fea62b" x="756.4" y="74.7" width="73.2" height="24.65" shape-rendering="crispEdges"/><rect fill="#a32549" x="829.6" y="74.7" width="12.2" height="24.65" shape-rendering="crispEdges"/><rect fill="#191919" x="841.8" y="74.7" width="12.2" height="24.65" shape-rendering="crispEdges"/><rect fill="#0178d4" x="854" y="74.7" width="195.2" height="24.65" shape-rendering="crispEdges"/><rect fill="#191919" x="1049.2" y="74.7" width="12.2" height="24.65" shape-rendering="crispEdges"/><rect fill="#141414" x="1061.4" y="74.7" width="12.2" height="24.65" shape-rendering="crispEdges"/><rect fill="#1e1e1e" x="1073.6" y="74.7" width="195.2" height="24.65" shape-rendering="crispEdges"/><rect fill="#4ebf71" x="1268.8" y="74.7" width="195.2" height="24.65" shape-rendering="crispEdges"/><rect fill="#b93c5b" x="1464" y="74.7" width="195.2" height="24.65" shape-rendering="crispEdges"/><rect fill="#fea62b" x="1659.2" y="74.7" width="36.6" height="24.65" shape-rendering="crispEdges"/><rect fill="#a32549" x="0" y="99.1" width="12.2" height="24.65" shape-rendering="crispEdges"/><rect fill="#a32549" x="12.2" y="99.1" width="719.8" height="24.65" shape-rendering="crispEdges"/><rect fill="#a32549" x="732" y="99.1" width="24.4" height="24.65" shape-rendering="crispEdges"/><rect fill="#fea62b" x="756.4" y="99.1" width="73.2" height="24.65" shape-rendering="crispEdges"/><rect fill="#a32549" x="829.6" y="99.1" width="12.2" height="24.65" shape-rendering="crispEdges"/><rect fill="#191919" x="841.8" y="99.1" width="12.2" height="24.65" shape-rendering="crispEdges"/><rect fill="#0178d4" x="854" y="99.1" width="48.8" height="24.65" shape-rendering="crispEdges"/><rect fill="#0178d4" x="902.8" y="99.1" width="97.6" height="24.65" shape-rendering="crispEdges"/><rect fill="#0178d4" x="1000.4" y="99.1" width="48.8" height="24.65" shape-rendering="crispEdges"/><rect fill="#191919" x="1049.2" y="99.1" width="12.2" height="24.65" shape-rendering="crispEdges"/><rect fill="#141414" x="1061.4" y="99.1" width="12.2" height="24.65" shape-rendering="crispEdges"/><rect fill="#1e1e1e" x="1073.6" y="99.1" width="36.6" height="24.65" shape-rendering="crispEdges"/><rect fill="#1e1e1e" x="1110.2" y="99.1" width="122" height="24.65" shape-rendering="crispEdges"/><rect fill="#1e1e1e" x="1232.2" y="99.1" width="36.6" height="24.65" shape-rendering="crispEdges"/><rect fill="#4ebf71" x="1268.8" y="99.1" width="48.8" height="24.65" shape-rendering="crispEdges"/><rect fill="#4ebf71" x="1317.6" y="99.1" width="85.4" height="24.65" shape-rendering="crispEdges"/><rect fill="#4ebf71" x="1403" y="99.1" width="61" height="24.65" shape-rendering="crispEdges"/><rect fill="#b93c5b" x="1464" y="99.1" width="61" height="24.65" shape-rendering="crispEdges"/><rect fill="#b93c5b" x="1525" y="99.1" width="73.2" height="24.65" shape-rendering="crispEdges"/><rect fill="#b93c5b" x="1598.2" y="99.1" width="61" height="24.65" shape-rendering="crispEdges"/><rect fill="#fea62b" x="1659.2" y="99.1" width="24.4" height="24.65" shape-rendering="crispEdges"/><rect fill="#fea62b" x="1683.6" y="99.1" width="12.2" height="24.65" shape-rendering="crispEdges"/><rect fill="#a32549" x="0" y="123.5" width="841.8" height="24.65" shape-rendering="crispEdges"/><rect fill="#121212" x="841.8" y="123.5" width="12.2" height="24.65" shape-rendering="crispEdges"/><rect fill="#0178d4" x="854" y="123.5" width="195.2" height="24.65" shape-rendering="crispEdges"/><rect fill="#121212" x="1049.2" y="123.5" width="24.4" height="24.65" shape-rendering="crispEdges"/><rect fill="#1e1e1e" x="1073.6" y="123.5" width="195.2" height="24.65" shape-rendering="crispEdges"/><rect fill="#4ebf71" x="1268.8" y="123.5" width="195.2" height="24.65" shape-rendering="crispEdges"/><rect fill="#b93c5b" x="1464" y="123.5" width="195.2" height="24.65" shape-rendering="crispEdges"/><rect fill="#fea62b" x="1659.2" y="123.5" width="36.6" height="24.65" shape-rendering="crispEdges"/><rect fill="#121212" x="0" y="147.9" width="841.8" height="24.65" shape-rendering="crispEdges"/><rect fill="#121212" x="841.8" y="147.9" width="854" height="24.65" shape-rendering="crispEdges"/><rect fill="#121212" x="0" y="172.3" width="841.8" height="24.65" shape-rendering="crispEdges"/><rect fill="#121212" x="841.8" y="172.3" width="854" height="24.65" shape-rendering="crispEdges"/><rect fill="#121212" x="0" y="196.7" width="841.8" height="24.65" shape-rendering="crispEdges"/><rect fill="#121212" x="841.8" y="196.7" width="854" height="24.65" shape-rendering="crispEdges"/><rect fill="#121212" x="0" y="221.1" width="841.8" height="24.65" shape-rendering="crispEdges"/><rect fill="#121212" x="841.8" y="221.1" width="854" height="24.65" shape-rendering="crispEdges"/><rect fill="#121212" x="0" y="245.5" width="841.8" height="24.65" shape-rendering="crispEdges"/><rect fill="#121212" x="841.8" y="245.5" width="854" height="24.65" shape-rendering="crispEdges"/><rect fill="#121212" x="0" y="269.9" width="841.8" height="24.65" shape-rendering="crispEdges"/><rect fill="#121212" x="841.8" y="269.9" width="854" height="24.65" shape-rendering="crispEdges"/><rect fill="#121212" x="0" y="294.3" width="841.8" height="24.65" shape-rendering="crispEdges"/><rect fill="#121212" x="841.8" y="294.3" width="854" height="24.65" shape-rendering="crispEdges"/><rect fill="#121212" x="0" y="318.7" width="841.8" height="24.65" shape-rendering="crispEdges"/><rect fill="#121212" x="841.8" y="318.7" width="854" height="24.65" shape-rendering="crispEdges"/><rect fill="#121212" x="0" y="343.1" width="841.8" height="24.65" shape-rendering="crispEdges"/><rect fill="#121212" x="841.8" y="343.1" width="854" height="24.65" shape-rendering="crispEdges"/><rect fill="#121212" x="0" y="367.5" width="841.8" height="24.65" shape-rendering="crispEdges"/><rect fill="#121212" x="841.8" y="367.5" width="854" height="24.65" shape-rendering="crispEdges"/><rect fill="#121212" x="0" y="391.9" width="841.8" height="24.65" shape-rendering="crispEdges"/><rect fill="#121212" x="841.8" y="391.9" width="854" height="24.65" shape-rendering="crispEdges"/><rect fill="#121212" x="0" y="416.3" width="841.8" height="24.65" shape-rendering="crispEdges"/><rect fill="#1e1e1e" x="841.8" y="416.3" width="134.2" height="24.65" shape-rendering="crispEdges"/><rect fill="#1e1e1e" x="976" y="416.3" width="695.4" height="24.65" shape-rendering="crispEdges"/><rect fill="#000000" x="1671.4" y="416.3" width="24.4" height="24.65" shape-rendering="crispEdges"/><rect fill="#121212" x="0" y="440.7" width="841.8" height="24.65" shape-rendering="crispEdges"/><rect fill="#1e1e1e" x="841.8" y="440.7" width="829.6" height="24.65" shape-rendering="crispEdges"/><rect fill="#000000" x="1671.4" y="440.7" width="24.4" height="24.65" shape-rendering="crispEdges"/><rect fill="#121212" x="0" y="465.1" width="841.8" height="24.65" shape-rendering="crispEdges"/><rect fill="#1e1e1e" x="841.8" y="465.1" width="829.6" height="24.65" shape-rendering="crispEdges"/><rect fill="#000000" x="1671.4" y="465.1" width="24.4" height="24.65" shape-rendering="crispEdges"/><rect fill="#121212" x="0" y="489.5" width="841.8" height="24.65" shape-rendering="crispEdges"/><rect fill="#1e1e1e" x="841.8" y="489.5" width="829.6" height="24.65" shape-rendering="crispEdges"/><rect fill="#000000" x="1671.4" y="489.5" width="24.4" height="24.65" shape-rendering="crispEdges"/><rect fill="#121212" x="0" y="513.9" width="841.8" height="24.65" shape-rendering="crispEdges"/><rect fill="#1e1e1e" x="841.8" y="513.9" width="829.6" height="24.65" shape-rendering="crispEdges"/><rect fill="#000000" x="1671.4" y="513.9" width="24.4" height="24.65" shape-rendering="crispEdges"/><rect fill="#121212" x="0" y="538.3" width="841.8" height="24.65" shape-rendering="crispEdges"/><rect fill="#1e1e1e" x="841.8" y="538.3" width="829.6" height="24.65" shape-rendering="crispEdges"/><rect fill="#000000" x="1671.4" y="538.3" width="24.4" height="24.65" shape-rendering="crispEdges"/><rect fill="#121212" x="0" y="562.7" width="841.8" height="24.65" shape-rendering="crispEdges"/><rect fill="#1e1e1e" x="841.8" y="562.7" width="829.6" height="24.65" shape-rendering="crispEdges"/><rect fill="#000000" x="1671.4" y="562.7" width="24.4" height="24.65" shape-rendering="crispEdges"/><rect fill="#121212" x="0" y="587.1" width="841.8" height="24.65" shape-rendering="crispEdges"/><rect fill="#1e1e1e" x="841.8" y="587.1" width="829.6" height="24.65" shape-rendering="crispEdges"/><rect fill="#000000" x="1671.4" y="587.1" width="24.4" height="24.65" shape-rendering="crispEdges"/><rect fill="#121212" x="0" y="611.5" width="841.8" height="24.65" shape-rendering="crispEdges"/><rect fill="#1e1e1e" x="841.8" y="611.5" width="829.6" height="24.65" shape-rendering="crispEdges"/><rect fill="#000000" x="1671.4" y="611.5" width="24.4" height="24.65" shape-rendering="crispEdges"/><rect fill="#121212" x="0" y="635.9" width="841.8" height="24.65" shape-rendering="crispEdges"/><rect fill="#1e1e1e" x="841.8" y="635.9" width="829.6" height="24.65" shape-rendering="crispEdges"/><rect fill="#000000" x="1671.4" y="635.9" width="24.4" height="24.65" shape-rendering="crispEdges"/><rect fill="#121212" x="0" y="660.3" width="841.8" height="24.65" shape-rendering="crispEdges"/><rect fill="#1e1e1e" x="841.8" y="660.3" width="829.6" height="24.65" shape-rendering="crispEdges"/><rect fill="#000000" x="1671.4" y="660.3" width="24.4" height="24.65" shape-rendering="crispEdges"/><rect fill="#121212" x="0" y="684.7" width="841.8" height="24.65" shape-rendering="crispEdges"/><rect fill="#1e1e1e" x="841.8" y="684.7" width="829.6" height="24.65" shape-rendering="crispEdges"/><rect fill="#000000" x="1671.4" y="684.7" width="24.4" height="24.65" shape-rendering="crispEdges"/><rect fill="#121212" x="0" y="709.1" width="841.8" height="24.65" shape-rendering="crispEdges"/><rect fill="#1e1e1e" x="841.8" y="709.1" width="829.6" height="24.65" shape-rendering="crispEdges"/><rect fill="#000000" x="1671.4" y="709.1" width="24.4" height="24.65" shape-rendering="crispEdges"/><rect fill="#121212" x="0" y="733.5" width="841.8" height="24.65" shape-rendering="crispEdges"/><rect fill="#1e1e1e" x="841.8" y="733.5" width="829.6" height="24.65" shape-rendering="crispEdges"/><rect fill="#000000" x="1671.4" y="733.5" width="24.4" height="24.65" shape-rendering="crispEdges"/><rect fill="#121212" x="0" y="757.9" width="841.8" height="24.65" shape-rendering="crispEdges"/><rect fill="#1e1e1e" x="841.8" y="757.9" width="829.6" height="24.65" shape-rendering="crispEdges"/><rect fill="#000000" x="1671.4" y="757.9" width="24.4" height="24.65" shape-rendering="crispEdges"/><rect fill="#121212" x="0" y="782.3" width="841.8" height="24.65" shape-rendering="crispEdges"/><rect fill="#0178d4" x="841.8" y="782.3" width="12.2" height="24.65" shape-rendering="crispEdges"/><rect fill="#272727" x="854" y="782.3" width="829.6" height="24.65" shape-rendering="crispEdges"/><rect fill="#121212" x="1683.6" y="782.3" width="12.2" height="24.65" shape-rendering="crispEdges"/><rect fill="#121212" x="0" y="806.7" width="841.8" height="24.65" shape-rendering="crispEdges"/><rect fill="#0178d4" x="841.8" y="806.7" width="12.2" height="24.65" shape-rendering="crispEdges"/><rect fill="#272727" x="854" y="806.7" width="24.4" height="24.65" shape-rendering="crispEdges"/><rect fill="#e0e0e0" x="878.4" y="806.7" width="12.2" height="24.65" shape-rendering="crispEdges"/><rect fill="#272727" x="890.6" y="806.7" width="183" height="24.65" shape-rendering="crispEdges"/><rect fill="#272727" x="1073.6" y="806.7" width="585.6" height="24.65" shape-rendering="crispEdges"/><rect fill="#272727" x="1659.2" y="806.7" width="24.4" height="24.65" shape-rendering="crispEdges"/><rect fill="#121212" x="1683.6" y="806.7" width="12.2" height="24.65" shape-rendering="crispEdges"/><rect fill="#121212" x="0" y="831.1" width="841.8" height="24.65" shape-rendering="crispEdges"/><rect fill="#0178d4" x="841.8" y="831.1" width="12.2" height="24.65" shape-rendering="crispEdges"/><rect fill="#272727" x="854" y="831.1" width="829.6" height="24.65" shape-rendering="crispEdges"/><rect fill="#121212" x="1683.6" y="831.1" width="12.2" height="24.65" shape-rendering="crispEdges"/><rect fill="#242f38" x="0" y="855.5" width="1549.4" height="24.65" shape-rendering="crispEdges"/><rect fill="#242f38" x="1549.4" y="855.5" width="12.2" height="24.65" shape-rendering="crispEdges"/><rect fill="#242f38" x="1561.6" y="855.5" width="24.4" height="24.65" shape-rendering="crispEdges"/><rect fill="#242f38" x="1586" y="855.5" width="97.6" height="24.65" shape-rendering="crispEdges"/><rect fill="#242f38" x="1683.6" y="855.5" width="12.2" height="24.65" shape-rendering="crispEdges"/>
    <g class="terminal-485512248-matrix">
    <text class="terminal-485512248-r2" x="12.2" y="20" textLength="12.2" clip-path="url(#terminal-485512248-line-0)">⭘</text><text class="terminal-485512248-r2" x="793" y="20" textLength="85.4" clip-path="url(#terminal-485512248-line-0)">EtuiApp</text><text class="terminal-485512248-r1" x="1695.8" y="20" textLength="12.2" clip-path="url(#terminal-485512248-line-0)">
</text><text class="terminal-485512248-r3" x="12.2" y="44.4" textLength="61" clip-path="url(#terminal-485512248-line-1)">Files</text><text class="terminal-485512248-r3" x="97.6" y="44.4" textLength="85.4" clip-path="url(#terminal-485512248-line-1)">Console</text><text class="terminal-485512248-r3" x="207.4" y="44.4" textLength="61" clip-path="url(#terminal-485512248-line-1)">Tools</text><text class="terminal-485512248-r3" x="292.8" y="44.4" textLength="36.6" clip-path="url(#terminal-485512248-line-1)">Git</text><text class="terminal-485512248-r3" x="353.8" y="44.4" textLength="73.2" clip-path="url(#terminal-485512248-line-1)">GitHub</text><text class="terminal-485512248-r3" x="451.4" y="44.4" textLength="61" clip-path="url(#terminal-485512248-line-1)">CMake</text><text class="terminal-485512248-r3" x="536.8" y="44.4" textLength="73.2" clip-path="url(#terminal-485512248-line-1)">Serial</text><text class="terminal-485512248-r2" x="634.4" y="44.4" textLength="61" clip-path="url(#terminal-485512248-line-1)">Probe</text><text class="terminal-485512248-r3" x="719.8" y="44.4" textLength="48.8" clip-path="url(#terminal-485512248-line-1)">LLDB</text><text class="terminal-485512248-r3" x="793" y="44.4" textLength="48.8" clip-path="url(#terminal-485512248-line-1)">Venv</text><text class="terminal-485512248-r3" x="866.2" y="44.4" textLength="97.6" clip-path="url(#terminal-485512248-line-1)">Settings</text><text class="terminal-485512248-r3" x="988.2" y="44.4" textLength="48.8" clip-path="url(#terminal-485512248-line-1)">Help</text><text class="terminal-485512248-r3" x="1537.2" y="44.4" textLength="61" clip-path="url(#terminal-485512248-line-1)">Theme</text><text class="terminal-485512248-r3" x="1622.6" y="44.4" textLength="61" clip-path="url(#terminal-485512248-line-1)">About</text><text class="terminal-485512248-r1" x="1695.8" y="44.4" textLength="12.2" clip-path="url(#terminal-485512248-line-1)">
</text><text class="terminal-485512248-r4" x="0" y="68.8" textLength="622.2" clip-path="url(#terminal-485512248-line-2)">━━━━━━━━━━━━━━━━━━━━━━━━━━━━━━━━━━━━━━━━━━━━━━━━━━━</text><text class="terminal-485512248-r4" x="622.2" y="68.8" textLength="12.2" clip-path="url(#terminal-485512248-line-2)">╸</text><text class="terminal-485512248-r5" x="634.4" y="68.8" textLength="61" clip-path="url(#terminal-485512248-line-2)">━━━━━</text><text class="terminal-485512248-r4" x="695.4" y="68.8" textLength="12.2" clip-path="url(#terminal-485512248-line-2)">╺</text><text class="terminal-485512248-r4" x="707.6" y="68.8" textLength="988.2" clip-path="url(#terminal-485512248-line-2)">━━━━━━━━━━━━━━━━━━━━━━━━━━━━━━━━━━━━━━━━━━━━━━━━━━━━━━━━━━━━━━━━━━━━━━━━━━━━━━━━━</text><text class="terminal-485512248-r1" x="1695.8" y="68.8" textLength="12.2" clip-path="url(#terminal-485512248-line-2)">
</text><text class="terminal-485512248-r6" x="756.4" y="93.2" textLength="73.2" clip-path="url(#terminal-485512248-line-3)">▔▔▔▔▔▔</text><text class="terminal-485512248-r7" x="841.8" y="93.2" textLength="12.2" clip-path="url(#terminal-485512248-line-3)">▊</text><text class="terminal-485512248-r8" x="854" y="93.2" textLength="195.2" clip-path="url(#terminal-485512248-line-3)">▔▔▔▔▔▔▔▔▔▔▔▔▔▔▔▔</text><text class="terminal-485512248-r7" x="1049.2" y="93.2" textLength="12.2" clip-path="url(#terminal-485512248-line-3)">▊</text><text class="terminal-485512248-r7" x="1061.4" y="93.2" textLength="12.2" clip-path="url(#terminal-485512248-line-3)">▊</text><text class="terminal-485512248-r9" x="1073.6" y="93.2" textLength="195.2" clip-path="url(#terminal-485512248-line-3)">▔▔▔▔▔▔▔▔▔▔▔▔▔▔▔▔</text><text class="terminal-485512248-r10" x="1268.8" y="93.2" textLength="195.2" clip-path="url(#terminal-485512248-line-3)">▔▔▔▔▔▔▔▔▔▔▔▔▔▔▔▔</text><text class="terminal-485512248-r11" x="1464" y="93.2" textLength="195.2" clip-path="url(#terminal-485512248-line-3)">▔▔▔▔▔▔▔▔▔▔▔▔▔▔▔▔</text><text class="terminal-485512248-r6" x="1659.2" y="93.2" textLength="36.6" clip-path="url(#terminal-485512248-line-3)">▔▔▔</text><text class="terminal-485512248-r1" x="1695.8" y="93.2" textLength="12.2" clip-path="url(#terminal-485512248-line-3)">
</text><text class="terminal-485512248-r12" x="12.2" y="117.6" textLength="719.8" clip-path="url(#terminal-485512248-line-4)">Required&#160;tool&#160;&#x27;GNU&#160;Arm&#160;Toolchain&#x27;&#160;is&#160;missing&#160;or&#160;incomplete!</text><text class="terminal-485512248-r13" x="756.4" y="117.6" textLength="73.2" clip-path="url(#terminal-485512248-line-4)">▁▁▁▁▁▁</text><text class="terminal-485512248-r7" x="841.8" y="117.6" textLength="12.2" clip-path="url(#terminal-485512248-line-4)">▊</text><text class="terminal-485512248-r14" x="902.8" y="117.6" textLength="97.6" clip-path="url(#terminal-485512248-line-4)">&#160;Detect&#160;</text><text class="terminal-485512248-r7" x="1049.2" y="117.6" textLength="12.2" clip-path="url(#terminal-485512248-line-4)">▊</text><text class="terminal-485512248-r7" x="1061.4" y="117.6" textLength="12.2" clip-path="url(#terminal-485512248-line-4)">▊</text><text class="terminal-485512248-r15" x="1110.2" y="117.6" textLength="122" clip-path="url(#terminal-485512248-line-4)">&#160;Settings&#160;</text><text class="terminal-485512248-r16" x="1317.6" y="117.6" textLength="85.4" clip-path="url(#terminal-485512248-line-4)">&#160;Start&#160;</text><text class="terminal-485512248-r17" x="1525" y="117.6" textLength="73.2" clip-path="url(#terminal-485512248-line-4)">&#160;Stop&#160;</text><text class="terminal-485512248-r1" x="1695.8" y="117.6" textLength="12.2" clip-path="url(#terminal-485512248-line-4)">
</text><text class="terminal-485512248-r19" x="0" y="142" textLength="841.8" clip-path="url(#terminal-485512248-line-5)">─────────────────────────────────────────────────────────────────────</text><text class="terminal-485512248-r20" x="854" y="142" textLength="195.2" clip-path="url(#terminal-485512248-line-5)">▁▁▁▁▁▁▁▁▁▁▁▁▁▁▁▁</text><text class="terminal-485512248-r21" x="1073.6" y="142" textLength="195.2" clip-path="url(#terminal-485512248-line-5)">▁▁▁▁▁▁▁▁▁▁▁▁▁▁▁▁</text><text class="terminal-485512248-r22" x="1268.8" y="142" textLength="195.2" clip-path="url(#terminal-485512248-line-5)">▁▁▁▁▁▁▁▁▁▁▁▁▁▁▁▁</text><text class="terminal-485512248-r23" x="1464" y="142" textLength="195.2" clip-path="url(#terminal-485512248-line-5)">▁▁▁▁▁▁▁▁▁▁▁▁▁▁▁▁</text><text class="terminal-485512248-r13" x="1659.2" y="142" textLength="36.6" clip-path="url(#terminal-485512248-line-5)">▁▁▁</text><text class="terminal-485512248-r1" x="1695.8" y="142" textLength="12.2" clip-path="url(#terminal-485512248-line-5)">
</text><text class="terminal-485512248-r1" x="1695.8" y="166.4" textLength="12.2" clip-path="url(#terminal-485512248-line-6)">
</text><text class="terminal-485512248-r1" x="1695.8" y="190.8" textLength="12.2" clip-path="url(#terminal-485512248-line-7)">
</text><text class="terminal-485512248-r1" x="1695.8" y="215.2" textLength="12.2" clip-path="url(#terminal-485512248-line-8)">
</text><text class="terminal-485512248-r1" x="1695.8" y="239.6" textLength="12.2" clip-path="url(#terminal-485512248-line-9)">
</text><text class="terminal-485512248-r1" x="1695.8" y="264" textLength="12.2" clip-path="url(#terminal-485512248-line-10)">
</text><text class="terminal-485512248-r1" x="1695.8" y="288.4" textLength="12.2" clip-path="url(#terminal-485512248-line-11)">
</text><text class="terminal-485512248-r1" x="1695.8" y="312.8" textLength="12.2" clip-path="url(#terminal-485512248-line-12)">
</text><text class="terminal-485512248-r1" x="1695.8" y="337.2" textLength="12.2" clip-path="url(#terminal-485512248-line-13)">
</text><text class="terminal-485512248-r1" x="1695.8" y="361.6" textLength="12.2" clip-path="url(#terminal-485512248-line-14)">
</text><text class="terminal-485512248-r1" x="1695.8" y="386" textLength="12.2" clip-path="url(#terminal-485512248-line-15)">
</text><text class="terminal-485512248-r1" x="1695.8" y="410.4" textLength="12.2" clip-path="url(#terminal-485512248-line-16)">
</text><text class="terminal-485512248-r2" x="841.8" y="434.8" textLength="134.2" clip-path="url(#terminal-485512248-line-17)">Probe&#160;ready</text><text class="terminal-485512248-r1" x="1695.8" y="434.8" textLength="12.2" clip-path="url(#terminal-485512248-line-17)">
</text><text class="terminal-485512248-r1" x="1695.8" y="459.2" textLength="12.2" clip-path="url(#terminal-485512248-line-18)">
</text><text class="terminal-485512248-r1" x="1695.8" y="483.6" textLength="12.2" clip-path="url(#terminal-485512248-line-19)">
</text><text class="terminal-485512248-r1" x="1695.8" y="508" textLength="12.2" clip-path="url(#terminal-485512248-line-20)">
</text><text class="terminal-485512248-r1" x="1695.8" y="532.4" textLength="12.2" clip-path="url(#terminal-485512248-line-21)">
</text><text class="terminal-485512248-r1" x="1695.8" y="556.8" textLength="12.2" clip-path="url(#terminal-485512248-line-22)">
</text><text class="terminal-485512248-r1" x="1695.8" y="581.2" textLength="12.2" clip-path="url(#terminal-485512248-line-23)">
</text><text class="terminal-485512248-r1" x="1695.8" y="605.6" textLength="12.2" clip-path="url(#terminal-485512248-line-24)">
</text><text class="terminal-485512248-r1" x="1695.8" y="630" textLength="12.2" clip-path="url(#terminal-485512248-line-25)">
</text><text class="terminal-485512248-r1" x="1695.8" y="654.4" textLength="12.2" clip-path="url(#terminal-485512248-line-26)">
</text><text class="terminal-485512248-r1" x="1695.8" y="678.8" textLength="12.2" clip-path="url(#terminal-485512248-line-27)">
</text><text class="terminal-485512248-r1" x="1695.8" y="703.2" textLength="12.2" clip-path="url(#terminal-485512248-line-28)">
</text><text class="terminal-485512248-r1" x="1695.8" y="727.6" textLength="12.2" clip-path="url(#terminal-485512248-line-29)">
</text><text class="terminal-485512248-r1" x="1695.8" y="752" textLength="12.2" clip-path="url(#terminal-485512248-line-30)">
</text><text class="terminal-485512248-r1" x="1695.8" y="776.4" textLength="12.2" clip-path="url(#terminal-485512248-line-31)">
</text><text class="terminal-485512248-r7" x="841.8" y="800.8" textLength="12.2" clip-path="url(#terminal-485512248-line-32)">▊</text><text class="terminal-485512248-r5" x="854" y="800.8" textLength="829.6" clip-path="url(#terminal-485512248-line-32)">▔▔▔▔▔▔▔▔▔▔▔▔▔▔▔▔▔▔▔▔▔▔▔▔▔▔▔▔▔▔▔▔▔▔▔▔▔▔▔▔▔▔▔▔▔▔▔▔▔▔▔▔▔▔▔▔▔▔▔▔▔▔▔▔▔▔▔▔</text><text class="terminal-485512248-r5" x="1683.6" y="800.8" textLength="12.2" clip-path="url(#terminal-485512248-line-32)">▎</text><text class="terminal-485512248-r1" x="1695.8" y="800.8" textLength="12.2" clip-path="url(#terminal-485512248-line-32)">
</text><text class="terminal-485512248-r7" x="841.8" y="825.2" textLength="12.2" clip-path="url(#terminal-485512248-line-33)">▊</text><text class="terminal-485512248-r7" x="878.4" y="825.2" textLength="12.2" clip-path="url(#terminal-485512248-line-33)">d</text><text class="terminal-485512248-r3" x="890.6" y="825.2" textLength="183" clip-path="url(#terminal-485512248-line-33)">ebugger&#160;command</text><text class="terminal-485512248-r5" x="1683.6" y="825.2" textLength="12.2" clip-path="url(#terminal-485512248-line-33)">▎</text><text class="terminal-485512248-r1" x="1695.8" y="825.2" textLength="12.2" clip-path="url(#terminal-485512248-line-33)">
</text><text class="terminal-485512248-r7" x="841.8" y="849.6" textLength="12.2" clip-path="url(#terminal-485512248-line-34)">▊</text><text class="terminal-485512248-r5" x="854" y="849.6" textLength="829.6" clip-path="url(#terminal-485512248-line-34)">▁▁▁▁▁▁▁▁▁▁▁▁▁▁▁▁▁▁▁▁▁▁▁▁▁▁▁▁▁▁▁▁▁▁▁▁▁▁▁▁▁▁▁▁▁▁▁▁▁▁▁▁▁▁▁▁▁▁▁▁▁▁▁▁▁▁▁▁</text><text class="terminal-485512248-r5" x="1683.6" y="849.6" textLength="12.2" clip-path="url(#terminal-485512248-line-34)">▎</text><text class="terminal-485512248-r1" x="1695.8" y="849.6" textLength="12.2" clip-path="url(#terminal-485512248-line-34)">
</text><text class="terminal-485512248-r24" x="1549.4" y="874" textLength="12.2" clip-path="url(#terminal-485512248-line-35)">▏</text><text class="terminal-485512248-r25" x="1561.6" y="874" textLength="24.4" clip-path="url(#terminal-485512248-line-35)">^p</text><text class="terminal-485512248-r2" x="1586" y="874" textLength="97.6" clip-path="url(#terminal-485512248-line-35)">&#160;palette</text>
    </g>
    </g>
</svg>
