<svg class="rich-terminal" viewBox="0 0 1714 928.4" xmlns="http://www.w3.org/2000/svg">
    <!-- Generated with Rich https://www.textualize.io -->
    <style>

    @font-face {
        font-family: "Fira Code";
        src: local("FiraCode-Regular"),
                url("https://cdnjs.cloudflare.com/ajax/libs/firacode/6.2.0/woff2/FiraCode-Regular.woff2") format("woff2"),
                url("https://cdnjs.cloudflare.com/ajax/libs/firacode/6.2.0/woff/FiraCode-Regular.woff") format("woff");
        font-style: normal;
        font-weight: 400;
    }
    @font-face {
        font-family: "Fira Code";
        src: local("FiraCode-Bold"),
                url("https://cdnjs.cloudflare.com/ajax/libs/firacode/6.2.0/woff2/FiraCode-Bold.woff2") format("woff2"),
                url("https://cdnjs.cloudflare.com/ajax/libs/firacode/6.2.0/woff/FiraCode-Bold.woff") format("woff");
        font-style: bold;
        font-weight: 700;
    }

    .terminal-3803642006-matrix {
        font-family: Fira Code, monospace;
        font-size: 20px;
        line-height: 24.4px;
        font-variant-east-asian: full-width;
    }

    .terminal-3803642006-title {
        font-size: 18px;
        font-weight: bold;
        font-family: arial;
    }

    .terminal-3803642006-r1 { fill: #c5c8c6 }
.terminal-3803642006-r2 { fill: #e0e0e0 }
.terminal-3803642006-r3 { fill: #797979 }
.terminal-3803642006-r4 { fill: #262626 }
.terminal-3803642006-r5 { fill: #0178d4 }
.terminal-3803642006-r6 { fill: #121212 }
.terminal-3803642006-r7 { fill: #191919 }
.terminal-3803642006-r8 { fill: #7f7f7f }
.terminal-3803642006-r9 { fill: #fd971f }
.terminal-3803642006-r10 { fill: #949494 }
.terminal-3803642006-r11 { fill: #98e024;font-weight: bold }
.terminal-3803642006-r12 { fill: #e0e0e0;font-weight: bold }
.terminal-3803642006-r13 { fill: #495259 }
.terminal-3803642006-r14 { fill: #ffa62b;font-weight: bold }
    </style>

    <defs>
    <clipPath id="terminal-3803642006-clip-terminal">
      <rect x="0" y="0" width="1694.8" height="877.4" />
    </clipPath>
    <clipPath id="terminal-3803642006-line-0">
    <rect x="0" y="1.5" width="1695.8" height="24.65"/>
            </clipPath>
<clipPath id="terminal-3803642006-line-1">
    <rect x="0" y="25.9" width="1695.8" height="24.65"/>
            </clipPath>
<clipPath id="terminal-3803642006-line-2">
    <rect x="0" y="50.3" width="1695.8" height="24.65"/>
            </clipPath>
<clipPath id="terminal-3803642006-line-3">
    <rect x="0" y="74.7" width="1695.8" height="24.65"/>
            </clipPath>
<clipPath id="terminal-3803642006-line-4">
    <rect x="0" y="99.1" width="1695.8" height="24.65"/>
            </clipPath>
<clipPath id="terminal-3803642006-line-5">
    <rect x="0" y="123.5" width="1695.8" height="24.65"/>
            </clipPath>
<clipPath id="terminal-3803642006-line-6">
    <rect x="0" y="147.9" width="1695.8" height="24.65"/>
            </clipPath>
<clipPath id="terminal-3803642006-line-7">
    <rect x="0" y="172.3" width="1695.8" height="24.65"/>
            </clipPath>
<clipPath id="terminal-3803642006-line-8">
    <rect x="0" y="196.7" width="1695.8" height="24.65"/>
            </clipPath>
<clipPath id="terminal-3803642006-line-9">
    <rect x="0" y="221.1" width="1695.8" height="24.65"/>
            </clipPath>
<clipPath id="terminal-3803642006-line-10">
    <rect x="0" y="245.5" width="1695.8" height="24.65"/>
            </clipPath>
<clipPath id="terminal-3803642006-line-11">
    <rect x="0" y="269.9" width="1695.8" height="24.65"/>
            </clipPath>
<clipPath id="terminal-3803642006-line-12">
    <rect x="0" y="294.3" width="1695.8" height="24.65"/>
            </clipPath>
<clipPath id="terminal-3803642006-line-13">
    <rect x="0" y="318.7" width="1695.8" height="24.65"/>
            </clipPath>
<clipPath id="terminal-3803642006-line-14">
    <rect x="0" y="343.1" width="1695.8" height="24.65"/>
            </clipPath>
<clipPath id="terminal-3803642006-line-15">
    <rect x="0" y="367.5" width="1695.8" height="24.65"/>
            </clipPath>
<clipPath id="terminal-3803642006-line-16">
    <rect x="0" y="391.9" width="1695.8" height="24.65"/>
            </clipPath>
<clipPath id="terminal-3803642006-line-17">
    <rect x="0" y="416.3" width="1695.8" height="24.65"/>
            </clipPath>
<clipPath id="terminal-3803642006-line-18">
    <rect x="0" y="440.7" width="1695.8" height="24.65"/>
            </clipPath>
<clipPath id="terminal-3803642006-line-19">
    <rect x="0" y="465.1" width="1695.8" height="24.65"/>
            </clipPath>
<clipPath id="terminal-3803642006-line-20">
    <rect x="0" y="489.5" width="1695.8" height="24.65"/>
            </clipPath>
<clipPath id="terminal-3803642006-line-21">
    <rect x="0" y="513.9" width="1695.8" height="24.65"/>
            </clipPath>
<clipPath id="terminal-3803642006-line-22">
    <rect x="0" y="538.3" width="1695.8" height="24.65"/>
            </clipPath>
<clipPath id="terminal-3803642006-line-23">
    <rect x="0" y="562.7" width="1695.8" height="24.65"/>
            </clipPath>
<clipPath id="terminal-3803642006-line-24">
    <rect x="0" y="587.1" width="1695.8" height="24.65"/>
            </clipPath>
<clipPath id="terminal-3803642006-line-25">
    <rect x="0" y="611.5" width="1695.8" height="24.65"/>
            </clipPath>
<clipPath id="terminal-3803642006-line-26">
    <rect x="0" y="635.9" width="1695.8" height="24.65"/>
            </clipPath>
<clipPath id="terminal-3803642006-line-27">
    <rect x="0" y="660.3" width="1695.8" height="24.65"/>
            </clipPath>
<clipPath id="terminal-3803642006-line-28">
    <rect x="0" y="684.7" width="1695.8" height="24.65"/>
            </clipPath>
<clipPath id="terminal-3803642006-line-29">
    <rect x="0" y="709.1" width="1695.8" height="24.65"/>
            </clipPath>
<clipPath id="terminal-3803642006-line-30">
    <rect x="0" y="733.5" width="1695.8" height="24.65"/>
            </clipPath>
<clipPath id="terminal-3803642006-line-31">
    <rect x="0" y="757.9" width="1695.8" height="24.65"/>
            </clipPath>
<clipPath id="terminal-3803642006-line-32">
    <rect x="0" y="782.3" width="1695.8" height="24.65"/>
            </clipPath>
<clipPath id="terminal-3803642006-line-33">
    <rect x="0" y="806.7" width="1695.8" height="24.65"/>
            </clipPath>
<clipPath id="terminal-3803642006-line-34">
    <rect x="0" y="831.1" width="1695.8" height="24.65"/>
            </clipPath>
    </defs>

    <rect fill="#292929" stroke="rgba(255,255,255,0.35)" stroke-width="1" x="1" y="1" width="1712" height="926.4" rx="8"/><text class="terminal-3803642006-title" fill="#c5c8c6" text-anchor="middle" x="856" y="27">etui&#160;—&#160;theme</text>
            <g transform="translate(26,22)">
            <circle cx="0" cy="0" r="7" fill="#ff5f57"/>
            <circle cx="22" cy="0" r="7" fill="#febc2e"/>
            <circle cx="44" cy="0" r="7" fill="#28c840"/>
            </g>
        
    <g transform="translate(9, 41)" clip-path="url(#terminal-3803642006-clip-terminal)">
    <rect fill="#242f38" x="0" y="1.5" width="12.2" height="24.65" shape-rendering="crispEdges"/><rect fill="#242f38" x="12.2" y="1.5" width="12.2" height="24.65" shape-rendering="crispEdges"/><rect fill="#242f38" x="24.4" y="1.5" width="61" height="24.65" shape-rendering="crispEdges"/><rect fill="#242f38" x="85.4" y="1.5" width="12.2" height="24.65" shape-rendering="crispEdges"/><rect fill="#242f38" x="97.6" y="1.5" width="695.4" height="24.65" shape-rendering="crispEdges"/><rect fill="#242f38" x="793" y="1.5" width="85.4" height="24.65" shape-rendering="crispEdges"/><rect fill="#242f38" x="878.4" y="1.5" width="695.4" height="24.65" shape-rendering="crispEdges"/><rect fill="#242f38" x="1573.8" y="1.5" width="12.2" height="24.65" shape-rendering="crispEdges"/><rect fill="#242f38" x="1586" y="1.5" width="0" height="24.65" shape-rendering="crispEdges"/><rect fill="#242f38" x="1586" y="1.5" width="97.6" height="24.65" shape-rendering="crispEdges"/><rect fill="#242f38" x="1683.6" y="1.5" width="12.2" height="24.65" shape-rendering="crispEdges"/><rect fill="#121212" x="0" y="25.9" width="12.2" height="24.65" shape-rendering="crispEdges"/><rect fill="#121212" x="12.2" y="25.9" width="61" height="24.65" shape-rendering="crispEdges"/><rect fill="#121212" x="73.2" y="25.9" width="12.2" height="24.65" shape-rendering="crispEdges"/><rect fill="#121212" x="85.4" y="25.9" width="12.2" height="24.65" shape-rendering="crispEdges"/><rect fill="#121212" x="97.6" y="25.9" width="85.4" height="24.65" shape-rendering="crispEdges"/><rect fill="#121212" x="183" y="25.9" width="12.2" height="24.65" shape-rendering="crispEdges"/><rect fill="#121212" x="195.2" y="25.9" width="12.2" height="24.65" shape-rendering="crispEdges"/><rect fill="#121212" x="207.4" y="25.9" width="61" height="24.65" shape-rendering="crispEdges"/><rect fill="#121212" x="268.4" y="25.9" width="12.2" height="24.65" shape-rendering="crispEdges"/><rect fill="#121212" x="280.6" y="25.9" width="12.2" height="24.65" shape-rendering="crispEdges"/><rect fill="#121212" x="292.8" y="25.9" width="36.6" height="24.65" shape-rendering="crispEdges"/><rect fill="#121212" x="329.4" y="25.9" width="12.2" height="24.65" shape-rendering="crispEdges"/><rect fill="#121212" x="341.6" y="25.9" width="12.2" height="24.65" shape-rendering="crispEdges"/><rect fill="#121212" x="353.8" y="25.9" width="73.2" height="24.65" shape-rendering="crispEdges"/><rect fill="#121212" x="427" y="25.9" width="12.2" height="24.65" shape-rendering="crispEdges"/><rect fill="#121212" x="439.2" y="25.9" width="12.2" height="24.65" shape-rendering="crispEdges"/><rect fill="#121212" x="451.4" y="25.9" width="61" height="24.65" shape-rendering="crispEdges"/><rect fill="#121212" x="512.4" y="25.9" width="12.2" height="24.65" shape-rendering="crispEdges"/><rect fill="#121212" x="524.6" y="25.9" width="12.2" height="24.65" shape-rendering="crispEdges"/><rect fill="#121212" x="536.8" y="25.9" width="73.2" height="24.65" shape-rendering="crispEdges"/><rect fill="#121212" x="610" y="25.9" width="12.2" height="24.65" shape-rendering="crispEdges"/><rect fill="#121212" x="622.2" y="25.9" width="12.2" height="24.65" shape-rendering="crispEdges"/><rect fill="#121212" x="634.4" y="25.9" width="61" height="24.65" shape-rendering="crispEdges"/><rect fill="#121212" x="695.4" y="25.9" width="12.2" height="24.65" shape-rendering="crispEdges"/><rect fill="#121212" x="707.6" y="25.9" width="12.2" height="24.65" shape-rendering="crispEdges"/><rect fill="#121212" x="719.8" y="25.9" width="48.8" height="24.65" shape-rendering="crispEdges"/><rect fill="#121212" x="768.6" y="25.9" width="12.2" height="24.65" shape-rendering="crispEdges"/><rect fill="#121212" x="780.8" y="25.9" width="12.2" height="24.65" shape-rendering="crispEdges"/><rect fill="#121212" x="793" y="25.9" width="48.8" height="24.65" shape-rendering="crispEdges"/><rect fill="#121212" x="841.8" y="25.9" width="12.2" height="24.65" shape-rendering="crispEdges"/><rect fill="#121212" x="854" y="25.9" width="12.2" height="24.65" shape-rendering="crispEdges"/><rect fill="#121212" x="866.2" y="25.9" width="97.6" height="24.65" shape-rendering="crispEdges"/><rect fill="#121212" x="963.8" y="25.9" width="12.2" height="24.65" shape-rendering="crispEdges"/><rect fill="#121212" x="976" y="25.9" width="12.2" height="24.65" shape-rendering="crispEdges"/><rect fill="#121212" x="988.2" y="25.9" width="48.8" height="24.65" shape-rendering="crispEdges"/><rect fill="#121212" x="1037" y="25.9" width="12.2" height="24.65" shape-rendering="crispEdges"/><rect fill="#121212" x="1049.2" y="25.9" width="475.8" height="24.65" shape-rendering="crispEdges"/><rect fill="#121212" x="1525" y="25.9" width="12.2" height="24.65" shape-rendering="crispEdges"/><rect fill="#121212" x="1537.2" y="25.9" width="61" height="24.65" shape-rendering="crispEdges"/><rect fill="#121212" x="1598.2" y="25.9" width="12.2" height="24.65" shape-rendering="crispEdges"/><rect fill="#121212" x="1610.4" y="25.9" width="12.2" height="24.65" shape-rendering="crispEdges"/><rect fill="#121212" x="1622.6" y="25.9" width="61" height="24.65" shape-rendering="crispEdges"/><rect fill="#121212" x="1683.6" y="25.9" width="12.2" height="24.65" shape-rendering="crispEdges"/><rect fill="#121212" x="0" y="50.3" width="1525" height="24.65" shape-rendering="crispEdges"/><rect fill="#121212" x="1525" y="50.3" width="12.2" height="24.65" shape-rendering="crispEdges"/><rect fill="#121212" x="1537.2" y="50.3" width="61" height="24.65" shape-rendering="crispEdges"/><rect fill="#121212" x="1598.2" y="50.3" width="12.2" height="24.65" shape-rendering="crispEdges"/><rect fill="#121212" x="1610.4" y="50.3" width="85.4" height="24.65" shape-rendering="crispEdges"/><rect fill="#121212" x="0" y="74.7" width="219.6" height="24.65" shape-rendering="crispEdges"/><rect fill="#191919" x="219.6" y="74.7" width="12.2" height="24.65" shape-rendering="crispEdges"/><rect fill="#1e1e1e" x="231.8" y="74.7" width="341.6" height="24.65" shape-rendering="crispEdges"/><rect fill="#121212" x="573.4" y="74.7" width="12.2" height="24.65" shape-rendering="crispEdges"/><rect fill="#121212" x="585.6" y="74.7" width="1110.2" height="24.65" shape-rendering="crispEdges"/><rect fill="#121212" x="0" y="99.1" width="219.6" height="24.65" shape-rendering="crispEdges"/><rect fill="#191919" x="219.6" y="99.1" width="12.2" height="24.65" shape-rendering="crispEdges"/><rect fill="#1e1e1e" x="231.8" y="99.1" width="24.4" height="24.65" shape-rendering="crispEdges"/><rect fill="#1e1e1e" x="256.2" y="99.1" width="73.2" height="24.65" shape-rendering="crispEdges"/><rect fill="#1e1e1e" x="329.4" y="99.1" width="195.2" height="24.65" shape-rendering="crispEdges"/><rect fill="#1e1e1e" x="524.6" y="99.1" width="12.2" height="24.65" shape-rendering="crispEdges"/><rect fill="#1e1e1e" x="536.8" y="99.1" width="12.2" height="24.65" shape-rendering="crispEdges"/><rect fill="#1e1e1e" x="549" y="99.1" width="24.4" height="24.65" shape-rendering="crispEdges"/><rect fill="#121212" x="573.4" y="99.1" width="12.2" height="24.65" shape-rendering="crispEdges"/><rect fill="#121212" x="585.6" y="99.1" width="1110.2" height="24.65" shape-rendering="crispEdges"/><rect fill="#121212" x="0" y="123.5" width="219.6" height="24.65" shape-rendering="crispEdges"/><rect fill="#191919" x="219.6" y="123.5" width="12.2" height="24.65" shape-rendering="crispEdges"/><rect fill="#1e1e1e" x="231.8" y="123.5" width="341.6" height="24.65" shape-rendering="crispEdges"/><rect fill="#121212" x="573.4" y="123.5" width="12.2" height="24.65" shape-rendering="crispEdges"/><rect fill="#121212" x="585.6" y="123.5" width="1110.2" height="24.65" shape-rendering="crispEdges"/><rect fill="#121212" x="0" y="147.9" width="1695.8" height="24.65" shape-rendering="crispEdges"/><rect fill="#121212" x="0" y="172.3" width="24.4" height="24.65" shape-rendering="crispEdges"/><rect fill="#121212" x="24.4" y="172.3" width="109.8" height="24.65" shape-rendering="crispEdges"/><rect fill="#121212" x="134.2" y="172.3" width="1537.2" height="24.65" shape-rendering="crispEdges"/><rect fill="#121212" x="1671.4" y="172.3" width="24.4" height="24.65" shape-rendering="crispEdges"/><rect fill="#121212" x="0" y="196.7" width="24.4" height="24.65" shape-rendering="crispEdges"/><rect fill="#121212" x="24.4" y="196.7" width="61" height="24.65" shape-rendering="crispEdges"/><rect fill="#121212" x="85.4" y="196.7" width="36.6" height="24.65" shape-rendering="crispEdges"/><rect fill="#121212" x="122" y="196.7" width="122" height="24.65" shape-rendering="crispEdges"/><rect fill="#121212" x="244" y="196.7" width="146.4" height="24.65" shape-rendering="crispEdges"/><rect fill="#121212" x="390.4" y="196.7" width="1281" height="24.65" shape-rendering="crispEdges"/><rect fill="#121212" x="1671.4" y="196.7" width="24.4" height="24.65" shape-rendering="crispEdges"/><rect fill="#121212" x="0" y="221.1" width="24.4" height="24.65" shape-rendering="crispEdges"/><rect fill="#121212" x="24.4" y="221.1" width="61" height="24.65" shape-rendering="crispEdges"/><rect fill="#121212" x="85.4" y="221.1" width="36.6" height="24.65" shape-rendering="crispEdges"/><rect fill="#121212" x="122" y="221.1" width="122" height="24.65" shape-rendering="crispEdges"/><rect fill="#121212" x="244" y="221.1" width="1427.4" height="24.65" shape-rendering="crispEdges"/><rect fill="#121212" x="1671.4" y="221.1" width="24.4" height="24.65" shape-rendering="crispEdges"/><rect fill="#121212" x="0" y="245.5" width="24.4" height="24.65" shape-rendering="crispEdges"/><rect fill="#121212" x="24.4" y="245.5" width="97.6" height="24.65" shape-rendering="crispEdges"/><rect fill="#121212" x="122" y="245.5" width="1549.4" height="24.65" shape-rendering="crispEdges"/><rect fill="#121212" x="1671.4" y="245.5" width="24.4" height="24.65" shape-rendering="crispEdges"/><rect fill="#121212" x="0" y="269.9" width="24.4" height="24.65" shape-rendering="crispEdges"/><rect fill="#121212" x="24.4" y="269.9" width="292.8" height="24.65" shape-rendering="crispEdges"/><rect fill="#121212" x="317.2" y="269.9" width="1354.2" height="24.65" shape-rendering="crispEdges"/><rect fill="#121212" x="1671.4" y="269.9" width="24.4" height="24.65" shape-rendering="crispEdges"/><rect fill="#121212" x="0" y="294.3" width="24.4" height="24.65" shape-rendering="crispEdges"/><rect fill="#121212" x="24.4" y="294.3" width="122" height="24.65" shape-rendering="crispEdges"/><rect fill="#121212" x="146.4" y="294.3" width="183" height="24.65" shape-rendering="crispEdges"/><rect fill="#121212" x="329.4" y="294.3" width="1342" height="24.65" shape-rendering="crispEdges"/><rect fill="#121212" x="1671.4" y="294.3" width="24.4" height="24.65" shape-rendering="crispEdges"/><rect fill="#121212" x="0" y="318.7" width="24.4" height="24.65" shape-rendering="crispEdges"/><rect fill="#121212" x="24.4" y="318.7" width="61" height="24.65" shape-rendering="crispEdges"/><rect fill="#121212" x="85.4" y="318.7" width="1586" height="24.65" shape-rendering="crispEdges"/><rect fill="#121212" x="1671.4" y="318.7" width="24.4" height="24.65" shape-rendering="crispEdges"/><rect fill="#121212" x="0" y="343.1" width="24.4" height="24.65" shape-rendering="crispEdges"/><rect fill="#121212" x="24.4" y="343.1" width="146.4" height="24.65" shape-rendering="crispEdges"/><rect fill="#121212" x="170.8" y="343.1" width="134.2" height="24.65" shape-rendering="crispEdges"/><rect fill="#121212" x="305" y="343.1" width="122" height="24.65" shape-rendering="crispEdges"/><rect fill="#121212" x="427" y="343.1" width="1244.4" height="24.65" shape-rendering="crispEdges"/><rect fill="#121212" x="1671.4" y="343.1" width="24.4" height="24.65" shape-rendering="crispEdges"/><rect fill="#121212" x="0" y="367.5" width="24.4" height="24.65" shape-rendering="crispEdges"/><rect fill="#121212" x="24.4" y="367.5" width="0" height="24.65" shape-rendering="crispEdges"/><rect fill="#121212" x="24.4" y="367.5" width="1647" height="24.65" shape-rendering="crispEdges"/><rect fill="#121212" x="1671.4" y="367.5" width="24.4" height="24.65" shape-rendering="crispEdges"/><rect fill="#121212" x="0" y="391.9" width="1695.8" height="24.65" shape-rendering="crispEdges"/><rect fill="#121212" x="0" y="416.3" width="1695.8" height="24.65" shape-rendering="crispEdges"/><rect fill="#121212" x="0" y="440.7" width="1695.8" height="24.65" shape-rendering="crispEdges"/><rect fill="#121212" x="0" y="465.1" width="1695.8" height="24.65" shape-rendering="crispEdges"/><rect fill="#121212" x="0" y="489.5" width="1695.8" height="24.65" shape-rendering="crispEdges"/><rect fill="#121212" x="0" y="513.9" width="1695.8" height="24.65" shape-rendering="crispEdges"/><rect fill="#121212" x="0" y="538.3" width="1695.8" height="24.65" shape-rendering="crispEdges"/><rect fill="#121212" x="0" y="562.7" width="1695.8" height="24.65" shape-rendering="crispEdges"/><rect fill="#121212" x="0" y="587.1" width="1695.8" height="24.65" shape-rendering="crispEdges"/><rect fill="#121212" x="0" y="611.5" width="1695.8" height="24.65" shape-rendering="crispEdges"/><rect fill="#121212" x="0" y="635.9" width="1695.8" height="24.65" shape-rendering="crispEdges"/><rect fill="#121212" x="0" y="660.3" width="1695.8" height="24.65" shape-rendering="crispEdges"/><rect fill="#121212" x="0" y="684.7" width="1695.8" height="24.65" shape-rendering="crispEdges"/><rect fill="#121212" x="0" y="709.1" width="1695.8" height="24.65" shape-rendering="crispEdges"/><rect fill="#121212" x="0" y="733.5" width="1695.8" height="24.65" shape-rendering="crispEdges"/><rect fill="#121212" x="0" y="757.9" width="1695.8" height="24.65" shape-rendering="crispEdges"/><rect fill="#121212" x="0" y="782.3" width="1695.8" height="24.65" shape-rendering="crispEdges"/><rect fill="#121212" x="0" y="806.7" width="1695.8" height="24.65" shape-rendering="crispEdges"/><rect fill="#121212" x="0" y="831.1" width="1695.8" height="24.65" shape-rendering="crispEdges"/><rect fill="#242f38" x="0" y="855.5" width="1549.4" height="24.65" shape-rendering="crispEdges"/><rect fill="#242f38" x="1549.4" y="855.5" width="12.2" height="24.65" shape-rendering="crispEdges"/><rect fill="#242f38" x="1561.6" y="855.5" width="24.4" height="24.65" shape-rendering="crispEdges"/><rect fill="#242f38" x="1586" y="855.5" width="97.6" height="24.65" shape-rendering="crispEdges"/><rect fill="#242f38" x="1683.6" y="855.5" width="12.2" height="24.65" shape-rendering="crispEdges"/>
    <g class="terminal-3803642006-matrix">
    <text class="terminal-3803642006-r2" x="12.2" y="20" textLength="12.2" clip-path="url(#terminal-3803642006-line-0)">⭘</text><text class="terminal-3803642006-r2" x="793" y="20" textLength="85.4" clip-path="url(#terminal-3803642006-line-0)">EtuiApp</text><text class="terminal-3803642006-r1" x="1695.8" y="20" textLength="12.2" clip-path="url(#terminal-3803642006-line-0)">
</text><text class="terminal-3803642006-r3" x="12.2" y="44.4" textLength="61" clip-path="url(#terminal-3803642006-line-1)">Files</text><text class="terminal-3803642006-r3" x="97.6" y="44.4" textLength="85.4" clip-path="url(#terminal-3803642006-line-1)">Console</text><text class="terminal-3803642006-r3" x="207.4" y="44.4" textLength="61" clip-path="url(#terminal-3803642006-line-1)">Tools</text><text class="terminal-3803642006-r3" x="292.8" y="44.4" textLength="36.6" clip-path="url(#terminal-3803642006-line-1)">Git</text><text class="terminal-3803642006-r3" x="353.8" y="44.4" textLength="73.2" clip-path="url(#terminal-3803642006-line-1)">GitHub</text><text class="terminal-3803642006-r3" x="451.4" y="44.4" textLength="61" clip-path="url(#terminal-3803642006-line-1)">CMake</text><text class="terminal-3803642006-r3" x="536.8" y="44.4" textLength="73.2" clip-path="url(#terminal-3803642006-line-1)">Serial</text><text class="terminal-3803642006-r3" x="634.4" y="44.4" textLength="61" clip-path="url(#terminal-3803642006-line-1)">Probe</text><text class="terminal-3803642006-r3" x="719.8" y="44.4" textLength="48.8" clip-path="url(#terminal-3803642006-line-1)">LLDB</text><text class="terminal-3803642006-r3" x="793" y="44.4" textLength="48.8" clip-path="url(#terminal-3803642006-line-1)">Venv</text><text class="terminal-3803642006-r3" x="866.2" y="44.4" textLength="97.6" clip-path="url(#terminal-3803642006-line-1)">Settings</text><text class="terminal-3803642006-r3" x="988.2" y="44.4" textLength="48.8" clip-path="url(#terminal-3803642006-line-1)">Help</text><text class="terminal-3803642006-r2" x="1537.2" y="44.4" textLength="61" clip-path="url(#terminal-3803642006-line-1)">Theme</text><text class="terminal-3803642006-r3" x="1622.6" y="44.4" textLength="61" clip-path="url(#terminal-3803642006-line-1)">About</text><text class="terminal-3803642006-r1" x="1695.8" y="44.4" textLength="12.2" clip-path="url(#terminal-3803642006-line-1)">
</text><text class="terminal-3803642006-r4" x="0" y="68.8" textLength="1525" clip-path="url(#terminal-3803642006-line-2)">━━━━━━━━━━━━━━━━━━━━━━━━━━━━━━━━━━━━━━━━━━━━━━━━━━━━━━━━━━━━━━━━━━━━━━━━━━━━━━━━━━━━━━━━━━━━━━━━━━━━━━━━━━━━━━━━━━━━━━━━━━━━━</text><text class="terminal-3803642006-r4" x="1525" y="68.8" textLength="12.2" clip-path="url(#terminal-3803642006-line-2)">╸</text><text class="terminal-3803642006-r5" x="1537.2" y="68.8" textLength="61" clip-path="url(#terminal-3803642006-line-2)">━━━━━</text><text class="terminal-3803642006-r4" x="1598.2" y="68.8" textLength="12.2" clip-path="url(#terminal-3803642006-line-2)">╺</text><text class="terminal-3803642006-r4" x="1610.4" y="68.8" textLength="85.4" clip-path="url(#terminal-3803642006-line-2)">━━━━━━━</text><text class="terminal-3803642006-r1" x="1695.8" y="68.8" textLength="12.2" clip-path="url(#terminal-3803642006-line-2)">
</text><text class="terminal-3803642006-r6" x="219.6" y="93.2" textLength="12.2" clip-path="url(#terminal-3803642006-line-3)">▊</text><text class="terminal-3803642006-r7" x="231.8" y="93.2" textLength="341.6" clip-path="url(#terminal-3803642006-line-3)">▔▔▔▔▔▔▔▔▔▔▔▔▔▔▔▔▔▔▔▔▔▔▔▔▔▔▔▔</text><text class="terminal-3803642006-r7" x="573.4" y="93.2" textLength="12.2" clip-path="url(#terminal-3803642006-line-3)">▎</text><text class="terminal-3803642006-r1" x="1695.8" y="93.2" textLength="12.2" clip-path="url(#terminal-3803642006-line-3)">
</text><text class="terminal-3803642006-r2" x="0" y="117.6" textLength="219.6" clip-path="url(#terminal-3803642006-line-4)">Dashboard&#160;theme:&#160;&#160;</text><text class="terminal-3803642006-r6" x="219.6" y="117.6" textLength="12.2" clip-path="url(#terminal-3803642006-line-4)">▊</text><text class="terminal-3803642006-r2" x="256.2" y="117.6" textLength="73.2" clip-path="url(#terminal-3803642006-line-4)">subtle</text><text class="terminal-3803642006-r8" x="536.8" y="117.6" textLength="12.2" clip-path="url(#terminal-3803642006-line-4)">▼</text><text class="terminal-3803642006-r7" x="573.4" y="117.6" textLength="12.2" clip-path="url(#terminal-3803642006-line-4)">▎</text><text class="terminal-3803642006-r1" x="1695.8" y="117.6" textLength="12.2" clip-path="url(#terminal-3803642006-line-4)">
</text><text class="terminal-3803642006-r6" x="219.6" y="142" textLength="12.2" clip-path="url(#terminal-3803642006-line-5)">▊</text><text class="terminal-3803642006-r7" x="231.8" y="142" textLength="341.6" clip-path="url(#terminal-3803642006-line-5)">▁▁▁▁▁▁▁▁▁▁▁▁▁▁▁▁▁▁▁▁▁▁▁▁▁▁▁▁</text><text class="terminal-3803642006-r7" x="573.4" y="142" textLength="12.2" clip-path="url(#terminal-3803642006-line-5)">▎</text><text class="terminal-3803642006-r1" x="1695.8" y="142" textLength="12.2" clip-path="url(#terminal-3803642006-line-5)">
</text><text class="terminal-3803642006-r1" x="1695.8" y="166.4" textLength="12.2" clip-path="url(#terminal-3803642006-line-6)">
</text><text class="terminal-3803642006-r9" x="24.4" y="190.8" textLength="109.8" clip-path="url(#terminal-3803642006-line-7)">Registers</text><text class="terminal-3803642006-r1" x="1695.8" y="190.8" textLength="12.2" clip-path="url(#terminal-3803642006-line-7)">
</text><text class="terminal-3803642006-r10" x="24.4" y="215.2" textLength="61" clip-path="url(#terminal-3803642006-line-8)">&#160;&#160;&#160;r0</text><text class="terminal-3803642006-r10" x="85.4" y="215.2" textLength="36.6" clip-path="url(#terminal-3803642006-line-8)">&#160;=&#160;</text><text class="terminal-3803642006-r11" x="122" y="215.2" textLength="122" clip-path="url(#terminal-3803642006-line-8)">0x00000005</text><text class="terminal-3803642006-r10" x="244" y="215.2" textLength="146.4" clip-path="url(#terminal-3803642006-line-8)">&#160;&#160;&#160;(changed)</text><text class="terminal-3803642006-r1" x="1695.8" y="215.2" textLength="12.2" clip-path="url(#terminal-3803642006-line-8)">
</text><text class="terminal-3803642006-r10" x="24.4" y="239.6" textLength="61" clip-path="url(#terminal-3803642006-line-9)">&#160;&#160;&#160;r1</text><text class="terminal-3803642006-r10" x="85.4" y="239.6" textLength="36.6" clip-path="url(#terminal-3803642006-line-9)">&#160;=&#160;</text><text class="terminal-3803642006-r2" x="122" y="239.6" textLength="122" clip-path="url(#terminal-3803642006-line-9)">0x00000004</text><text class="terminal-3803642006-r1" x="1695.8" y="239.6" textLength="12.2" clip-path="url(#terminal-3803642006-line-9)">
</text><text class="terminal-3803642006-r9" x="24.4" y="264" textLength="97.6" clip-path="url(#terminal-3803642006-line-10)">Assembly</text><text class="terminal-3803642006-r1" x="1695.8" y="264" textLength="12.2" clip-path="url(#terminal-3803642006-line-10)">
</text><text class="terminal-3803642006-r12" x="24.4" y="288.4" textLength="292.8" clip-path="url(#terminal-3803642006-line-11)">-&gt;&#160;&#160;0x114c:&#160;cmp&#160;r0,&#160;#0x0</text><text class="terminal-3803642006-r1" x="1695.8" y="288.4" textLength="12.2" clip-path="url(#terminal-3803642006-line-11)">
</text><text class="terminal-3803642006-r10" x="24.4" y="312.8" textLength="122" clip-path="url(#terminal-3803642006-line-12)">&#160;&#160;&#160;&#160;0x114e</text><text class="terminal-3803642006-r2" x="146.4" y="312.8" textLength="183" clip-path="url(#terminal-3803642006-line-12)">:&#160;ldrb&#160;r0,&#160;[r1]</text><text class="terminal-3803642006-r1" x="1695.8" y="312.8" textLength="12.2" clip-path="url(#terminal-3803642006-line-12)">
</text><text class="terminal-3803642006-r9" x="24.4" y="337.2" textLength="61" clip-path="url(#terminal-3803642006-line-13)">Stack</text><text class="terminal-3803642006-r1" x="1695.8" y="337.2" textLength="12.2" clip-path="url(#terminal-3803642006-line-13)">
</text><text class="terminal-3803642006-r10" x="24.4" y="361.6" textLength="146.4" clip-path="url(#terminal-3803642006-line-14)">0x20000ff0:&#160;</text><text class="terminal-3803642006-r11" x="170.8" y="361.6" textLength="134.2" clip-path="url(#terminal-3803642006-line-14)">0xdeadbeef&#160;</text><text class="terminal-3803642006-r2" x="305" y="361.6" textLength="122" clip-path="url(#terminal-3803642006-line-14)">0x00000000</text><text class="terminal-3803642006-r1" x="1695.8" y="361.6" textLength="12.2" clip-path="url(#terminal-3803642006-line-14)">
</text><text class="terminal-3803642006-r1" x="1695.8" y="386" textLength="12.2" clip-path="url(#terminal-3803642006-line-15)">
</text><text class="terminal-3803642006-r1" x="1695.8" y="410.4" textLength="12.2" clip-path="url(#terminal-3803642006-line-16)">
</text><text class="terminal-3803642006-r1" x="1695.8" y="434.8" textLength="12.2" clip-path="url(#terminal-3803642006-line-17)">
</text><text class="terminal-3803642006-r1" x="1695.8" y="459.2" textLength="12.2" clip-path="url(#terminal-3803642006-line-18)">
</text><text class="terminal-3803642006-r1" x="1695.8" y="483.6" textLength="12.2" clip-path="url(#terminal-3803642006-line-19)">
</text><text class="terminal-3803642006-r1" x="1695.8" y="508" textLength="12.2" clip-path="url(#terminal-3803642006-line-20)">
</text><text class="terminal-3803642006-r1" x="1695.8" y="532.4" textLength="12.2" clip-path="url(#terminal-3803642006-line-21)">
</text><text class="terminal-3803642006-r1" x="1695.8" y="556.8" textLength="12.2" clip-path="url(#terminal-3803642006-line-22)">
</text><text class="terminal-3803642006-r1" x="1695.8" y="581.2" textLength="12.2" clip-path="url(#terminal-3803642006-line-23)">
</text><text class="terminal-3803642006-r1" x="1695.8" y="605.6" textLength="12.2" clip-path="url(#terminal-3803642006-line-24)">
</text><text class="terminal-3803642006-r1" x="1695.8" y="630" textLength="12.2" clip-path="url(#terminal-3803642006-line-25)">
</text><text class="terminal-3803642006-r1" x="1695.8" y="654.4" textLength="12.2" clip-path="url(#terminal-3803642006-line-26)">
</text><text class="terminal-3803642006-r1" x="1695.8" y="678.8" textLength="12.2" clip-path="url(#terminal-3803642006-line-27)">
</text><text class="terminal-3803642006-r1" x="1695.8" y="703.2" textLength="12.2" clip-path="url(#terminal-3803642006-line-28)">
</text><text class="terminal-3803642006-r1" x="1695.8" y="727.6" textLength="12.2" clip-path="url(#terminal-3803642006-line-29)">
</text><text class="terminal-3803642006-r1" x="1695.8" y="752" textLength="12.2" clip-path="url(#terminal-3803642006-line-30)">
</text><text class="terminal-3803642006-r1" x="1695.8" y="776.4" textLength="12.2" clip-path="url(#terminal-3803642006-line-31)">
</text><text class="terminal-3803642006-r1" x="1695.8" y="800.8" textLength="12.2" clip-path="url(#terminal-3803642006-line-32)">
</text><text class="terminal-3803642006-r1" x="1695.8" y="825.2" textLength="12.2" clip-path="url(#terminal-3803642006-line-33)">
</text><text class="terminal-3803642006-r1" x="1695.8" y="849.6" textLength="12.2" clip-path="url(#terminal-3803642006-line-34)">
</text><text class="terminal-3803642006-r13" x="1549.4" y="874" textLength="12.2" clip-path="url(#terminal-3803642006-line-35)">▏</text><text class="terminal-3803642006-r14" x="1561.6" y="874" textLength="24.4" clip-path="url(#terminal-3803642006-line-35)">^p</text><text class="terminal-3803642006-r2" x="1586" y="874" textLength="97.6" clip-path="url(#terminal-3803642006-line-35)">&#160;palette</text>
    </g>
    </g>
</svg>
